<?xml version="1.0" encoding="utf-8" ?>
<svg baseProfile="full" height="200mm" version="1.1" viewBox="0,0,200,200" width="200mm" xmlns="http://www.w3.org/2000/svg" xmlns:ev="http://www.w3.org/2001/xml-events" xmlns:xlink="http://www.w3.org/1999/xlink"><defs /><rect fill="#1a1a1a" height="200" width="200" x="0" y="0" /><rect fill="#1a1a1a" height="200" width="180" x="10" y="0" /><text alignment-baseline="middle" fill="#e1ed5e" style="dominant-baseline: central; font-size:9.0px; font-family:Arial;" text-anchor="middle" x="100.0" y="100.0">2026</text><line stroke="#e1ed5e" stroke-width="0.3" x1="100.0" x2="100.0" y1="15.0" y2="10.0" /><path d="M 100.0 14.0 a86.0,86.0 0 0,1 42.46469731375804,11.215312516191453" fill="none" id="id85" stroke="none" /><text fill="#e1ed5e" style="font-size:6.75px; font-family:Arial;" text-anchor="middle"><textPath startOffset="22.20632615414155" xlink:href="#id85">January</textPath></text><path d="M 100.0 79.0 l 0.0 -2.5002933328372166 a23.500293332837217,23.500293332837217 0 0,0 0.4045189189047143,0.0034818220461934122 l -0.04303843963218592 2.499922887399582" fill="#ff0d01" stroke="none" /><path d="M 100.36148047927253 79.00311137660856 l 0.24728709797748094 -14.363872883770002 a35.366001361893616,35.366001361893616 0 0,0 0.6085871862785898,0.0157180115144831 l -0.49450091945093844 14.357488080113159" fill="#ffb210" stroke="none" /><path d="M 101.80526077348638 79.07773832637324 l 1.1980344204747424 -13.884747293753524 a34.936337176031515,34.936337176031515 0 0,0 0.5987004714836532,0.056853823791667306 l -1.4368600190486398 13.862067925446679" fill="#ffac0f" stroke="none" /><path d="M 102.16513564639614 79.11191278185805 l 1.0486357327180618 -10.116684689725677 a31.17088717916304,31.17088717916304 0 0,0 0.5332200264712943,0.05991348287916139 l -1.2226224626990811 10.097135253375916" fill="#ff7a0b" stroke="none" /><path d="M 102.52436894288641 79.15227682838746 l 1.1816940120885575 -9.759124040484199 a30.830407050359746,30.830407050359746 0 0,0 0.5262974686505633,0.06832851626933166 l -1.349506209246967 9.737337201050732" fill="#ff750a" stroke="none" /><path d="M 102.88285421437855 79.19881850522331 l 3.38355671648927 -24.413991178092154 a45.64734105938531,45.64734105938531 0 0,0 0.7773764344661358,0.11456507891500405 l -3.803302131384062 24.35213161501618" fill="#cdff1d" stroke="none" /><path d="M 103.2404852339499 79.25152402106235 l 1.1456472118886945 -7.335455013703339 a28.424379286659175,28.424379286659175 0 0,0 0.48276885358011623,0.07966099736387705 l -1.2717452716076858 7.3146477533998375" fill="#ff5407" stroke="none" /><path d="M 103.95276090670814 79.375362276772 l 1.9159521299667528 -9.997017150354344 a31.17895989130535,31.17895989130535 0 0,0 0.5262319382550401,0.10555717628091453 l -2.0877504776889184 9.96255601799622" fill="#ff7a0b" stroke="none" /><path d="M 104.66035177308747 79.52364482259891 l 2.6919684696561994 -11.827798671628424 a33.13027269512925,33.13027269512925 0 0,0 0.554973579934226,0.1313443158932034 l -2.895165736552949 11.779708443594352" fill="#ff940d" stroke="none" /><path d="M 105.36241919743992 79.69619591428918 l 7.773682666971309 -29.433605259734954 a51.44285237609425,51.44285237609425 0 0,0 0.8542014860903384,0.23348553379656492 l -8.279182042285358 29.295433185112095" fill="#8cff24" stroke="none" /><path d="M 107.08798089147638 80.2323363322302 l 2.2881776883095344 -6.381496740346932 a27.77932576148514,27.77932576148514 0 0,0 0.4487256322103305,0.165269437294454 l -2.3976856462924414 6.341164035246153" fill="#ff4b06" stroke="none" /><path d="M 107.4271985657038 80.35727306442388 l 3.905689089409885 -10.329383764262865 a32.043123480816135,32.043123480816135 0 0,0 0.5142415266204526,0.19951772310727847 l -4.082913781030005 10.260623337265038" fill="#ff850c" stroke="none" /><path d="M 108.09893153111575 80.62456947434976 l 5.047686334846414 -12.075802285813031 a34.08832067841564,34.08832067841564 0 0,0 0.5394334586233227,0.23095725509908266 l -5.254803551260053 11.987125502751159" fill="#ffa10e" stroke="none" /><path d="M 109.08828744355905 81.06846463323043 l 6.692962752167752 -13.941907299700803 a36.465203831678245,36.465203831678245 0 0,0 0.5635241141762327,0.27651883546791967 l -6.931958133354416 13.824633304098052" fill="#ffc011" stroke="none" /><path d="M 109.41281617654863 81.2277094730956 l 12.210692555965297 -24.352187899555684 a48.24206431589891,48.24206431589891 0 0,0 0.7391132500337718,0.3786025139816776 l -12.628066293587825 24.138392860261508" fill="#afff20" stroke="none" /><path d="M 110.36928655335952 81.73862282372117 l 14.595126002881392 -25.70351388231049 a50.558219312707465,50.558219312707465 0 0,0 0.7530845810356875,0.4362351975821286 l -15.035407316382408 25.44847452733831" fill="#95ff23" stroke="none" /><line stroke="#e1ed5e" stroke-width="0.3" x1="143.23703022742887" x2="145.7803849466894" y1="26.81831364943548" y2="22.513508569990506" /><path d="M 143.74570117128098 25.957352633546492 a86.0,86.0 0 0,1 28.547481713284135,27.462654790039103" fill="none" id="id86" stroke="none" /><text fill="#e1ed5e" style="font-size:6.75px; font-family:Arial;" text-anchor="middle"><textPath startOffset="19.985693538727396" xlink:href="#id86">February</textPath></text><path d="M 110.68208982089419 81.91981866633111 l 12.430594263208182 -21.03964693542097 a45.437397915974465,45.437397915974465 0 0,0 0.6699591431975884,0.40364288755252936 l -12.790915472623407 20.822557438409824" fill="#d0ff1d" stroke="none" /><path d="M 110.99172775467656 82.1063720568725 l 10.861584047870213 -17.681764701905806 a41.75135684726449,41.75135684726449 0 0,0 0.6091341000225241,0.3814397175520348 l -11.164337300265 17.492180643030828" fill="#fcff18" stroke="none" /><path d="M 111.2981086023043 82.29822771554956 l 9.559665561941596 -14.977995773423473 a38.76872429424419,38.76872429424419 0 0,0 0.5594381823540023,0.3638741555884844 l -9.816070770079879 14.811222693675461" fill="#ffdd14" stroke="none" /><path d="M 113.6212207817346 84.01681056812373 l 1.0431537975101266 -1.2240404160061065 a22.60824276316612,22.60824276316612 0 0,0 0.29402149049143256,0.2549725392182913 l -1.0640690866483233 1.2059028833681438" fill="#ff0000" stroke="none" /><path d="M 113.89432698308785 84.25364557470407 l 1.6253612445830483 -1.8420117978724115 a23.456584343940527,23.456584343940527 0 0,0 0.30045540271656784,0.26975182714039125 l -1.6568276348956061 1.8137609619627229" fill="#ff0c01" stroke="none" /><path d="M 115.4437574822437 85.77008943001954 l 7.904762900682635 -7.28346513359464 a31.74868088968583,31.74868088968583 0 0,0 0.3668580628540193,0.40509383582189773 l -8.02896460415269 7.1463185105031934" fill="#ff810b" stroke="none" /><path d="M 116.82858285166822 87.43820079747576 l 12.991124766199553 -9.697305005796217 a37.211324654894916,37.211324654894916 0 0,0 0.3787357769830725,0.5165951741730839 l -13.156123155696251 9.47224738795164" fill="#ffc912" stroke="none" /><path d="M 117.2510076193507 88.02491185347247 l 13.144189282622065 -9.124268491857874 a37.000687091775376,37.000687091775376 0 0,0 0.35868736406343676,0.5263294470670618 l -13.299301112354236 8.896661021520407" fill="#ffc712" stroke="none" /><path d="M 117.45458315368197 88.32363383020206 l 1.8797358323333277 -1.257462506412472 a23.26155228867055,23.26155228867055 0 0,0 0.21977001146999045,0.33472480502262075 l -1.9011024791612432 1.2249196374121774" fill="#ff0a01" stroke="none" /><line stroke="#e1ed5e" stroke-width="0.3" x1="172.23445277983987" x2="176.4835382374775" y1="55.19839476539836" y2="52.563006222186495" /><path d="M 173.08426987136738 54.67131705675599 a86.0,86.0 0 0,1 12.851231095245387,41.99856678651699" fill="none" id="id87" stroke="none" /><text fill="#e1ed5e" style="font-size:6.75px; font-family:Arial;" text-anchor="middle"><textPath startOffset="22.20632615414155" xlink:href="#id87">March</textPath></text><path d="M 118.3937258080291 89.86733742301442 l 14.614136727568594 -8.050577564320657 a37.68486713795505,37.68486713795505 0 0,0 0.3081041176007197,0.5708701370082477 l -14.750548944387779 7.79782644397995" fill="#ffd013" stroke="none" /><path d="M 118.73160827565052 90.50648371742162 l 30.07696405958541 -15.243546834223073 a54.719274712376965,54.719274712376965 0 0,0 0.41857636099976847,0.8438244018997697 l -30.334900433538586 14.723562843824354" fill="#68ff28" stroke="none" /><path d="M 119.04729006885535 91.15688171328212 l 28.941849612913895 -13.436882550651372 a52.908940309833596,52.908940309833596 0 0,0 0.37640348067684354,0.8293551754993443 l -29.168855410554084 12.936705366309965" fill="#7cff26" stroke="none" /><path d="M 119.34039704204932 91.81776055985345 l 21.27583137880187 -9.001053403973657 a44.10151430621802,44.10151430621802 0 0,0 0.289764407130295,0.701687495772614 l -21.427617472818362 8.63349133774774" fill="#dfff1b" stroke="none" /><path d="M 119.61058180528143 92.48833698450437 l 1.5379788589710968 -0.5891094424560124 a22.646945325696294,22.646945325696294 0 0,0 0.1363080939820275,0.3652379237511917 l -1.5478915414547496 0.5625483816754875" fill="#ff0100" stroke="none" /><path d="M 119.7369772167798 92.82701384747503 l 20.584982734783054 -7.481175789220232 a42.90227169451907,42.90227169451907 0 0,0 0.24627317519213265,0.696247429770589 l -20.710708990784994 7.125730733023028" fill="#eeff19" stroke="none" /><path d="M 119.97218684219823 93.5106431181261 l 42.081755609007665 -13.673191249426175 a65.24737635249838,65.24737635249838 0 0,0 0.337871160802201,1.071143911363648 l -42.31088225357807 12.946797171636106" fill="#35ff6a" stroke="none" /><path d="M 120.18372546131832 94.20196356495316 l 23.03643317796499 -6.617513657492993 a44.96807753179117,44.96807753179117 0 0,0 0.2073097527273748,0.7458034814906219 l -23.14692970125873 6.219998872583419" fill="#d5ff1c" stroke="none" /><path d="M 120.37134235888165 94.90015583598534 l 12.386124002981166 -3.100792333590383 a33.76835858336063,33.76835858336063 0 0,0 0.13630710461428586,0.5650809480387514 l -12.437663907856273 2.8871261538922255" fill="#ff9d0e" stroke="none" /><path d="M 120.6074358757038 95.95851677861258 l 61.68331176301202 -12.097190112998907 a83.85835631547309,83.85835631547309 0 0,0 0.2656084697348939,1.418891066040159 l -61.882405956656775 11.033620969496186" fill="#4dd3ff" stroke="none" /><path d="M 120.78858239683441 97.02765380044208 l 14.681765960612047 -2.099195145815673 a35.83107791033419,35.83107791033419 0 0,0 0.08204293257139304,0.6113151428249864 l -14.715724892241278 1.8461616609260219" fill="#ffb811" stroke="none" /><path d="M 120.87857604477298 97.74499172005257 l 19.181137192358424 -2.0716749597683655 a40.29268931826268,40.29268931826268 0 0,0 0.06854146078291928,0.6902031562620535 l -19.213955778823575 1.741196272801877" fill="#fff016" stroke="none" /><path d="M 120.94382443527127 98.46500227214037 l 62.831473305813795 -4.6049931835789 a84.0,84.0 0 0,0 0.09327763598233796,1.442963742987859 l -62.90143153280055 3.5227703763380056" fill="#4dd2ff" stroke="none" /><path d="M 120.96714384426684 98.82574320788733 l 2.6055021449974616 -0.14592014121484545 a23.609585046554056,23.609585046554056 0 0,0 0.01923213386909224,0.4059599494071608 l -2.6076278871000502 0.10104908518468489" fill="#ff0f01" stroke="none" /><line stroke="#e1ed5e" stroke-width="0.3" x1="184.98032266829074" x2="189.97916517819016" y1="98.17113171792111" y2="98.06355123074" /><path d="M 185.9800911702706 98.14961562048488 a86.0,86.0 0 0,1 -9.607161424134198,41.387399972396054" fill="none" id="id88" stroke="none" /><text fill="#e1ed5e" style="font-size:6.75px; font-family:Arial;" text-anchor="middle"><textPath startOffset="21.466115282336823" xlink:href="#id88">April</textPath></text><path d="M 120.99513854157772 99.54816195383933 l 14.794401288952818 -0.31839148664245825 a35.79782695659519,35.79782695659519 0 0,0 0.007955628743222863,0.616172213573092 l -14.797689924813756 0.06368301500890346" fill="#ffb711" stroke="none" /><path d="M 120.99980553446 99.90962569577887 l 17.929471084494857 -0.07716087997363259 a38.92963711766458,38.92963711766458 0 0,0 -0.002883949618219757,0.6701283254764654 l -17.928142837587135 -0.23147692370651754" fill="#ffdf14" stroke="none" /><path d="M 120.9904718944345 100.63252640178507 l 35.72720281557754 1.0766027155766102 a56.743420295665594,56.743420295665594 0 0,0 -0.037823183755574634,0.9760483091924591 l -35.70337749897077 -1.6914282717830755" fill="#53ff2b" stroke="none" /><path d="M 120.9764740272857 100.99374915477107 l 20.63854492662959 0.9777399457060545 a41.66169189804981,41.66169189804981 0 0,0 -0.0401016581647163,0.7160420453012151 l -20.618656917577344 -1.332853707342693" fill="#fdff18" stroke="none" /><path d="M 120.92983693683757 101.71520430193887 l 14.875296250615852 1.2190334878703821 a35.925162685483045,35.925162685483045 0 0,0 -0.05581299697264917,0.6158917707711578 l -14.852108657366127 -1.4749066471901104" fill="#ffb911" stroke="none" /><path d="M 120.89721153311464 102.0752229133903 l 19.350585820146364 1.9216333728478057 a40.44576679903603,40.44576679903603 0 0,0 -0.07476245624589269,0.6922074929411207 l -19.31464106239942 -2.2544371876737177" fill="#fff216" stroke="none" /><path d="M 120.8583938346157 102.4346265915055 l 17.66794170424033 2.0622316862637367 a38.78788811501424,38.78788811501424 0 0,0 -0.08311411546084561,0.6625012769305987 l -17.629826079532638 -2.36605071748173" fill="#ffde14" stroke="none" /><path d="M 120.76222939487914 103.15116336523771 l 21.685396644943253 3.29127600743338 a42.93373943051259,42.93373943051259 0 0,0 -0.11718507727935987,0.7297115880804654 l -21.625529813302606 -3.6640668252070503" fill="#edff19" stroke="none" /><path d="M 120.70491114924044 103.5080841355445 l 53.770059346228045 9.110393703220927 a75.53639661294623,75.53639661294623 0 0,0 -0.22824062371283307,1.2800946281774477 l -53.605272280176024 -10.034607082131593" fill="#42ffda" stroke="none" /><path d="M 120.49622156327973 104.57218783832717 l 40.31732952332218 8.993774933162136 a62.308292719991734,62.308292719991734 0 0,0 -0.24252593260788474,1.0447953701813966 l -40.156543024783744 -9.686438960692097" fill="#32ff47" stroke="none" /><line stroke="#e1ed5e" stroke-width="0.3" x1="174.80103733775053" x2="179.2010983576182" y1="140.37084112569926" y2="142.7455964860345" /><path d="M 175.68104954172406 140.8457921977663 a86.0,86.0 0 0,1 -30.038265399797805,32.042727171017184" fill="none" id="id89" stroke="none" /><text fill="#e1ed5e" style="font-size:6.75px; font-family:Arial;" text-anchor="middle"><textPath startOffset="22.206326154141568" xlink:href="#id89">May</textPath></text><line stroke="#e1ed5e" stroke-width="0.3" x1="143.8653032363475" x2="146.44561519142675" y1="172.8068346515853" y2="177.08958963109032" /><path d="M 144.38136562736335 173.6633856474863 a86.0,86.0 0 0,1 -40.68145358897372,12.25698825130547" fill="none" id="id90" stroke="none" /><text fill="#e1ed5e" style="font-size:6.75px; font-family:Arial;" text-anchor="middle"><textPath startOffset="21.466115282336833" xlink:href="#id90">June</textPath></text><line stroke="#e1ed5e" stroke-width="0.3" x1="102.19456741930631" x2="102.32365962044197" y1="184.97166512339345" y2="189.96999836594603" /><path d="M 102.22038585953345 185.97133177190398 a86.0,86.0 0 0,1 -42.740103519485714,-10.115201625700543" fill="none" id="id91" stroke="none" /><text fill="#e1ed5e" style="font-size:6.75px; font-family:Arial;" text-anchor="middle"><textPath startOffset="22.20632615414155" xlink:href="#id91">July</textPath></text><line stroke="#e1ed5e" stroke-width="0.3" x1="58.666819895761336" x2="56.23545636021788" y1="174.27360380694188" y2="178.64263932499728" /><path d="M 58.180547188652646 175.14741091055294 a86.0,86.0 0 0,1 -31.652253787137756,-30.449443065178592" fill="none" id="id92" stroke="none" /><text fill="#e1ed5e" style="font-size:6.75px; font-family:Arial;" text-anchor="middle"><textPath startOffset="22.20632615414155" xlink:href="#id92">August</textPath></text><line stroke="#e1ed5e" stroke-width="0.3" x1="26.63291911575756" x2="22.317208475507996" y1="142.92168965132927" y2="145.44649492493687" /><path d="M 25.769776987707644 143.4266507060508 a86.0,86.0 0 0,1 -11.730757126820373,-40.83630448921669" fill="none" id="id93" stroke="none" /><text fill="#e1ed5e" style="font-size:6.75px; font-family:Arial;" text-anchor="middle"><textPath startOffset="21.46611528233685" xlink:href="#id93">September</textPath></text><line stroke="#e1ed5e" stroke-width="0.3" x1="15.007084014347285" x2="10.007500721073583" y1="101.09737516637583" y2="101.16192664675087" /><path d="M 14.007167355692545 101.11028546245083 a86.0,86.0 0 0,1 10.666146001902534,-42.60595125391555" fill="none" id="id94" stroke="none" /><text fill="#e1ed5e" style="font-size:6.75px; font-family:Arial;" text-anchor="middle"><textPath startOffset="22.20632615414155" xlink:href="#id94">October</textPath></text><line stroke="#e1ed5e" stroke-width="0.3" x1="26.266209847984243" x2="21.928928074336255" y1="57.711370442889674" y2="55.22380399835377" /><path d="M 25.398753493254645 57.213857153982495 a86.0,86.0 0 0,1 29.58750427330803,-30.492523968695096" fill="none" id="id95" stroke="none" /><text fill="#e1ed5e" style="font-size:6.75px; font-family:Arial;" text-anchor="middle"><textPath startOffset="21.46611528233685" xlink:href="#id95">November</textPath></text><line stroke="#e1ed5e" stroke-width="0.3" x1="56.762969772571076" x2="54.21961505331055" y1="26.818313649435495" y2="22.513508569990535" /><path d="M 56.25429882871897 25.957352633546506 a86.0,86.0 0 0,1 42.265352541879196,-11.944610805530505" fill="none" id="id96" stroke="none" /><text fill="#e1ed5e" style="font-size:6.75px; font-family:Arial;" text-anchor="middle"><textPath startOffset="22.20632615414155" xlink:href="#id96">December</textPath></text></svg>