<?xml version="1.0" encoding="utf-8" ?>
<svg baseProfile="full" height="200mm" version="1.1" viewBox="0,0,200,200" width="200mm" xmlns="http://www.w3.org/2000/svg" xmlns:ev="http://www.w3.org/2001/xml-events" xmlns:xlink="http://www.w3.org/1999/xlink"><defs /><rect fill="#1a1a1a" height="200" width="200" x="0" y="0" /><rect fill="#1a1a1a" height="200" width="180" x="10" y="0" /><text alignment-baseline="middle" fill="#e1ed5e" style="dominant-baseline: central; font-size:9.0px; font-family:Arial;" text-anchor="middle" x="100.0" y="100.0">2026</text><line stroke="#e1ed5e" stroke-width="0.3" x1="100.0" x2="100.0" y1="15.0" y2="10.0" /><path d="M 100.0 14.0 a86.0,86.0 0 0,1 42.46469731375804,11.215312516191453" fill="none" id="id85" stroke="none" /><text fill="#e1ed5e" style="font-size:6.75px; font-family:Arial;" text-anchor="middle"><textPath startOffset="22.20632615414155" xlink:href="#id85">January</textPath></text><path d="M 100.0 79.0 l 0.0 -3.7992072838457176 a24.799207283845718,24.799207283845718 0 0,0 0.42687758735920606,0.003674270164464776 l -0.06539710808667766 3.7986443902898115" fill="#ff0601" stroke="none" /><path d="M 100.36148047927253 79.00311137660856 l 0.38369709510230404 -22.287358883653503 a43.290661485688545,43.290661485688545 0 0,0 0.7449567621772959,0.019240035330508436 l -0.7672804924744677 22.277452056180636" fill="#f8ff18" stroke="none" /><path d="M 101.80526077348638 79.07773832637324 l 1.798841039921364 -20.84785948891483 a41.92532136805649,41.92532136805649 0 0,0 0.7184699856680951,0.06822738232283306 l -2.1574361526797032 20.813806562076817" fill="#fff517" stroke="none" /><path d="M 102.16513564639614 79.11191278185805 l 1.5821198452984493 -15.263458145523002 a36.34523566990809,36.34523566990809 0 0,0 0.6217342295912859,0.06985908493819756 l -1.8446207783994604 15.233963107114203" fill="#ffac0f" stroke="none" /><path d="M 102.52436894288641 79.15227682838746 l 1.791101800302764 -14.791971914451313 a35.90001606633242,35.90001606633242 0 0,0 0.6128393812434221,0.07956414029340685 l -2.045455910054032 14.758949450993768" fill="#ffa60f" stroke="none" /><path d="M 102.88285421437855 79.19881850522331 l 5.215505109301119 -37.632381070263 a58.99207283845717,58.99207283845717 0 0,0 1.0046378645640208,0.14805750616021798 l -5.862511954293795 37.53702907994181" fill="#44ff2d" stroke="none" /><path d="M 103.2404852339499 79.25152402106235 l 1.7404332364309703 -11.143805508107725 a32.27889662391697,32.27889662391697 0 0,0 0.5482352230387452,0.09046350926204984 l -1.9319976656085907 11.11219573590605" fill="#ff740a" stroke="none" /><path d="M 103.95276090670814 79.375362276772 l 2.8604491482030716 -14.925195021860384 a36.19682913538287,36.19682913538287 0 0,0 0.6109224817313677,0.12254530257499838 l -3.1169380394015644 14.873745763208179" fill="#ffaa0f" stroke="none" /><path d="M 104.66035177308747 79.52364482259891 l 4.070716891438652 -17.88565519390447 a39.343047667317606,39.343047667317606 0 0,0 0.6590453453365084,0.1559747403400406 l -4.3779859237376835 17.81293454142356" fill="#ffd413" stroke="none" /><path d="M 105.36241919743992 79.69619591428918 l 11.6719980631993 -44.193852296578065 a66.70921263376877,66.70921263376877 0 0,0 1.1076972977914032,0.3027755149942294 l -12.430993250214414 43.986390240757544" fill="#37ff75" stroke="none" /><path d="M 107.08798089147638 80.2323363322302 l 3.3059798542100385 -9.22004430472362 a30.794831278664738,30.794831278664738 0 0,0 0.4974357640273604,0.18320978992437864 l -3.4641979440099755 9.161771246992918" fill="#ff5f08" stroke="none" /><path d="M 107.4271985657038 80.35727306442388 l 5.773663240016627 -15.269618744988199 a37.324718797774565,37.324718797774565 0 0,0 0.5990027903096865,0.23240377657346106 l -6.0356491953259805 15.16797226452419" fill="#ffb911" stroke="none" /><path d="M 108.09893153111575 80.62456947434976 l 7.623697952559105 -18.23850830950306 a40.767750398759745,40.767750398759745 0 0,0 0.6451326483742007,0.27621213193479327 l -7.936514358723621 18.104576649605477" fill="#ffe615" stroke="none" /><path d="M 109.08828744355905 81.06846463323043 l 20.090119866996982 -41.84911812557613 a67.42156399948985,67.42156399948985 0 0,0 1.041915940044263,0.5112636267884733 l -20.807507074051678 41.49709933865283" fill="#38ff7d" stroke="none" /><path d="M 109.41281617654863 81.2277094730956 l 8.341628475339132 -16.635985476557114 a39.610179429463,39.610179429463 0 0,0 0.606864753150349,0.31085969731850166 l -8.626753716078237 16.48993325392611" fill="#ffd714" stroke="none" /><path d="M 110.36928655335952 81.73862282372117 l 14.69433102511933 -25.878224101721024 a50.759130480151455,50.759130480151455 0 0,0 0.7560772319719107,0.4379687341666411 l -15.13760498955657 25.62145121016433" fill="#9eff22" stroke="none" /><line stroke="#e1ed5e" stroke-width="0.3" x1="143.23703022742887" x2="145.7803849466894" y1="26.81831364943548" y2="22.513508569990506" /><path d="M 143.74570117128098 25.957352633546492 a86.0,86.0 0 0,1 28.547481713284135,27.462654790039103" fill="none" id="id86" stroke="none" /><text fill="#e1ed5e" style="font-size:6.75px; font-family:Arial;" text-anchor="middle"><textPath startOffset="19.985693538727396" xlink:href="#id86">February</textPath></text><path d="M 110.68208982089419 81.91981866633111 l 12.495527702296533 -21.149551305541483 a45.5650510478727,45.5650510478727 0 0,0 0.6718413456738654,0.404776893484379 l -12.857731114188036 20.931327802598492" fill="#dcff1b" stroke="none" /><path d="M 111.2981086023043 82.29822771554956 l 9.60604897910218 -15.050668883344178 a38.85493799555111,38.85493799555111 0 0,0 0.5606822582742492,0.364683337173236 l -9.863698263160709 14.883086622011415" fill="#ffcd13" stroke="none" /><path d="M 115.4437574822437 85.77008943001954 l 7.946380824424719 -7.321811975911934 a31.805271806733614,31.805271806733614 0 0,0 0.36751197456378193,0.4058159014642222 l -8.071236439604537 7.183943287178162" fill="#ff6d0a" stroke="none" /><path d="M 116.82858285166822 87.43820079747576 l 13.043200220746195 -9.736177049221446 a37.27630841229853,37.27630841229853 0 0,0 0.37939717977052473,0.5174973268318694 l -13.208860013030346 9.510217278718082" fill="#ffb811" stroke="none" /><path d="M 117.2510076193507 88.02491185347247 l 11.168768568030966 -7.752995711410561 a34.59596755760277,34.59596755760277 0 0,0 0.33537583720219755,0.49212265788952325 l -11.300568870901897 7.559595030250631" fill="#ff940d" stroke="none" /><path d="M 117.45458315368197 88.32363383020206 l 2.81240627148488 -1.881378956745033 a24.383668987175092,24.383668987175092 0 0,0 0.23037152235115035,0.35087163342248184 l -2.8443744291939552 1.8326892593448771" fill="#ff0000" stroke="none" /><line stroke="#e1ed5e" stroke-width="0.3" x1="172.23445277983987" x2="176.4835382374775" y1="55.19839476539836" y2="52.563006222186495" /><path d="M 173.08426987136738 54.67131705675599 a86.0,86.0 0 0,1 12.851231095245387,41.99856678651699" fill="none" id="id87" stroke="none" /><text fill="#e1ed5e" style="font-size:6.75px; font-family:Arial;" text-anchor="middle"><textPath startOffset="22.20632615414155" xlink:href="#id87">March</textPath></text><path d="M 118.3937258080291 89.86733742301442 l 14.68365860340984 -8.088875499006132 a37.764239822309676,37.764239822309676 0 0,0 0.30875305317438534,0.5720725160700171 l -14.820719755802692 7.834921999603656" fill="#ffbf11" stroke="none" /><path d="M 118.73160827565052 90.50648371742162 l 30.28508122148741 -15.349024358423115 a54.95259479550209,54.95259479550209 0 0,0 0.4203611483869556,0.8474224243631363 l -30.544802382827775 14.82544234556103" fill="#6fff27" stroke="none" /><path d="M 119.04729006885535 91.15688171328212 l 29.118056440857554 -13.518690399263969 a53.103211692977354,53.103211692977354 0 0,0 0.3777855613683675,0.8324004071013794 l -29.34644431918927 13.015467983320526" fill="#83ff25" stroke="none" /><path d="M 119.34039704204932 91.81776055985345 l 21.367661126602066 -9.039903329473939 a44.20122398123718,44.20122398123718 0 0,0 0.29041953916649826,0.7032739499628872 l -21.520102352654764 8.67075480905775" fill="#ecff1a" stroke="none" /><path d="M 119.7369772167798 92.82701384747503 l 19.553419692356215 -7.106276059767564 a41.80469613099527,41.80469613099527 0 0,0 0.2399727298225502,0.6784352222836815 l -19.672845502988576 6.768643211057268" fill="#fff317" stroke="none" /><path d="M 119.97218684219823 93.5106431181261 l 42.38287265545786 -13.771030108689322 a65.56398955191496,65.56398955191496 0 0,0 0.33951068219282743,1.076341642211556 l -42.613638821418895 13.039438300051346" fill="#35ff67" stroke="none" /><path d="M 120.18372546131832 94.20196356495316 l 23.12540453959452 -6.643071832934508 a45.06064709224228,45.06064709224228 0 0,0 0.20773651263663787,0.7473387639455076 l -23.236327822797524 6.244021765570048" fill="#e2ff1b" stroke="none" /><path d="M 120.37134235888165 94.90015583598534 l 12.438474472217882 -3.1138979616004043 a33.82232458297929,33.82232458297929 0 0,0 0.136524940169943,0.5659840170508591 l -12.490232212648644 2.899328712890139" fill="#ff890c" stroke="none" /><path d="M 120.6074358757038 95.95851677861258 l 61.822307627111385 -12.124449664162288 a84.0,84.0 0 0,0 0.26605710436056285,1.4212876901497489 l -62.02185045538181 11.058483896549978" fill="#4dd2ff" stroke="none" /><path d="M 120.78858239683441 97.02765380044208 l 14.812947145848003 -2.1179513981635467 a35.963593193837816,35.963593193837816 0 0,0 0.08234635471505207,0.6135759902285793 l -14.847209499620892 1.862657065870303" fill="#ffa70f" stroke="none" /><line stroke="#e1ed5e" stroke-width="0.3" x1="184.98032266829074" x2="189.97916517819016" y1="98.17113171792111" y2="98.06355123074" /><path d="M 185.9800911702706 98.14961562048488 a86.0,86.0 0 0,1 -9.607161424134198,41.387399972396054" fill="none" id="id88" stroke="none" /><text fill="#e1ed5e" style="font-size:6.75px; font-family:Arial;" text-anchor="middle"><textPath startOffset="21.466115282336823" xlink:href="#id88">April</textPath></text><line stroke="#e1ed5e" stroke-width="0.3" x1="174.80103733775053" x2="179.2010983576182" y1="140.37084112569926" y2="142.7455964860345" /><path d="M 175.68104954172406 140.8457921977663 a86.0,86.0 0 0,1 -30.038265399797805,32.042727171017184" fill="none" id="id89" stroke="none" /><text fill="#e1ed5e" style="font-size:6.75px; font-family:Arial;" text-anchor="middle"><textPath startOffset="22.206326154141568" xlink:href="#id89">May</textPath></text><line stroke="#e1ed5e" stroke-width="0.3" x1="143.8653032363475" x2="146.44561519142675" y1="172.8068346515853" y2="177.08958963109032" /><path d="M 144.38136562736335 173.6633856474863 a86.0,86.0 0 0,1 -40.68145358897372,12.25698825130547" fill="none" id="id90" stroke="none" /><text fill="#e1ed5e" style="font-size:6.75px; font-family:Arial;" text-anchor="middle"><textPath startOffset="21.466115282336833" xlink:href="#id90">June</textPath></text><line stroke="#e1ed5e" stroke-width="0.3" x1="102.19456741930631" x2="102.32365962044197" y1="184.97166512339345" y2="189.96999836594603" /><path d="M 102.22038585953345 185.97133177190398 a86.0,86.0 0 0,1 -42.740103519485714,-10.115201625700543" fill="none" id="id91" stroke="none" /><text fill="#e1ed5e" style="font-size:6.75px; font-family:Arial;" text-anchor="middle"><textPath startOffset="22.20632615414155" xlink:href="#id91">July</textPath></text><line stroke="#e1ed5e" stroke-width="0.3" x1="58.666819895761336" x2="56.23545636021788" y1="174.27360380694188" y2="178.64263932499728" /><path d="M 58.180547188652646 175.14741091055294 a86.0,86.0 0 0,1 -31.652253787137756,-30.449443065178592" fill="none" id="id92" stroke="none" /><text fill="#e1ed5e" style="font-size:6.75px; font-family:Arial;" text-anchor="middle"><textPath startOffset="22.20632615414155" xlink:href="#id92">August</textPath></text><line stroke="#e1ed5e" stroke-width="0.3" x1="26.63291911575756" x2="22.317208475507996" y1="142.92168965132927" y2="145.44649492493687" /><path d="M 25.769776987707644 143.4266507060508 a86.0,86.0 0 0,1 -11.730757126820373,-40.83630448921669" fill="none" id="id93" stroke="none" /><text fill="#e1ed5e" style="font-size:6.75px; font-family:Arial;" text-anchor="middle"><textPath startOffset="21.46611528233685" xlink:href="#id93">September</textPath></text><line stroke="#e1ed5e" stroke-width="0.3" x1="15.007084014347285" x2="10.007500721073583" y1="101.09737516637583" y2="101.16192664675087" /><path d="M 14.007167355692545 101.11028546245083 a86.0,86.0 0 0,1 10.666146001902534,-42.60595125391555" fill="none" id="id94" stroke="none" /><text fill="#e1ed5e" style="font-size:6.75px; font-family:Arial;" text-anchor="middle"><textPath startOffset="22.20632615414155" xlink:href="#id94">October</textPath></text><line stroke="#e1ed5e" stroke-width="0.3" x1="26.266209847984243" x2="21.928928074336255" y1="57.711370442889674" y2="55.22380399835377" /><path d="M 25.398753493254645 57.213857153982495 a86.0,86.0 0 0,1 29.58750427330803,-30.492523968695096" fill="none" id="id95" stroke="none" /><text fill="#e1ed5e" style="font-size:6.75px; font-family:Arial;" text-anchor="middle"><textPath startOffset="21.46611528233685" xlink:href="#id95">November</textPath></text><line stroke="#e1ed5e" stroke-width="0.3" x1="56.762969772571076" x2="54.21961505331055" y1="26.818313649435495" y2="22.513508569990535" /><path d="M 56.25429882871897 25.957352633546506 a86.0,86.0 0 0,1 42.265352541879196,-11.944610805530505" fill="none" id="id96" stroke="none" /><text fill="#e1ed5e" style="font-size:6.75px; font-family:Arial;" text-anchor="middle"><textPath startOffset="22.20632615414155" xlink:href="#id96">December</textPath></text></svg>