<?xml version="1.0" encoding="utf-8" ?>
<svg baseProfile="full" height="200mm" version="1.1" viewBox="0,0,200,200" width="200mm" xmlns="http://www.w3.org/2000/svg" xmlns:ev="http://www.w3.org/2001/xml-events" xmlns:xlink="http://www.w3.org/1999/xlink"><defs /><rect fill="#1a1a1a" height="200" width="200" x="0" y="0" /><rect fill="#1a1a1a" height="200" width="180" x="10" y="0" /><text alignment-baseline="middle" fill="#e1ed5e" style="dominant-baseline: central; font-size:9.0px; font-family:Arial;" text-anchor="middle" x="100.0" y="100.0">2019</text><line stroke="#e1ed5e" stroke-width="0.3" x1="100.0" x2="100.0" y1="15.0" y2="10.0" /><path d="M 100.0 14.0 a86.0,86.0 0 0,1 42.46469731375804,11.215312516191453" fill="none" id="id1" stroke="none" /><text fill="#e1ed5e" style="font-size:6.75px; font-family:Arial;" text-anchor="middle"><textPath startOffset="22.20632615414155" xlink:href="#id1">January</textPath></text><line stroke="#e1ed5e" stroke-width="0.3" x1="143.23703022742887" x2="145.7803849466894" y1="26.81831364943548" y2="22.513508569990506" /><path d="M 143.74570117128098 25.957352633546492 a86.0,86.0 0 0,1 28.547481713284135,27.462654790039103" fill="none" id="id2" stroke="none" /><text fill="#e1ed5e" style="font-size:6.75px; font-family:Arial;" text-anchor="middle"><textPath startOffset="19.985693538727396" xlink:href="#id2">February</textPath></text><line stroke="#e1ed5e" stroke-width="0.3" x1="172.23445277983987" x2="176.4835382374775" y1="55.19839476539836" y2="52.563006222186495" /><path d="M 173.08426987136738 54.67131705675599 a86.0,86.0 0 0,1 12.851231095245387,41.99856678651699" fill="none" id="id3" stroke="none" /><text fill="#e1ed5e" style="font-size:6.75px; font-family:Arial;" text-anchor="middle"><textPath startOffset="22.20632615414155" xlink:href="#id3">March</textPath></text><line stroke="#e1ed5e" stroke-width="0.3" x1="184.98032266829074" x2="189.97916517819016" y1="98.17113171792111" y2="98.06355123074" /><path d="M 185.9800911702706 98.14961562048488 a86.0,86.0 0 0,1 -9.607161424134198,41.387399972396054" fill="none" id="id4" stroke="none" /><text fill="#e1ed5e" style="font-size:6.75px; font-family:Arial;" text-anchor="middle"><textPath startOffset="21.466115282336823" xlink:href="#id4">April</textPath></text><line stroke="#e1ed5e" stroke-width="0.3" x1="174.80103733775053" x2="179.2010983576182" y1="140.37084112569926" y2="142.7455964860345" /><path d="M 175.68104954172406 140.8457921977663 a86.0,86.0 0 0,1 -30.038265399797805,32.042727171017184" fill="none" id="id5" stroke="none" /><text fill="#e1ed5e" style="font-size:6.75px; font-family:Arial;" text-anchor="middle"><textPath startOffset="22.206326154141568" xlink:href="#id5">May</textPath></text><path d="M 114.0293411484842 115.62618273729858 l 32.711615317894754 36.434902621558 a69.96480272347006,69.96480272347006 0 0,0 -0.9030711812180265,0.7968553191391038 l -32.07960178377014 -36.99258108246939" fill="red" stroke="none" /><path d="M 113.75828350139079 115.86535959552629 l 30.575135480434483 35.25770631416276 a67.6684557724238,67.6684557724238 0 0,0 -0.8865680157006179,0.7555524966624106 l -29.963701988156817 -35.77878320104812" fill="red" stroke="none" /><path d="M 113.48314897796784 116.09983520530334 l 16.912535714034433 20.194765951536688 a47.34126868842569,47.34126868842569 0 0,0 -0.6292553449300715,0.5178343093916765 l -16.56241024055967 -20.482895379785543" fill="red" stroke="none" /><path d="M 112.63410532772338 116.77436683061366 l 23.544017865630035 31.25951399803362 a60.13410268104235,60.13410268104235 0 0,0 -0.8321844775954388,0.6156301818040613 l -23.00244841761603 -31.66015412857745" fill="red" stroke="none" /><path d="M 112.34349029814194 116.9893568818739 l 37.03047089442582 50.96807064562168 a84.0,84.0 0 0,0 -1.1770906886044616,0.8398229526231229 l -36.14765287797247 -51.597937860089026" fill="red" stroke="none" /><path d="M 112.04921762599082 117.19931262002967 l 26.85976066359079 38.3402005749967 a67.81258082007824,67.81258082007824 0 0,0 -0.961786206343553,0.6615253227579517 l -26.195817572624357 -38.796866687119746" fill="red" stroke="none" /><path d="M 111.45004920935366 117.60387380957326 l 30.86792011582383 47.457872062160696 a77.61340930332048,77.61340930332048 0 0,0 -1.1262008676143724,0.7187946780613234 l -30.046437446162525 -47.98218116904583" fill="red" stroke="none" /><line stroke="#e1ed5e" stroke-width="0.3" x1="143.8653032363475" x2="146.44561519142675" y1="172.8068346515853" y2="177.08958963109032" /><path d="M 144.38136562736335 173.6633856474863 a86.0,86.0 0 0,1 -40.68145358897372,12.25698825130547" fill="none" id="id6" stroke="none" /><text fill="#e1ed5e" style="font-size:6.75px; font-family:Arial;" text-anchor="middle"><textPath startOffset="21.466115282336833" xlink:href="#id6">June</textPath></text><path d="M 110.5260780823613 118.17145234162733 l 20.28563266517719 35.01963450306596 a61.47075108463928,61.47075108463928 0 0,0 -0.9201622096064951,0.5224921173730724 l -19.679821688649497 -35.36362978623366" fill="red" stroke="none" /><path d="M 108.59647513512805 119.15986991738527 l 14.953423706668422 33.32827101058607 a57.529146295885774,57.529146295885774 0 0,0 -0.9069862353884403,0.3975961117258123 l -14.377516796622228 -33.58073167560634" fill="red" stroke="none" /><path d="M 107.59598834532513 119.57807347666477 l 11.349647746414814 29.252840764339147 a52.377431328129475,52.377431328129475 0 0,0 -0.843350918672585,0.31888315477243456 l -10.844426606981953 -29.443872169218213" fill="red" stroke="none" /><path d="M 106.57524785965236 119.94407469862006 l 8.688795805857799 26.354898901445598 a48.750240875734946,48.750240875734946 0 0,0 -0.7992222550090802,0.2558857274469465 l -8.233852205757778 -26.500557475552252" fill="red" stroke="none" /><line stroke="#e1ed5e" stroke-width="0.3" x1="102.19456741930631" x2="102.32365962044197" y1="184.97166512339345" y2="189.96999836594603" /><path d="M 102.22038585953345 185.97133177190398 a86.0,86.0 0 0,1 -42.740103519485714,-10.115201625700543" fill="none" id="id7" stroke="none" /><text fill="#e1ed5e" style="font-size:6.75px; font-family:Arial;" text-anchor="middle"><textPath startOffset="22.20632615414155" xlink:href="#id7">July</textPath></text><line stroke="#e1ed5e" stroke-width="0.3" x1="58.666819895761336" x2="56.23545636021788" y1="174.27360380694188" y2="178.64263932499728" /><path d="M 58.180547188652646 175.14741091055294 a86.0,86.0 0 0,1 -31.652253787137756,-30.449443065178592" fill="none" id="id8" stroke="none" /><text fill="#e1ed5e" style="font-size:6.75px; font-family:Arial;" text-anchor="middle"><textPath startOffset="22.20632615414155" xlink:href="#id8">August</textPath></text><line stroke="#e1ed5e" stroke-width="0.3" x1="26.63291911575756" x2="22.317208475507996" y1="142.92168965132927" y2="145.44649492493687" /><path d="M 25.769776987707644 143.4266507060508 a86.0,86.0 0 0,1 -11.730757126820373,-40.83630448921669" fill="none" id="id9" stroke="none" /><text fill="#e1ed5e" style="font-size:6.75px; font-family:Arial;" text-anchor="middle"><textPath startOffset="21.46611528233685" xlink:href="#id9">September</textPath></text><path d="M 79.23777060512086 103.15116336523772 l -35.77054433794398 5.429033016085548 a57.180191289192535,57.180191289192535 0 0,0 -0.13931803573161594,-0.9743900174221145 l 35.8586964246922 -4.812497526683033" fill="red" stroke="none" /><path d="M 79.1416061653843 102.43462659150553 l -27.65898346647281 3.2284027799749926 a48.84675835547769,48.84675835547769 0 0,0 -0.0902913684997099,-0.8359859341411398 l 27.710457136473572 -2.7518205239490707" fill="red" stroke="none" /><line stroke="#e1ed5e" stroke-width="0.3" x1="15.007084014347285" x2="10.007500721073583" y1="101.09737516637583" y2="101.16192664675087" /><path d="M 14.007167355692545 101.11028546245083 a86.0,86.0 0 0,1 10.666146001902534,-42.60595125391555" fill="none" id="id10" stroke="none" /><text fill="#e1ed5e" style="font-size:6.75px; font-family:Arial;" text-anchor="middle"><textPath startOffset="22.20632615414155" xlink:href="#id10">October</textPath></text><line stroke="#e1ed5e" stroke-width="0.3" x1="26.266209847984243" x2="21.928928074336255" y1="57.711370442889674" y2="55.22380399835377" /><path d="M 25.398753493254645 57.213857153982495 a86.0,86.0 0 0,1 29.58750427330803,-30.492523968695096" fill="none" id="id11" stroke="none" /><text fill="#e1ed5e" style="font-size:6.75px; font-family:Arial;" text-anchor="middle"><textPath startOffset="21.46611528233685" xlink:href="#id11">November</textPath></text><path d="M 81.78341655067845 89.55222093294921 l -31.66880595497785 -18.163048458311962 a57.507664947419315,57.507664947419315 0 0,0 0.499879422854924,-0.8544559719547272 l 31.3514668576526 18.705483842620584" fill="red" stroke="none" /><path d="M 82.95767976084542 87.72973835380427 l -28.575898980289516 -20.574296946834284 a56.21198229847655,56.21198229847655 0 0,0 0.5721239162812506,-0.7803763788418435 l 28.21751245149463 21.063135769347628" fill="red" stroke="none" /><line stroke="#e1ed5e" stroke-width="0.3" x1="56.762969772571076" x2="54.21961505331055" y1="26.818313649435495" y2="22.513508569990535" /><path d="M 56.25429882871897 25.957352633546506 a86.0,86.0 0 0,1 42.265352541879196,-11.944610805530505" fill="none" id="id12" stroke="none" /><text fill="#e1ed5e" style="font-size:6.75px; font-family:Arial;" text-anchor="middle"><textPath startOffset="22.20632615414155" xlink:href="#id12">December</textPath></text></svg>