<?xml version="1.0" encoding="utf-8" ?>
<svg baseProfile="full" height="200mm" version="1.1" viewBox="0,0,200,200" width="200mm" xmlns="http://www.w3.org/2000/svg" xmlns:ev="http://www.w3.org/2001/xml-events" xmlns:xlink="http://www.w3.org/1999/xlink"><defs /><rect fill="#1a1a1a" height="200" width="200" x="0" y="0" /><rect fill="#1a1a1a" height="200" width="180" x="10" y="0" /><text alignment-baseline="middle" fill="#e1ed5e" style="dominant-baseline: central; font-size:9.0px; font-family:Arial;" text-anchor="middle" x="100.0" y="100.0">2026</text><line stroke="#e1ed5e" stroke-width="0.3" x1="100.0" x2="100.0" y1="15.0" y2="10.0" /><path d="M 100.0 14.0 a86.0,86.0 0 0,1 42.46469731375804,11.215312516191453" fill="none" id="id85" stroke="none" /><text fill="#e1ed5e" style="font-size:6.75px; font-family:Arial;" text-anchor="middle"><textPath startOffset="22.20632615414155" xlink:href="#id85">January</textPath></text><path d="M 100.0 79.0 l 0.0 -1.2992189540841892 a22.29921895408419,22.29921895408419 0 0,0 0.38384439785359054,0.0033038699163271484 l -0.022363918581062178 1.2990264607764208" fill="#ff0200" stroke="none" /><path d="M 100.36148047927253 79.00311137660856 l 0.13121330354982577 -7.621631812836658 a28.62276120716583,28.62276120716583 0 0,0 0.49254778702130114,0.012721056181242082 l -0.2623877257659947 7.618243964513057" fill="#ff5c08" stroke="none" /><path d="M 101.80526077348638 79.07773832637324 l 0.6151515829072245 -7.129364674376109 a28.155854395541823,28.155854395541823 0 0,0 0.4825040248695811,0.045819571079884186 l -0.7377807348670498 7.117719558781047" fill="#ff5607" stroke="none" /><path d="M 102.16513564639614 79.11191278185805 l 0.5410392055691697 -5.219661009772767 a26.24762655673067,26.24762655673067 0 0,0 0.44900101966762085,0.050450496172484295 l -0.6308069287465158 5.209574560129681" fill="#ff3b05" stroke="none" /><path d="M 102.52436894288641 79.15227682838746 l 0.612504986906675 -5.058426362060156 a26.09537433554893,26.09537433554893 0 0,0 0.44546701682707823,0.05783440377314282 l -0.6994867322415993 5.047133635122876" fill="#ff3905" stroke="none" /><path d="M 102.88285421437855 79.19881850522331 l 1.7835518272295763 -12.869185364456738 a33.99218954084189,33.99218954084189 0 0,0 0.578888638235889,0.08531313734515181 l -2.004809445894121 12.836577742950617" fill="#ffa40f" stroke="none" /><path d="M 103.2404852339499 79.25152402106235 l 0.5951778042498174 -3.8108590174384656 a24.857056269937438,24.857056269937438 0 0,0 0.42218028537377317,0.06966336446694534 l -0.6606872957624657 3.8000493900318957" fill="#ff2703" stroke="none" /><path d="M 103.95276090670814 79.375362276772 l 0.9781908363729916 -5.103984809740497 a26.196875816336757,26.196875816336757 0 0,0 0.44214536934895565,0.08869020160372366 l -1.0659026151890727 5.086390652059565" fill="#ff3a05" stroke="none" /><path d="M 104.66035177308747 79.52364482259891 l 1.3920673832553478 -6.116376522265758 a27.272791512687725,27.272791512687725 0 0,0 0.4568534306939557,0.10812244670290837 l -1.497144500911827 6.091508163421981" fill="#ff4906" stroke="none" /><path d="M 105.36241919743992 79.69619591428918 l 3.9914855870649824 -15.113018655720968 a36.6312280413254,36.6312280413254 0 0,0 0.6082565018256075,0.16625947897140936 l -4.251039978114301 15.042072635923263" fill="#ffc612" stroke="none" /><path d="M 107.08798089147638 80.2323363322302 l 1.1305494455839207 -3.15298835341972 a24.3495488659983,24.3495488659983 0 0,0 0.39332368261004486,0.14486443170038285 l -1.184655453966542 3.133060653913012" fill="#ff2003" stroke="none" /><path d="M 107.4271985657038 80.35727306442388 l 1.974425756610903 -5.221767756521686 a26.5825814433305,26.5825814433305 0 0,0 0.4266084506747537,0.16551745110186772 l -2.0640173722853237 5.187007601529271" fill="#ff4006" stroke="none" /><path d="M 108.09893153111575 80.62456947434976 l 2.607084094172274 -6.23704207735211 a27.759998620469297,27.759998620469297 0 0,0 0.43929040120478047,0.18808122416536413 l -2.7140582531673694 6.191241325223956" fill="#ff5007" stroke="none" /><path d="M 109.08828744355905 81.06846463323043 l 6.870239650257992 -14.311187418397434 a36.874831595216186,36.874831595216186 0 0,0 0.5698543988952003,0.2796250786873924 l -7.115565316163623 14.190807179575211" fill="#ffca12" stroke="none" /><path d="M 109.41281617654863 81.2277094730956 l 2.8525955583341385 -5.689025640405152 a27.36414284539677,27.36414284539677 0 0,0 0.419244094125219,0.2147531085398975 l -2.950100140048113 5.639080006552754" fill="#ff4b06" stroke="none" /><path d="M 110.36928655335952 81.73862282372117 l 5.02503600332581 -8.84960380918231 a31.176761489502184,31.176761489502184 0 0,0 0.46439013643168575,0.2690047413304668 l -5.176622872222824 8.761794910461795" fill="#ff7f0b" stroke="none" /><line stroke="#e1ed5e" stroke-width="0.3" x1="143.23703022742887" x2="145.7803849466894" y1="26.81831364943548" y2="22.513508569990506" /><path d="M 143.74570117128098 25.957352633546492 a86.0,86.0 0 0,1 28.547481713284135,27.462654790039103" fill="none" id="id86" stroke="none" /><text fill="#e1ed5e" style="font-size:6.75px; font-family:Arial;" text-anchor="middle"><textPath startOffset="19.985693538727396" xlink:href="#id86">February</textPath></text><path d="M 110.68208982089419 81.91981866633111 l 4.273108893304329 -7.232534545659544 a29.40053662382322,29.40053662382322 0 0,0 0.4335010196330142,0.26117951385287613 l -4.396971979154981 7.1579084223480525" fill="#ff6709" stroke="none" /><path d="M 111.2981086023043 82.29822771554956 l 3.28499078230801 -5.146893239552959 a27.105872129287064,27.105872129287064 0 0,0 0.39114157381184983,0.2544093599179403 l -3.3730993819041397 5.089584955475491" fill="#ff4706" stroke="none" /><path d="M 115.4437574822437 85.77008943001954 l 2.717432298932968 -2.5038478257801993 a24.695090287658523,24.695090287658523 0 0,0 0.2853533668505483,0.31509431479547295 l -2.760129306399552 2.4567007237151772" fill="#ff2503" stroke="none" /><path d="M 116.82858285166822 87.43820079747576 l 4.460397046711045 -3.3294908167957837 a26.56602649234048,26.56602649234048 0 0,0 0.270388242779364,0.36880925928263353 l -4.517047902004036 3.2522191138416567" fill="#ff3f05" stroke="none" /><path d="M 117.2510076193507 88.02491185347247 l 3.8193956615805518 -2.6513001862330308 a25.64942748058507,25.64942748058507 0 0,0 0.24864742403100856,0.36485941328489196 l -3.8644675512802937 2.5851627496777327" fill="#ff3204" stroke="none" /><path d="M 117.45458315368197 88.32363383020206 l 0.96176156274362 -0.6433771620757788 a22.15711688098123,22.15711688098123 0 0,0 0.20933554952163794,0.3188324036079938 l -0.9726937476231828 0.626726694490111" fill="#ff0000" stroke="none" /><line stroke="#e1ed5e" stroke-width="0.3" x1="172.23445277983987" x2="176.4835382374775" y1="55.19839476539836" y2="52.563006222186495" /><path d="M 173.08426987136738 54.67131705675599 a86.0,86.0 0 0,1 12.851231095245387,41.99856678651699" fill="none" id="id87" stroke="none" /><text fill="#e1ed5e" style="font-size:6.75px; font-family:Arial;" text-anchor="middle"><textPath startOffset="22.20632615414155" xlink:href="#id87">March</textPath></text><path d="M 118.3937258080291 89.86733742301442 l 5.021386343927148 -2.7661613542965453 a26.732884915379145,26.732884915379145 0 0,0 0.21856284878549878,0.40496376485556956 l -5.068257291931111 2.679316606108517" fill="#ff4206" stroke="none" /><path d="M 118.73160827565052 90.50648371742162 l 10.35662142369525 -5.248922178570197 a32.61080493981488,32.61080493981488 0 0,0 0.24945710871956173,0.5028903090995299 l -10.445438545368221 5.069872280971718" fill="#ff920d" stroke="none" /><path d="M 119.04729006885535 91.15688171328212 l 9.95753271871007 -4.6230009285887 a31.97836943402405,31.97836943402405 0 0,0 0.22749972860634848,0.5012654957523056 l -10.035634764279765 4.450913423994332" fill="#ff8a0c" stroke="none" /><path d="M 119.34039704204932 91.81776055985345 l 7.307121793056841 -3.091385352591954 a28.93414723185714,28.93414723185714 0 0,0 0.1901088012589547,0.4603635415434113 l -7.359252281201994 2.9651472405952397" fill="#ff6008" stroke="none" /><path d="M 119.7369772167798 92.82701384747503 l 6.6867037209291365 -2.4301407793836125 a28.114604054978095,28.114604054978095 0 0,0 0.16138709062284023,0.45626303781011723 l -6.727543892361786 2.3146801151468805" fill="#ff5507" stroke="none" /><path d="M 119.97218684219823 93.5106431181261 l 14.493716022456296 -4.709293807302507 a36.23959488644971,36.23959488644971 0 0,0 0.18765986735062679,0.5949330621846443 l -14.57263137357513 4.459110578691444" fill="#ffc112" stroke="none" /><path d="M 120.18372546131832 94.20196356495316 l 7.908219176789158 -2.271738337465716 a29.228045066845908,29.228045066845908 0 0,0 0.13474578252158248,0.48475227237828067 l -7.946151729877104 2.1352747616684833" fill="#ff6409" stroke="none" /><path d="M 120.37134235888165 94.90015583598534 l 4.253598339556687 -1.0648629965512717 a25.38486397003414,25.38486397003414 0 0,0 0.10246684926189581,0.42479124244700167 l -4.271297989079402 0.9914865224448639" fill="#ff2f04" stroke="none" /><path d="M 120.6074358757038 95.95851677861258 l 21.141440267260872 -4.146210942082153 a42.54417698011231,42.54417698011231 0 0,0 0.13475214922299997,0.7198513693974518 l -21.20967814039373 3.7816814952221383" fill="#eeff19" stroke="none" /><path d="M 120.78858239683441 97.02765380044208 l 5.065599284241253 -0.7242780913859012 a26.11711587343565,26.11711587343565 0 0,0 0.05980073448880387,0.44558493217256173 l -5.0773160177878935 0.6369748171486751" fill="#ff3905" stroke="none" /><path d="M 120.87857604477298 97.74499172005257 l 6.59830045247174 -0.7126550259939638 a27.636674321312086,27.636674321312086 0 0,0 0.04701244968292428,0.4734089525394457 l -6.609590027836893 0.5989705427500831" fill="#ff4e07" stroke="none" /><path d="M 120.94382443527127 98.46500227214037 l 21.529841307387514 -1.5779475993105683 a42.587588687657075,42.587588687657075 0 0,0 0.047291304702057266,0.7315755521139173 l -21.553813203093988 1.2071129829436156" fill="#eeff19" stroke="none" /><line stroke="#e1ed5e" stroke-width="0.3" x1="184.98032266829074" x2="189.97916517819016" y1="98.17113171792111" y2="98.06355123074" /><path d="M 185.9800911702706 98.14961562048488 a86.0,86.0 0 0,1 -9.607161424134198,41.387399972396054" fill="none" id="id88" stroke="none" /><text fill="#e1ed5e" style="font-size:6.75px; font-family:Arial;" text-anchor="middle"><textPath startOffset="21.466115282336823" xlink:href="#id88">April</textPath></text><path d="M 120.99513854157772 99.54816195383933 l 5.084361609347221 -0.1094209505211067 a26.085538901534115,26.085538901534115 0 0,0 0.00579719163733399,0.4489988810408518 l -5.085491808102271 0.021885811419792175" fill="#ff3905" stroke="none" /><path d="M 120.99980553446 99.90962569577887 l 6.160291343889304 -0.026511295216037456 a27.16034839034056,27.16034839034056 0 0,0 -0.0020120679813759655,0.4675337386568534 l -6.1598349786184246 -0.07953192164450062" fill="#ff4806" stroke="none" /><path d="M 120.9904718944345 100.63252640178507 l 12.25503492355218 0.3692929431472255 a33.26059779355566,33.26059779355566 0 0,0 -0.02217035377160744,0.5721183190927642 l -12.24686243692937 -0.5801885092539959" fill="#ff9b0e" stroke="none" /><path d="M 120.9764740272857 100.99374915477107 l 7.255298691185005 0.3437158662889758 a28.263435805116586,28.263435805116586 0 0,0 -0.027205103527498452,0.4857653988383177 l -7.2483072367699775 -0.46855298146271684" fill="#ff5708" stroke="none" /><path d="M 120.92983693683757 101.71520430193887 l 5.116498473610365 0.41929806807783776 a26.133650504305002,26.133650504305002 0 0,0 -0.04060099516460783,0.4480285984150874 l -5.108522882168683 -0.5073080550414958" fill="#ff3905" stroke="none" /><path d="M 120.89721153311464 102.0752229133903 l 6.643258646230617 0.6597168498002574 a27.67593527250139,27.67593527250139 0 0,0 -0.05115791005163631,0.473658711057878 l -6.630918434677929 -0.7739718827429267" fill="#ff4f07" stroke="none" /><path d="M 120.8583938346157 102.4346265915055 l 6.062612577634072 0.7076382732311954 a27.103771227055326,27.103771227055326 0 0,0 -0.058077561854104426,0.4629353110000426 l -6.04953350653312 -0.8118913385186329" fill="#ff4706" stroke="none" /><path d="M 120.76222939487914 103.15116336523771 l 7.446858917454399 1.1302384036159332 a28.532140903188044,28.532140903188044 0 0,0 -0.07787677432796486,0.48493874807942344 l -7.426300388765146 -1.2582563813885617" fill="#ff5b08" stroke="none" /><path d="M 120.70491114924044 103.5080841355445 l 16.531101272324573 2.800905239269708 a37.76670448941054,37.76670448941054 0 0,0 -0.11411579814179203,0.6400219987800378 l -16.480439031843595 -3.085045988782964" fill="#ffd513" stroke="none" /><path d="M 120.49622156327973 104.57218783832717 l 13.847447971823934 3.089014871017546 a35.187805616293815,35.187805616293815 0 0,0 -0.13696339605817007,0.590034725553488 l -13.792224009835211 -3.3269182539195987" fill="#ffb410" stroke="none" /><path d="M 120.23288151984713 105.62410040840565 l 4.291910904493302 1.1930153323501427 a25.454636325821788,25.454636325821788 0 0,0 -0.12097905384302761,0.42114395738839494 l -4.270739213764175 -1.2667167652431197" fill="#ff3004" stroke="none" /><path d="M 120.13307415673323 105.97154293290107 l 60.399222470199675 17.914628798703227 a84.0,84.0 0 0,0 -0.4230929099754692,1.3826921097917715 l -60.08190278771807 -18.951647881047055" fill="#4dd2ff" stroke="none" /><line stroke="#e1ed5e" stroke-width="0.3" x1="174.80103733775053" x2="179.2010983576182" y1="140.37084112569926" y2="142.7455964860345" /><path d="M 175.68104954172406 140.8457921977663 a86.0,86.0 0 0,1 -30.038265399797805,32.042727171017184" fill="none" id="id89" stroke="none" /><text fill="#e1ed5e" style="font-size:6.75px; font-family:Arial;" text-anchor="middle"><textPath startOffset="22.206326154141568" xlink:href="#id89">May</textPath></text><line stroke="#e1ed5e" stroke-width="0.3" x1="143.8653032363475" x2="146.44561519142675" y1="172.8068346515853" y2="177.08958963109032" /><path d="M 144.38136562736335 173.6633856474863 a86.0,86.0 0 0,1 -40.68145358897372,12.25698825130547" fill="none" id="id90" stroke="none" /><text fill="#e1ed5e" style="font-size:6.75px; font-family:Arial;" text-anchor="middle"><textPath startOffset="21.466115282336833" xlink:href="#id90">June</textPath></text><line stroke="#e1ed5e" stroke-width="0.3" x1="102.19456741930631" x2="102.32365962044197" y1="184.97166512339345" y2="189.96999836594603" /><path d="M 102.22038585953345 185.97133177190398 a86.0,86.0 0 0,1 -42.740103519485714,-10.115201625700543" fill="none" id="id91" stroke="none" /><text fill="#e1ed5e" style="font-size:6.75px; font-family:Arial;" text-anchor="middle"><textPath startOffset="22.20632615414155" xlink:href="#id91">July</textPath></text><line stroke="#e1ed5e" stroke-width="0.3" x1="58.666819895761336" x2="56.23545636021788" y1="174.27360380694188" y2="178.64263932499728" /><path d="M 58.180547188652646 175.14741091055294 a86.0,86.0 0 0,1 -31.652253787137756,-30.449443065178592" fill="none" id="id92" stroke="none" /><text fill="#e1ed5e" style="font-size:6.75px; font-family:Arial;" text-anchor="middle"><textPath startOffset="22.20632615414155" xlink:href="#id92">August</textPath></text><line stroke="#e1ed5e" stroke-width="0.3" x1="26.63291911575756" x2="22.317208475507996" y1="142.92168965132927" y2="145.44649492493687" /><path d="M 25.769776987707644 143.4266507060508 a86.0,86.0 0 0,1 -11.730757126820373,-40.83630448921669" fill="none" id="id93" stroke="none" /><text fill="#e1ed5e" style="font-size:6.75px; font-family:Arial;" text-anchor="middle"><textPath startOffset="21.46611528233685" xlink:href="#id93">September</textPath></text><line stroke="#e1ed5e" stroke-width="0.3" x1="15.007084014347285" x2="10.007500721073583" y1="101.09737516637583" y2="101.16192664675087" /><path d="M 14.007167355692545 101.11028546245083 a86.0,86.0 0 0,1 10.666146001902534,-42.60595125391555" fill="none" id="id94" stroke="none" /><text fill="#e1ed5e" style="font-size:6.75px; font-family:Arial;" text-anchor="middle"><textPath startOffset="22.20632615414155" xlink:href="#id94">October</textPath></text><line stroke="#e1ed5e" stroke-width="0.3" x1="26.266209847984243" x2="21.928928074336255" y1="57.711370442889674" y2="55.22380399835377" /><path d="M 25.398753493254645 57.213857153982495 a86.0,86.0 0 0,1 29.58750427330803,-30.492523968695096" fill="none" id="id95" stroke="none" /><text fill="#e1ed5e" style="font-size:6.75px; font-family:Arial;" text-anchor="middle"><textPath startOffset="21.46611528233685" xlink:href="#id95">November</textPath></text><line stroke="#e1ed5e" stroke-width="0.3" x1="56.762969772571076" x2="54.21961505331055" y1="26.818313649435495" y2="22.513508569990535" /><path d="M 56.25429882871897 25.957352633546506 a86.0,86.0 0 0,1 42.265352541879196,-11.944610805530505" fill="none" id="id96" stroke="none" /><text fill="#e1ed5e" style="font-size:6.75px; font-family:Arial;" text-anchor="middle"><textPath startOffset="22.20632615414155" xlink:href="#id96">December</textPath></text></svg>