<?xml version="1.0" encoding="utf-8" ?>
<svg baseProfile="full" height="200mm" version="1.1" viewBox="0,0,200,200" width="200mm" xmlns="http://www.w3.org/2000/svg" xmlns:ev="http://www.w3.org/2001/xml-events" xmlns:xlink="http://www.w3.org/1999/xlink"><defs /><rect fill="#1a1a1a" height="200" width="200" x="0" y="0" /><text alignment-baseline="middle" fill="#e1ed5e" style="dominant-baseline: central; font-size:9.0px; font-family:Arial;" text-anchor="middle" x="100.0" y="100.0">2019</text><line stroke="#e1ed5e" stroke-width="0.3" x1="100.0" x2="100.0" y1="15.0" y2="10.0" /><path d="M 100.0 14.0 a86.0,86.0 0 0,1 42.46469731375804,11.215312516191453" fill="none" id="id1" stroke="none" /><text fill="#e1ed5e" style="font-size:6.75px; font-family:Arial;" text-anchor="middle"><textPath startOffset="22.20632615414155" xlink:href="#id1">January</textPath></text><line stroke="#e1ed5e" stroke-width="0.3" x1="143.23703022742887" x2="145.7803849466894" y1="26.81831364943548" y2="22.513508569990506" /><path d="M 143.74570117128098 25.957352633546492 a86.0,86.0 0 0,1 28.547481713284135,27.462654790039103" fill="none" id="id2" stroke="none" /><text fill="#e1ed5e" style="font-size:6.75px; font-family:Arial;" text-anchor="middle"><textPath startOffset="19.985693538727396" xlink:href="#id2">February</textPath></text><line stroke="#e1ed5e" stroke-width="0.3" x1="172.23445277983987" x2="176.4835382374775" y1="55.19839476539836" y2="52.563006222186495" /><path d="M 173.08426987136738 54.67131705675599 a86.0,86.0 0 0,1 12.851231095245387,41.99856678651699" fill="none" id="id3" stroke="none" /><text fill="#e1ed5e" style="font-size:6.75px; font-family:Arial;" text-anchor="middle"><textPath startOffset="22.20632615414155" xlink:href="#id3">March</textPath></text><line stroke="#e1ed5e" stroke-width="0.3" x1="184.98032266829074" x2="189.97916517819016" y1="98.17113171792111" y2="98.06355123074" /><path d="M 185.9800911702706 98.14961562048488 a86.0,86.0 0 0,1 -9.607161424134198,41.387399972396054" fill="none" id="id4" stroke="none" /><text fill="#e1ed5e" style="font-size:6.75px; font-family:Arial;" text-anchor="middle"><textPath startOffset="21.466115282336823" xlink:href="#id4">April</textPath></text><line stroke="#e1ed5e" stroke-width="0.3" x1="174.80103733775053" x2="179.2010983576182" y1="140.37084112569926" y2="142.7455964860345" /><path d="M 175.68104954172406 140.8457921977663 a86.0,86.0 0 0,1 -30.038265399797805,32.042727171017184" fill="none" id="id5" stroke="none" /><text fill="#e1ed5e" style="font-size:6.75px; font-family:Arial;" text-anchor="middle"><textPath startOffset="22.206326154141568" xlink:href="#id5">May</textPath></text><path d="M 114.0293411484842 115.62618273729858 l 32.69289046988706 36.414046482014484 a69.93677419354839,69.93677419354839 0 0,0 -0.9027094027717383,0.7965360917235129 l -32.061238714208734 -36.971405715510286" fill="red" stroke="none" /><path d="M 113.75828350139079 115.86535959552629 l 30.53958523940054 35.216711566696326 a67.6141935483871,67.6141935483871 0 0,0 -0.885857091360132,0.7549466315162744 l -29.928862671463364 -35.73718258843555" fill="red" stroke="none" /><path d="M 113.48314897796784 116.09983520530334 l 16.858285625355915 20.129987501856693 a47.25677419354839,47.25677419354839 0 0,0 -0.6281322526684628,0.5169100809201044 l -16.50928324414276 -20.417192701633976" fill="red" stroke="none" /><path d="M 112.63410532772338 116.77436683061366 l 23.509915812602298 31.214236526275563 a60.07741935483871,60.07741935483871 0 0,0 -0.8314000477610842,0.6150498793656746 l -22.96913079442265 -31.614296354381008" fill="red" stroke="none" /><path d="M 112.34349029814194 116.9893568818739 l 37.03047089442582 50.96807064562168 a84.0,84.0 0 0,0 -1.1770906886044616,0.8398229526231229 l -36.14765287797247 -51.597937860089026" fill="red" stroke="none" /><path d="M 112.04921762599082 117.19931262002967 l 26.77258419607251 38.21576300863367 a67.66064516129032,67.66064516129032 0 0,0 -0.959631302060207,0.6600431599423999 l -26.110796009389418 -38.67094695794117" fill="red" stroke="none" /><path d="M 111.45004920935366 117.60387380957326 l 30.867644181898143 47.45744782765142 a77.61290322580645,77.61290322580645 0 0,0 -1.1261935242320817,0.7187899911673055 l -30.04616885561913 -47.98175224764253" fill="red" stroke="none" /><line stroke="#e1ed5e" stroke-width="0.3" x1="143.8653032363475" x2="146.44561519142675" y1="172.8068346515853" y2="177.08958963109032" /><path d="M 144.38136562736335 173.6633856474863 a86.0,86.0 0 0,1 -40.68145358897372,12.25698825130547" fill="none" id="id6" stroke="none" /><text fill="#e1ed5e" style="font-size:6.75px; font-family:Arial;" text-anchor="middle"><textPath startOffset="21.466115282336833" xlink:href="#id6">June</textPath></text><path d="M 110.5260780823613 118.17145234162733 l 20.250816026839594 34.95952960176302 a61.40129032258064,61.40129032258064 0 0,0 -0.9191224440729843,0.5219017113669315 l -19.64604481584541 -35.302934478924584" fill="red" stroke="none" /><path d="M 108.59647513512805 119.15986991738527 l 14.285202459572231 31.838935908797833 a55.89677419354839,55.89677419354839 0 0,0 -0.8812507756575181,0.38631444247522145 l -13.735031009256959 -32.08011490456751" fill="red" stroke="none" /><path d="M 107.59598834532513 119.57807347666477 l 11.328874046456335 29.199298156625755 a52.32,52.32 0 0,0 -0.8424261928486868,0.3185335025914796 l -10.824577632847374 -29.389979909323863" fill="red" stroke="none" /><path d="M 106.57524785965236 119.94407469862006 l 8.697507583569655 26.38132350917928 a48.778064516129035,48.778064516129035 0 0,0 -0.799678401937154,0.2560317712886705 l -8.24210783654156 -26.527128127127657" fill="red" stroke="none" /><line stroke="#e1ed5e" stroke-width="0.3" x1="102.19456741930631" x2="102.32365962044197" y1="184.97166512339345" y2="189.96999836594603" /><path d="M 102.22038585953345 185.97133177190398 a86.0,86.0 0 0,1 -42.740103519485714,-10.115201625700543" fill="none" id="id7" stroke="none" /><text fill="#e1ed5e" style="font-size:6.75px; font-family:Arial;" text-anchor="middle"><textPath startOffset="22.20632615414155" xlink:href="#id7">July</textPath></text><line stroke="#e1ed5e" stroke-width="0.3" x1="58.666819895761336" x2="56.23545636021788" y1="174.27360380694188" y2="178.64263932499728" /><path d="M 58.180547188652646 175.14741091055294 a86.0,86.0 0 0,1 -31.652253787137756,-30.449443065178592" fill="none" id="id8" stroke="none" /><text fill="#e1ed5e" style="font-size:6.75px; font-family:Arial;" text-anchor="middle"><textPath startOffset="22.20632615414155" xlink:href="#id8">August</textPath></text><line stroke="#e1ed5e" stroke-width="0.3" x1="26.63291911575756" x2="22.317208475507996" y1="142.92168965132927" y2="145.44649492493687" /><path d="M 25.769776987707644 143.4266507060508 a86.0,86.0 0 0,1 -11.730757126820373,-40.83630448921669" fill="none" id="id9" stroke="none" /><text fill="#e1ed5e" style="font-size:6.75px; font-family:Arial;" text-anchor="middle"><textPath startOffset="21.46611528233685" xlink:href="#id9">September</textPath></text><path d="M 79.23777060512086 103.15116336523772 l -35.77609592319452 5.429875601519306 a57.185806451612905,57.185806451612905 0 0,0 -0.13933171692751756,-0.9744857036743857 l 35.86426169113864 -4.81324442586452" fill="red" stroke="none" /><path d="M 79.1416061653843 102.43462659150553 l -27.210111182963185 3.1760096567897973 a48.394838709677416,48.394838709677416 0 0,0 -0.0894560122827372,-0.8282515730500376 l 27.260749496746975 -2.7071617618549775" fill="red" stroke="none" /><line stroke="#e1ed5e" stroke-width="0.3" x1="15.007084014347285" x2="10.007500721073583" y1="101.09737516637583" y2="101.16192664675087" /><path d="M 14.007167355692545 101.11028546245083 a86.0,86.0 0 0,1 10.666146001902534,-42.60595125391555" fill="none" id="id10" stroke="none" /><text fill="#e1ed5e" style="font-size:6.75px; font-family:Arial;" text-anchor="middle"><textPath startOffset="22.20632615414155" xlink:href="#id10">October</textPath></text><line stroke="#e1ed5e" stroke-width="0.3" x1="26.266209847984243" x2="21.928928074336255" y1="57.711370442889674" y2="55.22380399835377" /><path d="M 25.398753493254645 57.213857153982495 a86.0,86.0 0 0,1 29.58750427330803,-30.492523968695096" fill="none" id="id11" stroke="none" /><text fill="#e1ed5e" style="font-size:6.75px; font-family:Arial;" text-anchor="middle"><textPath startOffset="21.46611528233685" xlink:href="#id11">November</textPath></text><path d="M 81.78341655067845 89.55222093294921 l -31.953734212671662 -18.326463705447978 a57.836129032258064,57.836129032258064 0 0,0 0.502734562901175,-0.8593363318010142 l 31.633539975300163 18.873779449602882" fill="red" stroke="none" /><path d="M 82.95767976084542 87.72973835380427 l -28.72534124734185 -20.681893547062455 a56.39612903225807,56.39612903225807 0 0,0 0.573998156366613,-0.7829328402119644 l 28.3650804784616 21.173288830945918" fill="red" stroke="none" /><line stroke="#e1ed5e" stroke-width="0.3" x1="56.762969772571076" x2="54.21961505331055" y1="26.818313649435495" y2="22.513508569990535" /><path d="M 56.25429882871897 25.957352633546506 a86.0,86.0 0 0,1 42.265352541879196,-11.944610805530505" fill="none" id="id12" stroke="none" /><text fill="#e1ed5e" style="font-size:6.75px; font-family:Arial;" text-anchor="middle"><textPath startOffset="22.20632615414155" xlink:href="#id12">December</textPath></text></svg>