<?xml version="1.0" encoding="utf-8" ?>
<svg baseProfile="full" height="200mm" version="1.1" viewBox="0,0,200,200" width="200mm" xmlns="http://www.w3.org/2000/svg" xmlns:ev="http://www.w3.org/2001/xml-events" xmlns:xlink="http://www.w3.org/1999/xlink"><defs /><rect fill="#1a1a1a" height="200" width="200" x="0" y="0" /><rect fill="#1a1a1a" height="200" width="180" x="10" y="0" /><text alignment-baseline="middle" fill="#e1ed5e" style="dominant-baseline: central; font-size:9.0px; font-family:Arial;" text-anchor="middle" x="100.0" y="100.0">2024</text><line stroke="#e1ed5e" stroke-width="0.3" x1="100.0" x2="100.0" y1="15.0" y2="10.0" /><path d="M 100.0 14.0 a86.0,86.0 0 0,1 42.35913384403234,11.155469271406648" fill="none" id="id61" stroke="none" /><text fill="#e1ed5e" style="font-size:6.75px; font-family:Arial;" text-anchor="middle"><textPath startOffset="22.145653131862478" xlink:href="#id61">January</textPath></text><line stroke="#e1ed5e" stroke-width="0.3" x1="143.13028292997686" x2="145.6673583964461" y1="26.7553504044142" y2="22.446841604673864" /><path d="M 143.63769802327073 25.89364864446614 a86.0,86.0 0 0,1 29.32050498858742,28.57503671076993" fill="none" id="id62" stroke="none" /><text fill="#e1ed5e" style="font-size:6.75px; font-family:Arial;" text-anchor="middle"><textPath startOffset="20.669276256404974" xlink:href="#id62">February</textPath></text><line stroke="#e1ed5e" stroke-width="0.3" x1="172.87174338648825" x2="177.1583165268699" y1="56.24261187166439" y2="53.66864786411523" /><path d="M 173.72905801456457 55.72781907015455 a86.0,86.0 0 0,1 12.242430191666344,42.057860355516425" fill="none" id="id63" stroke="none" /><text fill="#e1ed5e" style="font-size:6.75px; font-family:Arial;" text-anchor="middle"><textPath startOffset="22.145653131862474" xlink:href="#id63">March</textPath></text><line stroke="#e1ed5e" stroke-width="0.3" x1="184.99686870605535" x2="189.99668451229388" y1="99.2704041080226" y2="99.22748670261217" /><path d="M 185.99683186730306 99.26182062694052 a86.0,86.0 0 0,1 -10.086455211305974,41.156179273409016" fill="none" id="id64" stroke="none" /><text fill="#e1ed5e" style="font-size:6.75px; font-family:Arial;" text-anchor="middle"><textPath startOffset="21.40746469413373" xlink:href="#id64">April</textPath></text><path d="M 119.71291397450082 107.23885506374661 l 12.054255196387414 4.426489476945656 a33.84129578466066,33.84129578466066 0 0,0 -0.20493211636993092,0.543606786071321 l -11.976492396203042 -4.632764543211136" fill="red" stroke="none" /><line stroke="#e1ed5e" stroke-width="0.3" x1="174.33088141563837" x2="178.70328620479359" y1="141.23008692659167" y2="143.65538615756765" /><path d="M 175.20536237346943 141.71514677278685 a86.0,86.0 0 0,1 -30.301960400862466,31.631185727798858" fill="none" id="id65" stroke="none" /><text fill="#e1ed5e" style="font-size:6.75px; font-family:Arial;" text-anchor="middle"><textPath startOffset="22.145653131862474" xlink:href="#id65">May</textPath></text><path d="M 117.01052211995028 112.31430620078461 l 17.584404545678165 12.729752820460904 a42.70847507532713,42.70847507532713 0 0,0 -0.43501221739366136,0.5901776194098735 l -17.363290308700677 -13.029736749139655" fill="red" stroke="none" /><path d="M 116.79662413953412 112.60449989151573 l 10.29761189378629 7.727519942093588 a33.87460194221565,33.87460194221565 0 0,0 -0.35301855490304446,0.46211262041594015 l -10.16344136152894 -7.903153475750405" fill="red" stroke="none" /><path d="M 114.91283532996324 114.78537596483092 l 12.17648150486989 12.072409638734689 a38.14671328050518,38.14671328050518 0 0,0 -0.4650412771569001,0.4610665892699047 l -11.967448307583027 -12.279656238233256" fill="red" stroke="none" /><path d="M 114.39649973595853 115.28858382429668 l 6.979618186700084 7.412112643076787 a31.181084611463227,31.181084611463227 0 0,0 -0.3928374612539696,0.36360448941390905 l -6.851350954132147 -7.530834878623076" fill="red" stroke="none" /><line stroke="#e1ed5e" stroke-width="0.3" x1="143.1302829299769" x2="145.66735839644613" y1="173.24464959558577" y2="177.55315839532614" /><path d="M 143.63769802327073 174.10635135553383 a86.0,86.0 0 0,1 -40.68552437913181,11.842963189579606" fill="none" id="id66" stroke="none" /><text fill="#e1ed5e" style="font-size:6.75px; font-family:Arial;" text-anchor="middle"><textPath startOffset="21.407464694133747" xlink:href="#id66">June</textPath></text><path d="M 108.73861861582097 119.09545874513695 l 3.563536454363703 7.786970268721454 a29.563626453058944,29.563626453058944 0 0,0 -0.4632853918421209,0.20722166301869543 l -3.4293376596659555 -7.84699568265" fill="red" stroke="none" /><path d="M 103.94208987418118 120.62667999033965 l 1.9800674516561094 10.36054960392839 a31.548064050268593,31.548064050268593 0 0,0 -0.5328096448731822,0.0970956661190076 l -1.80192307323187 -10.393013443978763" fill="red" stroke="none" /><path d="M 103.58742460773223 120.69131181640829 l 6.0408656635151 34.842107849574816 a56.36190799951324,56.36190799951324 0 0,0 -0.9547237450609463,0.1570994289347799 l -5.441864415401081 -34.94067327700527" fill="red" stroke="none" /><line stroke="#e1ed5e" stroke-width="0.3" x1="101.45913802915013" x2="101.54496967792366" y1="184.9874750549273" y2="189.98673829345242" /><path d="M 101.47630435890484 185.9873277026323 a86.0,86.0 0 0,1 -42.54439059252881,-10.42667462771756" fill="none" id="id67" stroke="none" /><text fill="#e1ed5e" style="font-size:6.75px; font-family:Arial;" text-anchor="middle"><textPath startOffset="22.145653131862474" xlink:href="#id67">July</textPath></text><path d="M 99.63950707515114 120.99690560180557 l -0.15576762743448014 9.072683383260122 a30.074020460999684,30.074020460999684 0 0,0 -0.5161084079289674,-0.013293121825688375 l 0.3114893494341914 -9.068672544084388" fill="red" stroke="none" /><path d="M 97.12497278360702 120.80226474461374 l -2.7043547398036982 19.567363724412836 a40.753360668052565,40.753360668052565 0 0,0 -0.6921762196385512,-0.1017260678896598 l 3.039856065049934 -19.518056583224293" fill="red" stroke="none" /><path d="M 96.41257539226777 120.69131181640829 l -2.2499677127564564 12.977215861526961 a34.17081949709711,34.17081949709711 0 0,0 -0.5771048953198419,-0.10516773630281284 l 2.4724073416273553 -12.936679951292783" fill="red" stroke="none" /><path d="M 95.35216902796893 120.47920084513623 l -3.832465973514302 16.886552216732635 a38.31598802282396,38.31598802282396 0 0,0 -0.6401832473760235,-0.15108150325213254 l 4.121781374630213 -16.818274569834276" fill="red" stroke="none" /><path d="M 95.00130118170881 120.39639698878247 l -4.172536956307919 17.02537466346403 a38.529216955787795,38.529216955787795 0 0,0 -0.6410430695487259,-0.16295064149986413 l 4.464185319082024 -16.951238790128905" fill="red" stroke="none" /><path d="M 94.6519064749342 120.30758222061772 l -5.568209987611438 21.143400281821485 a42.8643165441654,42.8643165441654 0 0,0 -0.7099526919182562,-0.19350076320170745 l 5.93034408046439 -21.044699024475634" fill="red" stroke="none" /><path d="M 93.95794788825049 120.11202640906438 l -3.707228000636492 12.340156303556755 a33.88499115424278,33.88499115424278 0 0,0 -0.5556482909059685,-0.17214126087981593 l 3.918516924414094 -12.27469845487029" fill="red" stroke="none" /><path d="M 92.59220618246901 119.65005319985036 l -8.19700647245649 21.743533531144205 a44.23730116707803,44.23730116707803 0 0,0 -0.7082765564190023,-0.2739765875362551 l 8.56905529136902 -21.59961705546991" fill="red" stroke="none" /><path d="M 91.92203290615298 119.3841803445677 l -10.068434117739976 24.16057659783358 a47.174545404324675,47.174545404324675 0 0,0 -0.7448297428978092,-0.3179235269288289 l 10.481698935808215 -23.984178421245346" fill="red" stroke="none" /><path d="M 91.26138138417905 119.09545874513695 l -17.90644565471239 39.128815354470575 a64.03144184232525,64.03144184232525 0 0,0 -0.9955708775524055,-0.4659774400150862 l 18.575505246136284 -38.815661682884965" fill="red" stroke="none" /><path d="M 90.6110303473126 118.78422872680471 l -6.49584543227167 12.996042258889945 a35.52904409363596,35.52904409363596 0 0,0 -0.543209947476397,-0.27736686970556185 l 6.717982601461649 -12.882617437511547" fill="red" stroke="none" /><path d="M 90.28995756902619 118.62028667847754 l -10.17505352902679 19.512006773005666 a43.00568387095433,43.00568387095433 0 0,0 -0.6516614091659587,-0.346972995406032 l 10.50850375397931 -19.33446330987706" fill="red" stroke="none" /><path d="M 89.97174638481275 118.45085714620012 l -10.44228764164789 19.212633121263412 a42.86702180552213,42.86702180552213 0 0,0 -0.6435275124109491,-0.3569538631997767 l 10.770559342214943 -19.03054634263049" fill="red" stroke="none" /><line stroke="#e1ed5e" stroke-width="0.3" x1="58.13341422392154" x2="55.67067388415222" y1="173.97424548756322" y2="178.32567169271397" /><path d="M 57.64086615596768 174.84453072859336 a86.0,86.0 0 0,1 -31.369924170532247,-30.572349798747897" fill="none" id="id68" stroke="none" /><text fill="#e1ed5e" style="font-size:6.75px; font-family:Arial;" text-anchor="middle"><textPath startOffset="22.145653131862474" xlink:href="#id68">August</textPath></text><path d="M 89.34428304082925 118.09573695890944 l -3.445133319217752 5.850589554115805 a27.789575960095984,27.789575960095984 0 0,0 -0.4089927446868978,-0.24558839186844852 l 3.545058820462077 -5.7905871617114375" fill="red" stroke="none" /><path d="M 89.03521579738668 117.91015095944536 l -5.119432017317375 8.362207460035457 a30.80485072729855,30.80485072729855 0 0,0 -0.4486299218898195,-0.2799782517848051 l 5.262226067996907 -8.273093411409103" fill="red" stroke="none" /><path d="M 88.72937992617639 117.7192867562869 l -11.803415160483489 18.556929127427917 a42.992731255828915,42.992731255828915 0 0,0 -0.6193294720667325,-0.40144188126725633 l 12.120230264807232 -18.351573404456765" fill="red" stroke="none" /><path d="M 88.4268655584334 117.5232005979908 l -12.595776286569464 19.071610692106912 a43.85563201166383,43.85563201166383 0 0,0 -0.6246372534543064,-0.42028382079896653 l 12.921309828120776 -18.852577197250824" fill="red" stroke="none" /><path d="M 88.1277618465304 117.32195027204791 l -12.254630941931312 17.8798727783605 a42.676388769656654,42.676388769656654 0 0,0 -0.6007309529184427,-0.4193568602540201 l 12.559756986023519 -17.66687110230135" fill="red" stroke="none" /><path d="M 87.83215693770417 117.11559508785305 l -12.869834401960313 18.103033819875108 a43.21153914111814,43.21153914111814 0 0,0 -0.600885238103603,-0.43499457343880793 l 13.17870065043787 -17.879438475063235" fill="red" stroke="none" /><path d="M 87.54013794807813 116.9041958592261 l -12.484338893128065 16.937403395235773 a42.04125355988598,42.04125355988598 0 0,0 -0.5772604669732251,-0.4331870162061107 l 12.773252349012056 -16.720597351765647" fill="red" stroke="none" /><path d="M 84.3458050057657 113.99807769240083 l -9.50086031331215 8.495727877375675 a33.74534184945575,33.74534184945575 0 0,0 -0.3824294287193121,-0.43513448828062523 l 9.645300805990056 -8.33138111128375" fill="red" stroke="none" /><path d="M 84.1078160697243 113.72728997021213 l -16.328999845885193 14.104601154344074 a42.57721042419624,42.57721042419624 0 0,0 -0.47302355536507795,-0.5572205588192489 l 16.568717964757383 -13.82221381307527" fill="red" stroke="none" /><path d="M 83.8745106332314 113.45245675266167 l -10.281363229341242 8.577078875271061 a34.38927600306571,34.38927600306571 0 0,0 -0.3742751625991107,-0.45655484208073394 l 10.427085211178984 -8.399321751491833" fill="red" stroke="none" /><path d="M 83.64595745247003 113.17365903436017 l -16.88526175875027 13.601571627884336 a42.68213124695039,42.68213124695039 0 0,0 -0.45473455103359733,-0.5745422502251858 l 17.116262740425434 -13.30970943374447" fill="red" stroke="none" /><path d="M 83.20337586046588 112.60449989151573 l -17.31111630333385 12.990584402839403 a42.643244460913095,42.643244460913095 0 0,0 -0.43434780326582484,-0.5892762140410369 l 17.531566126183506 -12.691501879529486" fill="red" stroke="none" /><path d="M 82.78059297857968 112.02048342749411 l -4.100017910969016 2.862130925294019 a26.00019402661448,26.00019402661448 0 0,0 -0.2523383994008053,-0.3681692659502044 l 4.148546047185146 -2.7913269242737635" fill="red" stroke="none" /><path d="M 82.576782715395 111.72311816256416 l -18.08493612191264 12.168352127878158 a42.79756197471858,42.79756197471858 0 0,0 -0.40489664943581843,-0.6130651333345914 l 18.291157210269187 -11.856107116204505" fill="red" stroke="none" /><path d="M 82.18462484594161 111.11811171558189 l -36.67874833589483 22.89025171009631 a64.23533511885243,64.23533511885243 0 0,0 -0.575768946824325,-0.940475303921328 l 37.066285247174555 -22.257239290050425" fill="red" stroke="none" /><line stroke="#e1ed5e" stroke-width="0.3" x1="26.387840678322732" x2="22.057713659400548" y1="142.50000000000003" y2="145.00000000000006" /><path d="M 25.521815274538298 143.00000000000003 a86.0,86.0 0 0,1 -11.493303480769221,-40.785679425670985" fill="none" id="id69" stroke="none" /><text fill="#e1ed5e" style="font-size:6.75px; font-family:Arial;" text-anchor="middle"><textPath startOffset="21.40746469413373" xlink:href="#id69">September</textPath></text><path d="M 81.81346652052679 110.50000000000001 l -11.2715911098754 6.507656161481964 a34.015312322963915,34.015312322963915 0 0,0 -0.2876183117588355,-0.5081939978235167 l 11.381642786655615 -6.313205393559325" fill="red" stroke="none" /><path d="M 81.29705330413844 109.54985784667822 l -20.026624301763274 10.225737063827994 a43.48624867385667,43.48624867385667 0 0,0 -0.33376749215943835,-0.6677585662980966 l 20.19921170713445 -9.880446641366145" fill="red" stroke="none" /><path d="M 81.1358732173502 109.22738970284198 l -19.541510297194712 9.558731923926672 a42.75407963322884,42.75407963322884 0 0,0 -0.31682959989352794,-0.6620520086875692 l 19.702719155048154 -9.221867413173998" fill="red" stroke="none" /><path d="M 80.83023694016515 108.57439118712176 l -15.362273215452463 6.871349409045185 a37.82898930558201,37.82898930558201 0 0,0 -0.2600583015842147,-0.5950642871274996 l 15.477965399053645 -6.606623052141836" fill="red" stroke="none" /><path d="M 80.5471966667186 107.91128576633889 l -21.088225047451758 8.576397540082159 a43.76549648958922,43.76549648958922 0 0,0 -0.2770591949567343,-0.6983701597526012 l 21.232342917374616 -8.213126363115991" fill="red" stroke="none" /><path d="M 80.28708602549918 107.23885506374661 l -20.450833083807808 7.509829181928822 a42.78609896616459,42.78609896616459 0 0,0 -0.24726255690555954,-0.691637378659013 l 20.57673581075731 -7.157656846888887" fill="red" stroke="none" /><path d="M 80.16572619554312 106.89939002012753 l -20.48318269174961 7.1251142157849205 a42.687047419406156,42.687047419406156 0 0,0 -0.23480839461776515,-0.6941692959699649 l 20.602476507939745 -6.772443245340794" fill="red" stroke="none" /><path d="M 79.94057633289273 106.21446072829308 l -25.349799761339774 7.853432765631262 a47.53843918063594,47.53843918063594 0 0,0 -0.23480294538567598,-0.7815826396696671 l 25.48087902672908 -7.417112522370871" fill="red" stroke="none" /><path d="M 79.64726062577567 105.17358676015961 l -24.157445449875976 6.140728166402879 a45.92570386322896,45.92570386322896 0 0,0 -0.18766658309447098,-0.7657437004039486 l 24.25929955948674 -5.725128641390831" fill="red" stroke="none" /><path d="M 79.56144815229197 104.8234425847677 l -21.018425773100766 4.9602912522455505 a42.59580309426927,42.59580309426927 0 0,0 -0.1618420204833825,-0.7131058041066125 l 21.100478655141814 -4.598751114199912" fill="red" stroke="none" /><path d="M 79.407916724674 104.11899336999214 l -16.848699438661384 3.3702117630804813 a38.182461991878654,38.182461991878654 0 0,0 -0.12304517965647851,-0.6438243739065329 l 16.904070910600023 -3.0804848241406337" fill="red" stroke="none" /><path d="M 79.2786578344484 103.40968896794605 l -43.30539090121868 7.1258855931616125 a64.88775599861745,64.88775599861745 0 0,0 -0.1714226610142608,-1.1006564540312374 l 43.42133505437121 -6.381440957198925" fill="red" stroke="none" /><path d="M 79.17382384314188 102.69636545807758 l -18.09007461474232 2.342122334789469 a39.24106182759283,39.24106182759283 0 0,0 -0.08075794405448589,-0.6687916263016811 l 18.127614645056468 -2.0312370315643884" fill="red" stroke="none" /><path d="M 79.0935383218832 101.97986365728391 l -23.083219913269332 2.1860049253198617 a44.18649734431392,44.18649734431392 0 0,0 -0.06503069326612573,-0.7557552302985127 l 23.117344229233197 -1.789428647645687" fill="red" stroke="none" /><path d="M 79.06263194458094 101.62068470465958 l -42.89883952282263 3.3206414902893937 a64.02716691012691,64.02716691012691 0 0,0 -0.0754180231990331,-1.096561505333075 l 42.949521507186724 -2.583736560801975" fill="red" stroke="none" /><path d="M 79.01933749520258 100.90099992219065 l -21.072984450435783 0.9049646237732437 a42.092407037097246,42.092407037097246 0 0,0 -0.024805081530483365,-0.7221728840420616 l 21.085414218963116 -0.5430854751670623" fill="red" stroke="none" /><path d="M 79.00696218219943 100.54070618675478 l -21.617308376703463 0.5567851819119841 a42.62447759351172,42.62447759351172 0 0,0 -0.012561166436122597,-0.7316249716090154 l 21.62368097473825 -0.1856132943339163" fill="red" stroke="none" /><line stroke="#e1ed5e" stroke-width="0.3" x1="15.003131293944662" x2="10.003315487706104" y1="100.72959589197737" y2="100.7725132973878" /><path d="M 14.003168132696942 100.73817937305945 a86.0,86.0 0 0,1 10.791469493833604,-42.45332614584628" fill="none" id="id70" stroke="none" /><text fill="#e1ed5e" style="font-size:6.75px; font-family:Arial;" text-anchor="middle"><textPath startOffset="22.145653131862435" xlink:href="#id70">October</textPath></text><path d="M 79.00077361379809 100.18025310272382 l -3.008268527261595 0.025822367257377757 a24.008379352203345,24.008379352203345 0 0,0 0.0,-0.4121509399623895 l 3.008268527261595 0.02582236725737665" fill="red" stroke="none" /><path d="M 79.00696218219943 99.45929381324524 l -25.986551497552103 -0.6693213859326888 a46.99516974079212,46.99516974079212 0 0,0 0.027694282627544968,-0.8062888215882076 l 25.971232527927707 1.1153164720850348" fill="red" stroke="none" /><path d="M 79.01933749520258 99.09900007780938 l -62.941987514392274 -2.7029997665718684 a84.0,84.0 0 0,0 0.07423364217371864,-1.440112826493152 l 62.886312282761985 3.7830843864417325" fill="red" stroke="none" /><path d="M 79.13060592940154 97.66154086499901 l -28.40281986981349 -3.182595209025558 a49.580571877091344,49.580571877091344 0 0,0 0.10203661326573564,-0.8450095322172878 l 28.344001170288088 3.669698418166282" fill="red" stroke="none" /><path d="M 79.17382384314186 97.30363454192245 l -24.290419992785065 -3.144881179216095 a45.49315784167652,45.49315784167652 0 0,0 0.10692079993838956,-0.7736256458172615 l 24.232854676291467 3.5613951332334235" fill="red" stroke="none" /><path d="M 79.22317932658666 96.9465228501225 l -4.956309421071572 -0.7284068050089336 a26.009548837069676,26.009548837069676 0 0,0 0.06871290283988023,-0.44118612754263475 l 4.943075026093425 0.8133811144830183" fill="red" stroke="none" /><path d="M 79.2786578344484 96.59031103205396 l -5.239484318698064 -0.8621551507841474 a26.309944202146248,26.309944202146248 0 0,0 0.07715727216468134,-0.44502264209870507 l 5.223912229041148 0.951970825803445" fill="red" stroke="none" /><path d="M 79.34024301695615 96.23510406497455 l -24.5266891407845 -4.469579788453427 a45.93061619162326,45.93061619162326 0 0,0 0.14801405216439223,-0.7744720657091956 l 24.44634879633795 4.889954419195938" fill="red" stroke="none" /><path d="M 79.407916724674 95.88100663000787 l -42.05520055332273 -8.412217935248387 a63.88828865984642,63.88828865984642 0 0,0 0.2243461265376534,-1.0735774296947027 l 41.90459671596071 9.132911816228498" fill="red" stroke="none" /><path d="M 79.48165901384962 95.52812308129327 l -2.6160437102505876 -0.5701545507063134 a23.677454183666413,23.677454183666413 0 0,0 0.08996207951536574,-0.39638952146234757 l 2.6058707691775598 0.6149784061076692" fill="red" stroke="none" /><path d="M 79.56144815229197 95.17655741523228 l -5.273436844601708 -1.2445167365019236 a26.41829844706216,26.41829844706216 0 0,0 0.10795331118919248,-0.4404863488096774 l 5.251296006896217 1.3348589099197188" fill="red" stroke="none" /><path d="M 79.64726062577567 94.8264132398404 l -2.660300637025955 -0.6762380189072784 a23.744903884943213,23.744903884943213 0 0,0 0.10381104542469163,-0.39418744838502906 l 2.6483001107965376 0.7218059716650921" fill="red" stroke="none" /><path d="M 79.73907114497095 94.47779374421319 l -26.18221229982235 -7.136078389443122 a48.13727797133025,48.13727797133025 0 0,0 0.22413979178388932,-0.7953930486156969 l 26.05585401596388 7.584479361961832" fill="red" stroke="none" /><path d="M 79.83685265289637 94.1308016681162 l -28.139561408864317 -8.191016215758218 a50.307467699036366,50.307467699036366 0 0,0 0.2484797943353612,-0.8271084216691224 l 27.994805294525325 8.672862241018063" fill="red" stroke="none" /><path d="M 79.94057633289273 93.78553927170692 l -40.81634495036402 -12.64500800102395 a63.730202930164815,63.730202930164815 0 0,0 0.3327180434200808,-1.0422345321595334 l 40.59326219116668 13.343811566874875" fill="red" stroke="none" /><path d="M 80.05021161711548 93.44210830539832 l -23.90331468344279 -7.85749431660562 a46.16165077635371,46.16165077635371 0 0,0 0.2539211251882957,-0.7506726877920623 l 23.76490813668213 8.266668678871843" fill="red" stroke="none" /><path d="M 80.16572619554312 93.10060997987247 l -2.1913620961071376 -0.7622694899457304 a23.320155730022705,23.320155730022705 0 0,0 0.1347681016163961,-0.37697036581408866 l 2.1779538244467984 0.7997748121407405" fill="red" stroke="none" /><path d="M 80.28708602549916 92.7611449362534 l -26.586747565704947 -9.763021970952888 a49.322636602686316,49.322636602686316 0 0,0 0.2986821890110805,-0.7922899919306378 l 26.41523469287943 10.21798024307767" fill="red" stroke="none" /><path d="M 80.41425534168474 92.42381321644754 l -4.447805446952457 -1.7205066966247493 a25.768974374755075,25.768974374755075 0 0,0 0.16313150467351165,-0.4111979571633179 l 4.417615267312814 1.79660567100165" fill="red" stroke="none" /><path d="M 80.5471966667186 92.08871423366112 l -27.088235903086197 -11.01654972107127 a50.24272374622589,50.24272374622589 0 0,0 0.3317793944616615,-0.7961497666603531 l 26.895130664088057 11.479931997172887" fill="red" stroke="none" /><path d="M 80.68587082218212 91.75594674310238 l -4.926280148110056 -2.1027360605033074 a26.356279962605036,26.356279962605036 0 0,0 0.1811882772702388,-0.41459423672641627 l 4.889457988822841 2.1869923670055904" fill="red" stroke="none" /><path d="M 80.9802524753101 91.09779779509293 l -22.22737081499835 -10.403531867166123 a45.541586922173174,45.541586922173174 0 0,0 0.33748645478628936,-0.7052168906288971 l 22.045505102252154 10.783561259860107" fill="red" stroke="none" /><path d="M 81.1358732173502 90.77261029715801 l -2.464793415116398 -1.205653971706557 a23.743867358071988,23.743867358071988 0 0,0 0.18223993340299438,-0.3646019444976723 l 2.4437335685016595 1.2477877723679998" fill="red" stroke="none" /><path d="M 81.29705330413844 90.45014215332179 l -27.42751101935709 -14.004682555237041 a51.79609543740757,51.79609543740757 0 0,0 0.4111424365723701,-0.7884198332898045 l 27.18306051380978 14.473448631631332" fill="red" stroke="none" /><path d="M 81.46374523516351 90.13048839642627 l -24.43306751038447 -13.00923225127926 a48.680587272215334,48.680587272215334 0 0,0 0.39907568963655443,-0.7342543200995789 l 24.206146471132563 13.426741404853459" fill="red" stroke="none" /><path d="M 81.63589988554816 89.8137432299009 l -2.3555917330808107 -1.3066070261619311 a23.693702718151055,23.693702718151055 0 0,0 0.20034338389743456,-0.3539875628144915 l 2.3328149841620074 1.3468513590755278" fill="red" stroke="none" /><line stroke="#e1ed5e" stroke-width="0.3" x1="26.387840678322718" x2="22.05771365940052" y1="57.49999999999999" y2="54.99999999999999" /><path d="M 25.521815274538284 56.99999999999999 a86.0,86.0 0 0,1 29.574782752854787,-30.34633250058573" fill="none" id="id71" stroke="none" /><text fill="#e1ed5e" style="font-size:6.75px; font-family:Arial;" text-anchor="middle"><textPath startOffset="21.40746469413373" xlink:href="#id71">November</textPath></text><path d="M 81.81346652052679 89.5 l -4.396898263009676 -2.5385503957480346 a26.07710079149607,26.07710079149607 0 0,0 0.22715177611238904,-0.38575337596042863 l 4.352672776767507 2.613654940002036" fill="red" stroke="none" /><path d="M 81.99639281039701 89.18935116829357 l -43.18400829044559 -25.930756201074455 a71.37124863638815,71.37124863638815 0 0,0 0.6397312100089332,-1.044952853882675 l 42.732509115981266 26.668246171081673" fill="red" stroke="none" /><path d="M 82.37810715431573 88.57770195909679 l -22.1810608759972 -14.3774956758466 a47.43315803103521,47.43315803103521 0 0,0 0.44875282312274517,-0.6794689699837408 l 21.930983613953725 14.7561445241694" fill="red" stroke="none" /><path d="M 82.576782715395 88.27688183743585 l -2.1859566148289344 -1.4708091666010181 a23.634707939501446,23.634707939501446 0 0,0 0.22938076406871394,-0.33467338990343815 l 2.160386113944907 1.508117291574491" fill="red" stroke="none" /><path d="M 82.78059297857968 87.97951657250589 l -23.665155270648132 -16.52011630749159 a49.86093929166088,49.86093929166088 0 0,0 0.49596178053055306,-0.6976323553116212 l 23.378078391587607 16.923925889512734" fill="red" stroke="none" /><path d="M 82.98947788004972 87.6856937992154 l -4.2157272650032125 -3.0518614322461177 a26.20444181200278,26.20444181200278 0 0,0 0.26690843721527296,-0.36211255633211437 l 4.16271680820412 3.1237802978470954" fill="red" stroke="none" /><path d="M 83.2033758604659 87.39550010848427 l -29.97896334293597 -22.496772986328892 a58.481235810943,58.481235810943 0 0,0 0.6094525151953039,-0.7977929060792116 l 29.58835885038636 23.008086805648986" fill="red" stroke="none" /><path d="M 83.42222388311158 87.10902102172516 l -1.8049989234851525 -1.4035780803404403 a23.286493503466545,23.286493503466545 0 0,0 0.24809382425584078,-0.31345844236144266 l 1.7806386685877502 1.4343564666165658" fill="red" stroke="none" /><path d="M 83.64595745247003 86.82634096563983 l -24.562940643672075 -19.786166263205395 a52.540932587033076,52.540932587033076 0 0,0 0.5718284410921491,-0.697537720128482 l 24.219665383341297 20.20490626503237" fill="red" stroke="none" /><path d="M 84.34580500576568 86.00192230759919 l -18.604091654795937 -16.635893476240497 a45.957267038938156,45.957267038938156 0 0,0 0.5309208879367016,-0.5835750594927329 l 18.315773066017368 16.952806111290887" fill="red" stroke="none" /><path d="M 84.83555147118756 85.47280134310135 l -1.6582044403271134 -1.5885223437314056 a23.296311216376054,23.296311216376054 0 0,0 0.27912663745422944,-0.28640851974268133 l 1.6306910017220815 1.6167535555418173" fill="red" stroke="none" /><path d="M 85.08716467003674 85.21462403516908 l -30.330714077413177 -30.07147876268065 a63.71119351434871,63.71119351434871 0 0,0 0.7766943008493289,-0.7700559279109999 l 29.81002785643387 30.58771470082032" fill="red" stroke="none" /><path d="M 85.86807049272753 84.46653392183569 l -28.97081599552912 -31.84400171906509 a64.05053571014682,64.05053571014682 0 0,0 0.8196485236196993,-0.7329347640243399 l 28.419902445086027 32.336632012972835" fill="red" stroke="none" /><path d="M 86.13680546590413 84.22622945171909 l -1.4288596980469757 -1.625780044220439 a23.164440063593425,23.164440063593425 0 0,0 0.3009397423405653,-0.2599445818645391 l 1.4007404759435618 1.650068758549689" fill="red" stroke="none" /><path d="M 86.40962598614128 83.9905735841838 l -1.4247224570024932 -1.6783194719352765 a23.201497292608902,23.201497292608902 0 0,0 0.30584618745081543,-0.25514776736807077 l 1.3957019353897686 1.702529423215229" fill="red" stroke="none" /><path d="M 86.68645165197937 83.75963576809568 l -1.4844505754962232 -1.8107883338180735 a23.341484123581175,23.341484123581175 0 0,0 0.3120525564981277,-0.25136745047343684 l 1.45314724864285 1.8360040780849092" fill="red" stroke="none" /><path d="M 86.96720088162412 83.53348406188908 l -2.111015564162278 -2.667199203881401 a24.401519999253416,24.401519999253416 0 0,0 0.3306871394081769,-0.25714431974708 l 2.0649184801188567 2.7030445752492858" fill="red" stroke="none" /><path d="M 87.25179093698888 83.31218511350988 l -1.5098410673764406 -1.9764304237451389 a23.487146410777182,23.487146410777182 0 0,0 0.32249754602681674,-0.2420081708169903 l 1.4756905324388716 2.00205762182613" fill="red" stroke="none" /><path d="M 87.54013794807813 83.09580414077388 l -2.8737797048701803 -3.8988340950292844 a25.84350256453804,25.84350256453804 0 0,0 0.35937111939496036,-0.26015697653148506 l 2.8064275751012517 3.9475918429338486" fill="red" stroke="none" /><path d="M 87.83215693770416 82.88440491214696 l -1.8051698571148413 -2.5391974716466756 a24.115471394998337,24.115471394998337 0 0,0 0.3394596058581025,-0.23696916865052764 l 1.7613151600829735 2.5698114561023297" fill="red" stroke="none" /><line stroke="#e1ed5e" stroke-width="0.3" x1="56.869717070023135" x2="54.33264160355391" y1="26.7553504044142" y2="22.446841604673864" /><path d="M 56.362301976729285 25.89364864446614 a86.0,86.0 0 0,1 42.16139366436587,-11.88097634709845" fill="none" id="id72" stroke="none" /><text fill="#e1ed5e" style="font-size:6.75px; font-family:Arial;" text-anchor="middle"><textPath startOffset="22.145653131862474" xlink:href="#id72">December</textPath></text><path d="M 89.65649057296885 81.72400993836675 l -2.4597562637038033 -4.346153628671649 a25.993941553607314,25.993941553607314 0 0,0 0.3902257689288235,-0.21645165599430996 l 2.384786306618877 4.387738200099105" fill="red" stroke="none" /><path d="M 89.97174638481275 81.54914285379989 l -1.3422438511019952 -2.4695775059520133 a23.81077064409839,23.81077064409839 0 0,0 0.36080254874729134,-0.19210703492355335 l 1.299652486568142 2.492255008598142" fill="red" stroke="none" /><path d="M 90.28995756902619 81.37971332152246 l -14.824246852999131 -28.427447990840452 a53.06053795603863,53.06053795603863 0 0,0 0.8112521113770115,-0.4142311084692531 l 14.334067519908537 28.67773705098254" fill="red" stroke="none" /><path d="M 90.61103034731259 81.2157712731953 l -1.0501061636307616 -2.100915765493142 a23.34873796081916,23.34873796081916 0 0,0 0.3600594991084436,-0.17612314382553249 l 1.013886415260265 2.1186326594158884" fill="red" stroke="none" /><path d="M 90.93487009805054 81.0573650232925 l -2.356377413591901 -4.923922513612354 a26.458711151484813,26.458711151484813 0 0,0 0.4113841813034855,-0.19254856885506713 l 2.271504518416893 4.9636473140379636" fill="red" stroke="none" /><path d="M 91.26138138417902 80.90454125486306 l -25.190639010240364 -55.04609242389859 a81.53627495051731,81.53627495051731 0 0,0 1.2777378698711614,-0.5715158970237934 l 24.241987737513586 55.47041207183223" fill="red" stroke="none" /><path d="M 91.5904679813234 80.7573450057729 l -17.64556696023417 -40.37651042165283 a65.06391525021293,65.06391525021293 0 0,0 1.027281531859728,-0.4384854000151066 l 16.949850353204013 40.67347047132734" fill="red" stroke="none" /><path d="M 91.92203290615298 80.6158196554323 l -0.8471587891314155 -2.032872696586888 a23.202328180478798,23.202328180478798 0 0,0 0.3689673326602957,-0.15005580209230696 l 0.812136995280679 2.047115755258486" fill="red" stroke="none" /><path d="M 92.25597844496254 80.48000691201159 l -1.9952012170431201 -5.029210428849242 a26.41052543050454,26.41052543050454 0 0,0 0.42285481961217364,-0.16356932818212117 l 1.908574134937417 5.062719645169404" fill="red" stroke="none" /><path d="M 92.592206182469 80.34994680014964 l -1.7427315291374612 -4.622802429998166 a25.940386168048683,25.940386168048683 0 0,0 0.418024194740424,-0.15350427454710971 l 1.6631181827429102 4.652037553553998" fill="red" stroke="none" /><path d="M 93.27111125876988 80.10723608172694 l -1.459847467677399 -4.315779640292624 a25.555996985561826,25.555996985561826 0 0,0 0.41677847068082313,-0.13700336158509935 l 1.3855462593488148 4.340203923279752" fill="red" stroke="none" /><path d="M 93.61358852112211 79.99465700312896 l -1.7877048889399807 -5.599960102588208 a26.878387697363934,26.878387697363934 0 0,0 0.440753551280742,-0.13654657684813135 l 1.6913107047876226 5.6298232672429815" fill="red" stroke="none" /><path d="M 93.95794788825049 79.88797359093562 l -7.405846042137399 -24.651652853388597 a46.74005718726795,46.74005718726795 0 0,0 0.7704096579087191,-0.22425502334657327 l 6.981576371847055 24.775151571037693" fill="red" stroke="none" /><path d="M 94.6519064749342 79.69241777938228 l -7.530614287964957 -28.594969049783995 a50.56995783751148,50.56995783751148 0 0,0 0.841375028106777,-0.21387424197329077 l 7.038633966632802 28.72002852359255" fill="red" stroke="none" /><path d="M 95.35216902796891 79.52079915486377 l -10.094656163648906 -44.47891764609881 a66.6100449246735,66.6100449246735 0 0,0 1.1172648215789978,-0.2435026677388087 l 9.32962892545079 44.64565177197133" fill="red" stroke="none" /><path d="M 95.70440661134978 79.44403061299748 l -0.5438937875280156 -2.60272866508901 a23.65895034857509,23.65895034857509 0 0,0 0.3982629569937818,-0.07966374540338277 l 0.4991343450032571 2.611681807155259" fill="red" stroke="none" /><path d="M 96.05791012581881 79.37332000966035 l -10.902271868909336 -57.045293279718656 a79.0777497607537,79.0777497607537 0 0,0 1.335530056622953,-0.24337806516363666 l 9.921407078735344 57.224039518813655" fill="red" stroke="none" /><path d="M 97.12497278360702 79.19773525538626 l -7.724969349083316 -55.89403002078995 a77.42532891715604,77.42532891715604 0 0,0 1.318155820727777,-0.17066166139212266 l 6.764335706464745 56.018403278382465" fill="red" stroke="none" /><path d="M 97.84075906011542 79.11130261209362 l -4.50627137689593 -43.59408781161543 a64.82637304008932,64.82637304008932 0 0,0 1.1079149327739959,-0.10492069602851065 l 3.7572568807369193 43.665020263149124" fill="red" stroke="none" /><path d="M 98.9189461498227 79.02784411241856 l -1.6288987645456745 -31.600200868382455 a52.64215552245545,52.64215552245545 0 0,0 0.9028737297920824,-0.03877328278383187 l 1.0861992741527722 31.623506719592115" fill="red" stroke="none" /><path d="M 99.63950707515114 79.00309439819443 l -0.5522739052773996 -32.16718625008217 a53.171926857338306,53.171926857338306 0 0,0 0.9127668301262439,-0.007835005450570132 l 7.879849449648424e-15 32.171926857338306" fill="red" stroke="none" /></svg>