<?xml version="1.0" encoding="utf-8" ?>
<svg baseProfile="full" height="200mm" version="1.1" viewBox="0,0,200,200" width="200mm" xmlns="http://www.w3.org/2000/svg" xmlns:ev="http://www.w3.org/2001/xml-events" xmlns:xlink="http://www.w3.org/1999/xlink"><defs /><rect fill="#1a1a1a" height="200" width="200" x="0" y="0" /><text alignment-baseline="middle" fill="#e1ed5e" style="dominant-baseline: central; font-size:9.0px; font-family:Arial;" text-anchor="middle" x="100.0" y="100.0">2024</text><line stroke="#e1ed5e" stroke-width="0.3" x1="100.0" x2="100.0" y1="15.0" y2="10.0" /><path d="M 100.0 14.0 a86.0,86.0 0 0,1 42.35913384403234,11.155469271406648" fill="none" id="id61" stroke="none" /><text fill="#e1ed5e" style="font-size:6.75px; font-family:Arial;" text-anchor="middle"><textPath startOffset="22.145653131862478" xlink:href="#id61">January</textPath></text><line stroke="#e1ed5e" stroke-width="0.3" x1="143.13028292997686" x2="145.6673583964461" y1="26.7553504044142" y2="22.446841604673864" /><path d="M 143.63769802327073 25.89364864446614 a86.0,86.0 0 0,1 29.32050498858742,28.57503671076993" fill="none" id="id62" stroke="none" /><text fill="#e1ed5e" style="font-size:6.75px; font-family:Arial;" text-anchor="middle"><textPath startOffset="20.669276256404974" xlink:href="#id62">February</textPath></text><line stroke="#e1ed5e" stroke-width="0.3" x1="172.87174338648825" x2="177.1583165268699" y1="56.24261187166439" y2="53.66864786411523" /><path d="M 173.72905801456457 55.72781907015455 a86.0,86.0 0 0,1 12.242430191666344,42.057860355516425" fill="none" id="id63" stroke="none" /><text fill="#e1ed5e" style="font-size:6.75px; font-family:Arial;" text-anchor="middle"><textPath startOffset="22.145653131862474" xlink:href="#id63">March</textPath></text><line stroke="#e1ed5e" stroke-width="0.3" x1="184.99686870605535" x2="189.99668451229388" y1="99.2704041080226" y2="99.22748670261217" /><path d="M 185.99683186730306 99.26182062694052 a86.0,86.0 0 0,1 -10.086455211305974,41.156179273409016" fill="none" id="id64" stroke="none" /><text fill="#e1ed5e" style="font-size:6.75px; font-family:Arial;" text-anchor="middle"><textPath startOffset="21.40746469413373" xlink:href="#id64">April</textPath></text><path d="M 119.71291397450082 107.23885506374661 l 6.572304793786165 2.4134413561853836 a28.00142053316115,28.00142053316115 0 0,0 -0.16956769054411355,0.449798445021802 l -6.52990641942761 -2.5259080814013446" fill="red" stroke="none" /><line stroke="#e1ed5e" stroke-width="0.3" x1="174.33088141563837" x2="178.70328620479359" y1="141.23008692659167" y2="143.65538615756765" /><path d="M 175.20536237346943 141.71514677278685 a86.0,86.0 0 0,1 -30.301960400862466,31.631185727798858" fill="none" id="id65" stroke="none" /><text fill="#e1ed5e" style="font-size:6.75px; font-family:Arial;" text-anchor="middle"><textPath startOffset="22.145653131862474" xlink:href="#id65">May</textPath></text><path d="M 117.01052211995028 112.31430620078461 l 9.62355264884043 6.966709970542587 a32.88056452356794,32.88056452356794 0 0,0 -0.3349088736445149,0.45436820821033325 l -9.502541755612087 -7.130884488021797" fill="red" stroke="none" /><path d="M 116.79662413953412 112.60449989151573 l 5.6037293780893815 4.205142994892917 a28.00606955077945,28.00606955077945 0 0,0 -0.2918606163459956,0.38205491564856053 l -5.530716784389082 -4.300718823782354" fill="red" stroke="none" /><path d="M 114.91283532996324 114.78537596483092 l 6.639176131033542 6.582431376871134 a30.3491744304031,30.3491744304031 0 0,0 -0.3699825653127745,0.36682034016635595 l -6.525201645590802 -6.695431727266151" fill="red" stroke="none" /><line stroke="#e1ed5e" stroke-width="0.3" x1="143.1302829299769" x2="145.66735839644613" y1="173.24464959558577" y2="177.55315839532614" /><path d="M 143.63769802327073 174.10635135553383 a86.0,86.0 0 0,1 -40.68552437913181,11.842963189579606" fill="none" id="id66" stroke="none" /><text fill="#e1ed5e" style="font-size:6.75px; font-family:Arial;" text-anchor="middle"><textPath startOffset="21.407464694133747" xlink:href="#id66">June</textPath></text><path d="M 108.73861861582097 119.09545874513695 l 1.953916753505213 4.269660732239825 a25.695507794483902,25.695507794483902 0 0,0 -0.4026689153325439,0.180108684086416 l -1.8803344353170424 -4.302573167236092" fill="red" stroke="none" /><path d="M 103.94208987418118 120.62667999033965 l 1.0878291732866345 5.691981907490094 a26.795000461212066,26.795000461212066 0 0,0 -0.4525359989559678,0.0824671337770519 l -0.9899584407796097 -5.70981721519851" fill="red" stroke="none" /><path d="M 103.58742460773223 120.69131181640829 l 3.3133627075271015 19.110595605140944 a40.39570150355134,40.39570150355134 0 0,0 -0.6842695145126688,0.11259628821796722 l -2.9848156899613603 -19.16465789185458" fill="red" stroke="none" /><line stroke="#e1ed5e" stroke-width="0.3" x1="101.45913802915013" x2="101.54496967792366" y1="184.9874750549273" y2="189.98673829345242" /><path d="M 101.47630435890484 185.9873277026323 a86.0,86.0 0 0,1 -42.54439059252881,-10.42667462771756" fill="none" id="id67" stroke="none" /><text fill="#e1ed5e" style="font-size:6.75px; font-family:Arial;" text-anchor="middle"><textPath startOffset="22.145653131862474" xlink:href="#id67">July</textPath></text><path d="M 99.63950707515114 120.99690560180557 l -0.08427573736158332 4.908639199079055 a25.909362604925747,25.909362604925747 0 0,0 -0.44463758684421845,-0.011452286999001528 l 0.16852663827654568 -4.906469194730007" fill="red" stroke="none" /><path d="M 97.12497278360702 120.80226474461374 l -1.486814185590405 10.757846791274096 a31.86010515635089,31.86010515635089 0 0,0 -0.5411285543795004,-0.07952726270860265 l 1.6712678455775902 -10.73073845526661" fill="red" stroke="none" /><path d="M 96.41257539226777 120.69131181640829 l -1.2433052058086456 7.171054031603102 a28.27803708145005,28.27803708145005 0 0,0 -0.4775827407688366,-0.08703148448622208 l 1.3662226801285393 -7.148654373185514" fill="red" stroke="none" /><path d="M 95.35216902796893 120.47920084513623 l -2.0681797444034595 9.112781558614259 a30.344525412784797,30.344525412784797 0 0,0 -0.5069961084461448,-0.11964970111445868 l 2.2243080065894927 -9.075935713853573" fill="red" stroke="none" /><path d="M 95.00130118170881 120.39639698878247 l -2.246440424565508 9.16624353190187 a30.437505765150817,30.437505765150817 0 0,0 -0.5064144477031293,-0.1287285722878436 l 2.4034601654940158 -9.126329727778764" fill="red" stroke="none" /><path d="M 94.6519064749342 120.30758222061772 l -2.971766017433488 11.284279614150098 a32.66903422193525,32.66903422193525 0 0,0 -0.5410903674233343,-0.1474765857632142 l 3.1650377857915175 -11.23160253424274" fill="red" stroke="none" /><path d="M 93.95794788825049 120.11202640906438 l -2.0532164910695676 6.8344899262976835 a28.136242044091873,28.136242044091873 0 0,0 -0.4613799287463814,-0.14293668131246406 l 2.1702370526875825 -6.79823665717857" fill="red" stroke="none" /><path d="M 92.59220618246901 119.65005319985036 l -4.4196670428733915 11.723691919253959 a33.52910248132091,33.52910248132091 0 0,0 -0.5368292508531981,-0.2076570866357952 l 4.620268556220118 -11.646094944480124" fill="red" stroke="none" /><path d="M 91.92203290615298 119.3841803445677 l -5.445418644205703 13.067022411041487 a35.156258647726226,35.156258647726226 0 0,0 -0.5550753455153441,-0.2369286581801936 l 5.668929064891478 -12.971619103201888" fill="red" stroke="none" /><path d="M 91.26138138417905 119.09545874513695 l -9.711546636233821 21.22148205529103 a44.33806844387049,44.33806844387049 0 0,0 -0.6893752262886697,-0.322662414498867 l 10.07441057639398 -21.051643409221636" fill="red" stroke="none" /><path d="M 90.6110303473126 118.78422872680471 l -3.5023515612459937 7.007049254791829 a28.833594686837007,28.833594686837007 0 0,0 -0.44084201686129754,-0.2250970749331088 l 3.6221207998208738 -6.9458942281858835" fill="red" stroke="none" /><path d="M 90.28995756902619 118.62028667847754 l -5.4063108673884255 10.367313937025221 a32.69227931002675,32.69227931002675 0 0,0 -0.4953832816133378,-0.2637636948848015 l 5.583482964788325 -10.272979774417847" fill="red" stroke="none" /><path d="M 89.97174638481275 118.45085714620012 l -5.627884419776702 10.35467345055636 a32.78525966239277,32.78525966239277 0 0,0 -0.49217826911336254,-0.2730029892347536 l 5.804806877046167 -10.256537545888458" fill="red" stroke="none" /><line stroke="#e1ed5e" stroke-width="0.3" x1="58.13341422392154" x2="55.67067388415222" y1="173.97424548756322" y2="178.32567169271397" /><path d="M 57.64086615596768 174.84453072859336 a86.0,86.0 0 0,1 -31.369924170532247,-30.572349798747897" fill="none" id="id68" stroke="none" /><text fill="#e1ed5e" style="font-size:6.75px; font-family:Arial;" text-anchor="middle"><textPath startOffset="22.145653131862474" xlink:href="#id68">August</textPath></text><path d="M 89.34428304082925 118.09573695890944 l -1.8518006411841796 3.1447623310197748 a24.649478830366203,24.649478830366203 0 0,0 -0.3627784035427302,-0.2178380078572488 l 1.905511801284337 -3.112510322626607" fill="red" stroke="none" /><path d="M 89.03521579738668 117.91015095944536 l -2.827925157320067 4.619203217656048 a26.416105525320543,26.416105525320543 0 0,0 -0.38471393558663314,-0.24008994912570927 l 2.906803221696413 -4.56997747168879" fill="red" stroke="none" /><path d="M 88.72937992617639 117.7192867562869 l -6.275201804778091 9.865659520426872 a32.69227931002675,32.69227931002675 0 0,0 -0.4709468669309517,-0.30526206932601874 l 6.443634303966053 -9.756483609396959" fill="red" stroke="none" /><path d="M 88.4268655584334 117.5232005979908 l -6.789515270580535 10.28019147709819 a33.31989668849737,33.31989668849737 0 0,0 -0.4745764180835168,-0.3193161937591974 l 6.964987976761058 -10.16212560928187" fill="red" stroke="none" /><path d="M 88.1277618465304 117.32195027204791 l -6.597026347800097 9.62525859596132 a32.66903422193525,32.66903422193525 0 0,0 -0.4598631848864908,-0.3210202178255234 l 6.761284623860353 -9.510593562330667" fill="red" stroke="none" /><path d="M 87.83215693770417 117.11559508785305 l -6.8825028740889245 9.681102211854524 a32.87824001475879,32.87824001475879 0 0,0 -0.4571938299901191,-0.33097307513005825 l 7.047677714452997 -9.5615283653514" fill="red" stroke="none" /><path d="M 87.54013794807813 116.9041958592261 l -6.620127794398115 8.98147478545728 a32.157642283922144,32.157642283922144 0 0,0 -0.4415504779164623,-0.3313477103948057 l 6.773331261225344 -8.866508047798458" fill="red" stroke="none" /><path d="M 84.3458050057657 113.99807769240083 l -5.250313900842721 4.694863065175667 a28.043261691725856,28.043261691725856 0 0,0 -0.31780885776879036,-0.36160814077352715 l 5.330133822570104 -4.60404264659084" fill="red" stroke="none" /><path d="M 84.1078160697243 113.72728997021213 l -8.832541888819962 7.629339316347393 a32.671358730744394,32.671358730744394 0 0,0 -0.36297169569009724,-0.42757974484358696 l 8.96220814801717 -7.476592789054251" fill="red" stroke="none" /><path d="M 83.8745106332314 113.45245675266167 l -5.519049510788509 4.604187393697621 a28.187381237893185,28.187381237893185 0 0,0 -0.30677693520256444,-0.3742179797152031 l 5.5972732652297035 -4.508767132283922" fill="red" stroke="none" /><path d="M 83.64595745247003 113.17365903436017 l -9.105525395894372 7.334766712609354 a32.69227931002675,32.69227931002675 0 0,0 -0.34830287335691945,-0.44006930232929947 l 9.230094699892852 -7.177377466365374" fill="red" stroke="none" /><path d="M 83.20337586046588 112.60449989151573 l -9.333351518914633 7.00392098021315 a32.66903422193525,32.66903422193525 0 0,0 -0.3327543067723181,-0.4514451244516507 l 9.452207845270781 -6.842669546492619" fill="red" stroke="none" /><path d="M 82.78059297857968 112.02048342749411 l -2.268177587546188 1.583364111655898 a23.766165482889033,23.766165482889033 0 0,0 -0.23065659247419773,-0.3365348616756336 l 2.2950239168357105 -1.5441945149102134" fill="red" stroke="none" /><path d="M 82.576782715395 111.72311816256416 l -9.681529464298546 6.514165096511993 a32.66903422193525,32.66903422193525 0 0,0 -0.3090732716171889,-0.4679763261518067 l 9.791927174836461 -6.347008892021126" fill="red" stroke="none" /><path d="M 82.18462484594161 111.11811171558189 l -19.7594383223317 12.331350914874706 a44.291578267687484,44.291578267687484 0 0,0 -0.3970044730861703,-0.6484769707418138 l 19.968210759873276 -11.990336828008337" fill="red" stroke="none" /><line stroke="#e1ed5e" stroke-width="0.3" x1="26.387840678322732" x2="22.057713659400548" y1="142.50000000000003" y2="145.00000000000006" /><path d="M 25.521815274538298 143.00000000000003 a86.0,86.0 0 0,1 -11.493303480769221,-40.785679425670985" fill="none" id="id69" stroke="none" /><text fill="#e1ed5e" style="font-size:6.75px; font-family:Arial;" text-anchor="middle"><textPath startOffset="21.40746469413373" xlink:href="#id69">September</textPath></text><path d="M 81.81346652052679 110.50000000000001 l -6.079512713735903 3.5100083018171797 a28.020016603634353,28.020016603634353 0 0,0 -0.23692476477868857,-0.4186233576714516 l 6.138870843535969 -3.4051281740466064" fill="red" stroke="none" /><path d="M 81.29705330413844 109.54985784667822 l -10.785981251040159 5.507398879940247 a33.11069089567383,33.11069089567383 0 0,0 -0.2541325729611456,-0.5084353825839842 l 10.87893373721304 -5.321431641192509" fill="red" stroke="none" /><path d="M 81.1358732173502 109.22738970284198 l -10.52395893196809 5.147795675932871 a32.715524398118255,32.715524398118255 0 0,0 -0.2424387706221794,-0.506603786792957 l 10.610776960550181 -4.966379387074809" fill="red" stroke="none" /><path d="M 80.83023694016515 108.57439118712176 l -8.233042782639151 3.6825353165980026 a30.019094179503735,30.019094179503735 0 0,0 -0.2063685758124755,-0.4722116875457672 l 8.295045240468594 -3.540661559276386" fill="red" stroke="none" /><path d="M 80.5471966667186 107.91128576633889 l -11.326085659964223 4.6062204369644055 a33.22691633613135,33.22691633613135 0 0,0 -0.21034429926262038,-0.5302050412079803 l 11.403488634192968 -4.41111437854286" fill="red" stroke="none" /><path d="M 80.28708602549918 107.23885506374661 l -11.041122927144084 4.054453274335337 a32.76201457430126,32.76201457430126 0 0,0 -0.18933297703595497,-0.5295980336435269 l 11.109096074223983 -3.8643202843108893" fill="red" stroke="none" /><path d="M 80.16572619554312 106.89939002012753 l -11.043231868250322 3.8414092944829594 a32.69227931002675,32.69227931002675 0 0,0 -0.17983023153981706,-0.5316361258093879 l 11.107547521362507 -3.6512714941994098" fill="red" stroke="none" /><path d="M 79.94057633289273 106.21446072829308 l -13.677636726063733 4.237366820730788 a35.31897426436676,35.31897426436676 0 0,0 -0.17444828497129605,-0.5806816044396587 l 13.748361331038659 -4.001947612700406" fill="red" stroke="none" /><path d="M 79.64726062577567 105.17358676015961 l -11.699117303239213 2.973869869441065 a33.07117424591827,33.07117424591827 0 0,0 -0.13513901252632846,-0.5514132874085194 l 11.748443842281834 -2.772600757424446" fill="red" stroke="none" /><path d="M 79.56144815229197 104.8234425847677 l -11.354792922089839 2.6797002121150197 a32.666709713126096,32.666709713126096 0 0,0 -0.12411660113124484,-0.5468806456340789 l 11.399120384778751 -2.4843852325419147" fill="red" stroke="none" /><path d="M 79.407916724674 104.11899336999214 l -9.135659415276074 1.8273877421191949 a30.316631307074992,30.316631307074992 0 0,0 -0.0976970879078383,-0.5111924467936175 l 9.16568279546607 -1.670292730292263" fill="red" stroke="none" /><path d="M 79.2786578344484 103.40968896794605 l -23.32656210574595 3.8383769177025693 a44.64025458906005,44.64025458906005 0 0,0 -0.11793212929375747,-0.7572088688672387 l 23.389015727177974 -3.4373798669038806" fill="red" stroke="none" /><path d="M 79.17382384314188 102.69636545807758 l -9.760505102644107 1.263692797657096 a30.841970297942993,30.841970297942993 0 0,0 -0.06347264818659942,-0.5256445802749766 l 9.780759837090368 -1.09595454045872" fill="red" stroke="none" /><path d="M 79.0935383218832 101.97986365728391 l -12.47792359026722 1.1816723372465483 a33.53375149893921,33.53375149893921 0 0,0 -0.049352703627924537,-0.5735532257597052 l 12.496369916592885 -0.9672980641111809" fill="red" stroke="none" /><path d="M 79.06263194458094 101.62068470465958 l -23.217476599485817 1.7971795263846089 a44.28692925006918,44.28692925006918 0 0,0 -0.052165866752841995,-0.7584802537523208 l 23.244906427403727 -1.3983558484779448" fill="red" stroke="none" /><path d="M 79.01933749520258 100.90099992219065 l -11.637387674001275 0.4997594993189567 a32.64811364265289,32.64811364265289 0 0,0 -0.01923955358525248,-0.5601386104403109 l 11.644251914583375 -0.299914624314526" fill="red" stroke="none" /><path d="M 79.00696218219943 100.54070618675478 l -11.676784248808916 0.3007525418440418 a32.680656765981,32.680656765981 0 0,0 -0.009630784752228156,-0.5609449294978431 l 11.68022646515981 -0.10026069637714631" fill="red" stroke="none" /><line stroke="#e1ed5e" stroke-width="0.3" x1="15.003131293944662" x2="10.003315487706104" y1="100.72959589197737" y2="100.7725132973878" /><path d="M 14.003168132696942 100.73817937305945 a86.0,86.0 0 0,1 10.791469493833604,-42.45332614584628" fill="none" id="id70" stroke="none" /><text fill="#e1ed5e" style="font-size:6.75px; font-family:Arial;" text-anchor="middle"><textPath startOffset="22.145653131862435" xlink:href="#id70">October</textPath></text><path d="M 79.00696218219943 99.45929381324524 l -14.07488202886281 -0.36251903401976826 a35.07954985702426,35.07954985702426 0 0,0 0.02067240045191737,-0.6018543835902768 l 14.06658494141404 0.6040796821741835" fill="red" stroke="none" /><path d="M 79.01933749520258 99.09900007780938 l -34.09701174010912 -1.4642723945321712 a55.12843833594687,55.12843833594687 0 0,0 0.04871886625031658,-0.9451329899063557 l 34.06685128440223 2.0493771778152388" fill="red" stroke="none" /><path d="M 79.13060592940154 97.66154086499901 l -13.971194023316617 -1.5655014314346651 a35.05862927774191,35.05862927774191 0 0,0 0.07215051504665317,-0.5975097665190938 l 13.942261422010295 1.8051048748771952" fill="red" stroke="none" /><path d="M 79.17382384314186 97.30363454192245 l -11.678488155407429 -1.5120141031957455 a32.775961627156164,32.775961627156164 0 0,0 0.07703206816553562,-0.5573656717639726 l 11.650811570686686 1.712268083159785" fill="red" stroke="none" /><path d="M 79.34024301695615 96.23510406497455 l -11.4616771883423 -2.088699392271658 a32.65043815146204,32.65043815146204 0 0,0 0.1052179146819752,-0.5505445904748151 l 11.424132981378165 2.2851465477797874" fill="red" stroke="none" /><path d="M 79.407916724674 95.88100663000787 l -22.82319304519944 -4.565277809840186 a44.27530670602343,44.27530670602343 0 0,0 0.15547440335502052,-0.7440013024213558 l 22.74146093102005 4.956395563546951" fill="red" stroke="none" /><path d="M 79.73907114497095 94.47779374421319 l -11.283025521961203 -3.075238779396379 a32.6946038188359,32.6946038188359 0 0,0 0.15223465059190014,-0.5402270693460164 l 11.228572379294722 3.2684737726454087" fill="red" stroke="none" /><path d="M 79.83685265289637 94.1308016681162 l -14.09207036431462 -4.101996303017909 a35.67694862097592,35.67694862097592 0 0,0 0.17621640009566916,-0.5865670846404181 l 14.019577644215321 4.343300991249051" fill="red" stroke="none" /><path d="M 79.94057633289273 93.78553927170692 l -22.31275510717767 -6.912548568429162 a44.358989023152844,44.358989023152844 0 0,0 0.23158620806604244,-0.7254404983187777 l 22.190804183334368 7.294558100439331" fill="red" stroke="none" /><path d="M 80.05021161711548 93.44210830539832 l -11.3747469746597 -3.7391052617537057 a32.97354487593395,32.97354487593395 0 0,0 0.18137738740991502,-0.5362100172277396 l 11.30888416567742 3.933816953455607" fill="red" stroke="none" /><path d="M 80.28708602549916 92.7611449362534 l -13.114061026113825 -4.815664857461533 a34.970297942994186,34.970297942994186 0 0,0 0.21176899410552416,-0.5617424165349231 l 13.029461348193864 5.040075554190601" fill="red" stroke="none" /><path d="M 80.5471966667186 92.08871423366112 l -11.748122311932477 -4.777859069216296 a33.68252006272484,33.68252006272484 0 0,0 0.2224235725514993,-0.5337356036651062 l 11.6643728948445 4.978827182322666" fill="red" stroke="none" /><path d="M 80.9802524753101 91.09779779509293 l -12.038179099290861 -5.63447566176463 a34.29154137072226,34.29154137072226 0 0,0 0.2541178625624007,-0.5310085970798438 l 11.939681978768554 5.8402967609095615" fill="red" stroke="none" /><path d="M 81.29705330413844 90.45014215332179 l -13.564251277699649 -6.926003351510267 a36.230181717553734,36.230181717553734 0 0,0 0.28758471199466,-0.5514816047153903 l 13.443358496730047 7.157831199330143" fill="red" stroke="none" /><path d="M 81.46374523516351 90.13048839642627 l -10.68369470275845 -5.688465667721621 a33.10371736924638,33.10371736924638 0 0,0 0.2713789947683265,-0.4993067843205272 l 10.584470358374773 5.871027285516767" fill="red" stroke="none" /><line stroke="#e1ed5e" stroke-width="0.3" x1="26.387840678322718" x2="22.05771365940052" y1="57.49999999999999" y2="54.99999999999999" /><path d="M 25.521815274538284 56.99999999999999 a86.0,86.0 0 0,1 29.574782752854787,-30.34633250058573" fill="none" id="id71" stroke="none" /><text fill="#e1ed5e" style="font-size:6.75px; font-family:Arial;" text-anchor="middle"><textPath startOffset="21.40746469413373" xlink:href="#id71">November</textPath></text><path d="M 81.99639281039701 89.18935116829357 l -23.481579579200304 -14.100013856728738 a48.38968729821973,48.38968729821973 0 0,0 0.43373758759575776,-0.708477752692486 l 23.23607402714915 14.501028725545767" fill="red" stroke="none" /><path d="M 82.37810715431573 88.57770195909679 l -9.770470760708331 -6.333101103612308 a32.64346462503459,32.64346462503459 0 0,0 0.3088313642833372,-0.46761004761606967 l 9.660314957504264 6.499891029567439" fill="red" stroke="none" /><path d="M 82.78059297857968 87.97951657250589 l -10.389778176230475 -7.252872077845637 a33.67089751867909,33.67089751867909 0 0,0 0.3349210528855563,-0.47110840419608674 l 10.263742024814947 7.430157708751244" fill="red" stroke="none" /><path d="M 83.2033758604659 87.39550010848427 l -11.428707527244663 -8.57631519230483 a35.2887556498478,35.2887556498478 0 0,0 0.36775592359982034,-0.48140430911590393 l 11.279799626290535 8.77124041466162" fill="red" stroke="none" /><path d="M 83.64595745247003 86.82634096563983 l -12.058032735994523 -9.713097628765587 a36.48355317775113,36.48355317775113 0 0,0 0.39706819639293395,-0.4843586372137484 l 11.889517720362958 9.918658547677827" fill="red" stroke="none" /><path d="M 84.34580500576568 86.00192230759919 l -9.015638028410788 -8.061839118187782 a33.09441933400978,33.09441933400978 0 0,0 0.3823229628444847,-0.42023990929136057 l 8.875917364724437 8.2154166030368" fill="red" stroke="none" /><path d="M 85.08716467003674 85.21462403516908 l -16.535213153794878 -16.393887394857817 a44.28460474126003,44.28460474126003 0 0,0 0.5398674584577581,-0.5352532344025649 l 16.251353775207143 16.675320639489055" fill="red" stroke="none" /><path d="M 85.86807049272753 84.46653392183569 l -15.810136872613556 -17.378109951333645 a44.49381053408357,44.49381053408357 0 0,0 0.5693829990667634,-0.5091457887553003 l 15.509488846723402 17.646951269972345" fill="red" stroke="none" /><line stroke="#e1ed5e" stroke-width="0.3" x1="56.869717070023135" x2="54.33264160355391" y1="26.7553504044142" y2="22.446841604673864" /><path d="M 56.362301976729285 25.89364864446614 a86.0,86.0 0 0,1 42.16139366436587,-11.88097634709845" fill="none" id="id72" stroke="none" /><text fill="#e1ed5e" style="font-size:6.75px; font-family:Arial;" text-anchor="middle"><textPath startOffset="22.145653131862474" xlink:href="#id72">December</textPath></text><path d="M 90.28995756902619 81.37971332152246 l -6.584306237300503 -12.626275383343241 a35.23994096485564,35.23994096485564 0 0,0 0.5387897977255021,-0.2751099097479449 l 6.366589217861418 12.73744324476402" fill="red" stroke="none" /><path d="M 91.26138138417902 80.90454125486306 l -13.677417274536515 -29.887625125678785 a53.86855456138733,53.86855456138733 0 0,0 0.84416282446159,-0.3775832940640258 l 13.162341047219305 30.118012170652655" fill="red" stroke="none" /><path d="M 91.5904679813234 80.7573450057729 l -9.633455975790138 -22.043232528577388 a45.056341665897975,45.056341665897975 0 0,0 0.711385835121373,-0.30364831139675275 l 9.253635065498335 22.205355489633543" fill="red" stroke="none" /><path d="M 93.95794788825049 79.88797359093562 l -3.5693864536932502 -11.8813266243162 a33.405903514435934,33.405903514435934 0 0,0 0.5506247156603575,-0.16027882983814326 l 3.3649017256512685 11.940849148456863" fill="red" stroke="none" /><path d="M 94.6519064749342 79.69241777938228 l -3.649589142923794 -13.858084426540904 a35.33059680841251,35.33059680841251 0 0,0 0.5878249291451276,-0.14942279831718827 l 3.411158920553288 13.918692456693355" fill="red" stroke="none" /><path d="M 95.35216902796891 79.52079915486377 l -5.160674382117208 -22.73888353593523 a44.31714786458814,44.31714786458814 0 0,0 0.743341193626463,-0.1620077533922389 l 4.769570771871627 22.824122747461182" fill="red" stroke="none" /><path d="M 95.70440661134978 79.44403061299748 l -0.5956376538653759 -2.85034179700375 a23.911912185222764,23.911912185222764 0 0,0 0.4025211902452814,-0.08051551131246022 l 0.5466199780891178 2.860146704979076" fill="red" stroke="none" /><path d="M 96.05791012581881 79.37332000966035 l -11.826269622543562 -61.88003997101895 a84.0,84.0 0 0,0 1.4186610657958458,-0.25852730427455484 l 10.762273823196677 62.07393544922487" fill="red" stroke="none" /><path d="M 97.12497278360702 79.19773525538626 l -8.360497463840794 -60.49239487119881 a82.06740337607232,82.06740337607232 0 0,0 1.39718651460858,-0.18089376696460605 l 7.32083312734142 60.62700023436381" fill="red" stroke="none" /><path d="M 97.84075906011542 79.11130261209362 l -4.879569829859556 -47.205411714981025 a68.45693939673463,68.45693939673463 0 0,0 1.1699631161339803,-0.11079672350395423 l 4.06850715034056 47.28222019399016" fill="red" stroke="none" /></svg>