<?xml version="1.0" encoding="utf-8" ?>
<svg baseProfile="full" height="200mm" version="1.1" viewBox="0,0,200,200" width="200mm" xmlns="http://www.w3.org/2000/svg" xmlns:ev="http://www.w3.org/2001/xml-events" xmlns:xlink="http://www.w3.org/1999/xlink"><defs /><rect fill="#1a1a1a" height="200" width="200" x="0" y="0" /><text alignment-baseline="middle" fill="#e1ed5e" style="dominant-baseline: central; font-size:9.0px; font-family:Arial;" text-anchor="middle" x="100.0" y="100.0">2024</text><line stroke="#e1ed5e" stroke-width="0.3" x1="100.0" x2="100.0" y1="15.0" y2="10.0" /><path d="M 100.0 14.0 a86.0,86.0 0 0,1 42.35913384403234,11.155469271406648" fill="none" id="id61" stroke="none" /><text fill="#e1ed5e" style="font-size:6.75px; font-family:Arial;" text-anchor="middle"><textPath startOffset="22.145653131862478" xlink:href="#id61">January</textPath></text><line stroke="#e1ed5e" stroke-width="0.3" x1="143.13028292997686" x2="145.6673583964461" y1="26.7553504044142" y2="22.446841604673864" /><path d="M 143.63769802327073 25.89364864446614 a86.0,86.0 0 0,1 29.32050498858742,28.57503671076993" fill="none" id="id62" stroke="none" /><text fill="#e1ed5e" style="font-size:6.75px; font-family:Arial;" text-anchor="middle"><textPath startOffset="20.669276256404974" xlink:href="#id62">February</textPath></text><line stroke="#e1ed5e" stroke-width="0.3" x1="172.87174338648825" x2="177.1583165268699" y1="56.24261187166439" y2="53.66864786411523" /><path d="M 173.72905801456457 55.72781907015455 a86.0,86.0 0 0,1 12.242430191666344,42.057860355516425" fill="none" id="id63" stroke="none" /><text fill="#e1ed5e" style="font-size:6.75px; font-family:Arial;" text-anchor="middle"><textPath startOffset="22.145653131862474" xlink:href="#id63">March</textPath></text><line stroke="#e1ed5e" stroke-width="0.3" x1="184.99686870605535" x2="189.99668451229388" y1="99.2704041080226" y2="99.22748670261217" /><path d="M 185.99683186730306 99.26182062694052 a86.0,86.0 0 0,1 -10.086455211305974,41.156179273409016" fill="none" id="id64" stroke="none" /><text fill="#e1ed5e" style="font-size:6.75px; font-family:Arial;" text-anchor="middle"><textPath startOffset="21.40746469413373" xlink:href="#id64">April</textPath></text><path d="M 119.71291397450082 107.23885506374661 l 9.62931137853692 3.536016518059192 a31.258023710286892,31.258023710286892 0 0,0 -0.18928864288329456,0.5021106140915635 l -9.567192051839186 -3.7007954123449145" fill="red" stroke="none" /><line stroke="#e1ed5e" stroke-width="0.3" x1="174.33088141563837" x2="178.70328620479359" y1="141.23008692659167" y2="143.65538615756765" /><path d="M 175.20536237346943 141.71514677278685 a86.0,86.0 0 0,1 -30.301960400862466,31.631185727798858" fill="none" id="id65" stroke="none" /><text fill="#e1ed5e" style="font-size:6.75px; font-family:Arial;" text-anchor="middle"><textPath startOffset="22.145653131862474" xlink:href="#id65">May</textPath></text><path d="M 117.01052211995028 112.31430620078461 l 14.099800287874974 10.207168062829037 a38.40662655487261,38.40662655487261 0 0,0 -0.3911952311754938,0.5307314623090679 l -13.922503037115654 -10.447705834406984" fill="red" stroke="none" /><path d="M 116.79662413953412 112.60449989151573 l 8.210217991365013 6.1611006427123165 a31.26483514701351,31.26483514701351 0 0,0 -0.32582130239369295,0.4265105438376644 l -8.103244711617016 -6.301132099790858" fill="red" stroke="none" /><path d="M 114.91283532996324 114.78537596483092 l 9.727286890759506 9.644148186138722 a34.69779925722904,34.69779925722904 0 0,0 -0.42299604588376855,0.4193807167884678 l -9.560298924745773 -9.80970891315585" fill="red" stroke="none" /><line stroke="#e1ed5e" stroke-width="0.3" x1="143.1302829299769" x2="145.66735839644613" y1="173.24464959558577" y2="177.55315839532614" /><path d="M 143.63769802327073 174.10635135553383 a86.0,86.0 0 0,1 -40.68552437913181,11.842963189579606" fill="none" id="id66" stroke="none" /><text fill="#e1ed5e" style="font-size:6.75px; font-family:Arial;" text-anchor="middle"><textPath startOffset="21.407464694133747" xlink:href="#id66">June</textPath></text><path d="M 108.73861861582097 119.09545874513695 l 2.8627511075004217 6.255627814206165 a27.879551093884302,27.879551093884302 0 0,0 -0.4368945999713842,0.19541739749223572 l -2.7549431046734107 -6.303848962608251" fill="red" stroke="none" /><path d="M 103.94208987418118 120.62667999033965 l 1.5938161976506495 8.339519828727518 a29.49045587972949,29.49045587972949 0 0,0 -0.4980590662992882,0.0907629531001653 l -1.4504223978003041 -8.365650955759047" fill="red" stroke="none" /><path d="M 103.58742460773223 120.69131181640829 l 4.854522457780079 27.999595497333928 a49.4173140234508,49.4173140234508 0 0,0 -0.8370881112777308,0.13774253016136107 l -4.3731568434492765 -28.078804025990962" fill="red" stroke="none" /><line stroke="#e1ed5e" stroke-width="0.3" x1="101.45913802915013" x2="101.54496967792366" y1="184.9874750549273" y2="189.98673829345242" /><path d="M 101.47630435890484 185.9873277026323 a86.0,86.0 0 0,1 -42.54439059252881,-10.42667462771756" fill="none" id="id67" stroke="none" /><text fill="#e1ed5e" style="font-size:6.75px; font-family:Arial;" text-anchor="middle"><textPath startOffset="22.145653131862474" xlink:href="#id67">July</textPath></text><path d="M 99.63950707515114 120.99690560180557 l -0.12347530161378677 7.191817296348318 a28.192877183308738,28.192877183308738 0 0,0 -0.48382559880491316,-0.01246163117766049 l 0.24691421448944384 -7.18863794782061" fill="red" stroke="none" /><path d="M 97.12497278360702 120.80226474461374 l -2.178382957621184 15.761693921090378 a36.91151619337993,36.91151619337993 0 0,0 -0.6269243400063816,-0.09213628865561416 l 2.4486324032352504 -15.721976559135882" fill="red" stroke="none" /><path d="M 96.41257539226777 120.69131181640829 l -1.8216095176545313 10.506559623939664 a31.66330419552067,31.66330419552067 0 0,0 -0.5347559151980128,-0.09745034140586394 l 2.001700166403601 -10.473741108602432" fill="red" stroke="none" /><path d="M 95.35216902796893 120.47920084513623 l -3.0301617728491155 13.351451873542059 a34.69098782050243,34.69098782050243 0 0,0 -0.5796167705340699,-0.13678797963139785 l 3.2589106971230732 -13.297467750264433" fill="red" stroke="none" /><path d="M 95.00130118170881 120.39639698878247 l -3.2913376692337497 13.42978086220736 a34.82721655503479,34.82721655503479 0 0,0 -0.5794497674296484,-0.1472938649599288 l 3.5213927298887766 -13.371301765412168" fill="red" stroke="none" /><path d="M 94.6519064749342 120.30758222061772 l -4.354037316266418 16.532988882356914 a38.096706183811484,38.096706183811484 0 0,0 -0.6309877606598022,-0.1719785200457684 l 4.637206477860915 -16.455809868167005" fill="red" stroke="none" /><path d="M 93.95794788825049 120.11202640906438 l -3.008238592152412 10.013447896697697 a31.455555375358816,31.455555375358816 0 0,0 -0.5158102448442783,-0.15979933237524674 l 3.179689469868324 -9.9603319765158" fill="red" stroke="none" /><path d="M 92.59220618246901 119.65005319985036 l -6.475407255232974 17.176787069167464 a39.35682197823584,39.35682197823584 0 0,0 -0.6301359623422486,-0.24375012709621796 l 6.769315480068752 -17.063097053933205" fill="red" stroke="none" /><path d="M 91.92203290615298 119.3841803445677 l -7.978271452219126 19.14494709758474 a41.74082483255218,41.74082483255218 0 0,0 -0.6590377832347316,-0.28130404085392385 l 8.305744310624288 -19.005168407071412" fill="red" stroke="none" /><path d="M 91.26138138417905 119.09545874513695 l -14.228723326388215 31.0923283438762 a55.19341236762297,55.19341236762297 0 0,0 -0.8581558122844662,-0.401660250976288 l 14.76036785254417 -30.843491861329387" fill="red" stroke="none" /><path d="M 90.6110303473126 118.78422872680471 l -5.131416572802341 10.26627054529311 a32.47727088435153,32.47727088435153 0 0,0 -0.4965508378094918,-0.2535423958503249 l 5.306894632325415 -10.176670197769953" fill="red" stroke="none" /><path d="M 90.28995756902619 118.62028667847754 l -7.920973293945649 15.189510710618059 a38.13076336744457,38.13076336744457 0 0,0 -0.5777921602912821,-0.307641781082256 l 8.180554270023492 -15.05129846181323" fill="red" stroke="none" /><path d="M 89.97174638481275 118.45085714620012 l -8.245608379526663 15.170990696102006 a38.26699210197694,38.26699210197694 0 0,0 -0.5744710315206092,-0.3186493973340688 l 8.504823599203375 -15.02720838333479" fill="red" stroke="none" /><line stroke="#e1ed5e" stroke-width="0.3" x1="58.13341422392154" x2="55.670673884152215" y1="173.97424548756322" y2="178.32567169271397" /><path d="M 57.64086615596767 174.84453072859336 a86.0,86.0 0 0,1 -31.369924170532244,-30.572349798747897" fill="none" id="id68" stroke="none" /><text fill="#e1ed5e" style="font-size:6.75px; font-family:Arial;" text-anchor="middle"><textPath startOffset="22.145653131862474" xlink:href="#id68">August</textPath></text><path d="M 89.34428304082925 118.09573695890944 l -2.713137254650115 4.607500206854869 a26.346977830395225,26.346977830395225 0 0,0 -0.38776132433727756,-0.23283953397675664 l 2.7918313355448197 -4.560246672342195" fill="red" stroke="none" /><path d="M 89.03521579738668 117.91015095944536 l -4.143291090330846 6.7677546156416 a28.93532378651011,28.93532378651011 0 0,0 -0.421402855190432,-0.26298654845924113 l 4.258858074310991 -6.695632270340811" fill="red" stroke="none" /><path d="M 88.72937992617639 117.7192867562869 l -9.194015499478233 14.454519450564067 a38.13076336744457,38.13076336744457 0 0,0 -0.5492906557933326,-0.3560435667438129 l 9.440791787528578 -14.29456204211636" fill="red" stroke="none" /><path d="M 88.4268655584334 117.5232005979908 l -9.947553970954568 15.06186457718026 a39.05030732553802,39.05030732553802 0 0,0 -0.5561948510486288,-0.37423271797305313 l 10.2046451101002 -14.888882185150088" fill="red" stroke="none" /><path d="M 88.1277618465304 117.32195027204791 l -9.665531783528868 14.102299730085555 a38.096706183811484,38.096706183811484 0 0,0 -0.5362653980021639,-0.3743548962751571 l 9.906192272704798 -13.934300018005269" fill="red" stroke="none" /><path d="M 87.83215693770417 117.11559508785305 l -10.08379332938676 14.184118145818116 a38.403220836509306,38.403220836509306 0 0,0 -0.5340223689077794,-0.38659101245847094 l 10.325796708668493 -14.00892636198658" fill="red" stroke="none" /><path d="M 87.54013794807813 116.9041958592261 l -9.699378513034985 13.159069772511856 a37.3474481438835,37.3474481438835 0 0,0 -0.5128107163856644,-0.3848227218371558 l 9.923842218331414 -12.990628023410686" fill="red" stroke="none" /><path d="M 84.3458050057657 113.99807769240083 l -7.692416735461627 6.878606478645254 a31.319326640826453,31.319326640826453 0 0,0 -0.3549358678468379,-0.4038518629311076 l 7.809363667267058 -6.745542337902846" fill="red" stroke="none" /><path d="M 84.1078160697243 113.72728997021213 l -12.940863027507557 11.17800926686805 a38.100111902174795,38.100111902174795 0 0,0 -0.42328396370308385,-0.49862744490984423 l 13.130841554717755 -10.954215039508652" fill="red" stroke="none" /><path d="M 83.8745106332314 113.45245675266167 l -8.086150584980542 6.745754411902162 a31.530481179351618,31.530481179351618 0 0,0 -0.3431615125941585,-0.41860124808341764 l 8.20075891681333 -6.605950882120249" fill="red" stroke="none" /><path d="M 83.64595745247003 113.17365903436017 l -13.340820618231254 10.746420742905835 a38.13076336744457,38.13076336744457 0 0,0 -0.406244370979069,-0.5132764917754893 l 13.523331419851882 -10.515824307215665" fill="red" stroke="none" /><path d="M 83.20337586046588 112.60449989151573 l -13.674616561596672 10.261687201863243 a38.096706183811484,38.096706183811484 0 0,0 -0.3880385006297888,-0.5264487510561595 l 13.848757081810287 -10.025432141538204" fill="red" stroke="none" /><path d="M 82.78059297857968 112.02048342749411 l -3.323185539561503 2.3198415982092393 a25.052804852337783,25.052804852337783 0 0,0 -0.243143750022346,-0.3547539977216065 l 3.362519026399174 -2.2624528654175817" fill="red" stroke="none" /><path d="M 82.576782715395 111.72311816256416 l -14.184744128171305 9.544128894450639 a38.096706183811484,38.096706183811484 0 0,0 -0.36042307030195087,-0.5457264661473955 l 14.346491637393981 -9.299222549964185" fill="red" stroke="none" /><path d="M 82.18462484594161 111.11811171558189 l -28.9502374343045 18.067089309309058 a55.12529800035679,55.12529800035679 0 0,0 -0.4941117644099795,-0.8070944332229947 l 29.256117163169886 -17.567457759961506" fill="red" stroke="none" /><line stroke="#e1ed5e" stroke-width="0.3" x1="26.387840678322732" x2="22.057713659400548" y1="142.50000000000003" y2="145.00000000000006" /><path d="M 25.521815274538298 143.00000000000003 a86.0,86.0 0 0,1 -11.493303480769221,-40.785679425670985" fill="none" id="id69" stroke="none" /><text fill="#e1ed5e" style="font-size:6.75px; font-family:Arial;" text-anchor="middle"><textPath startOffset="21.40746469413373" xlink:href="#id69">September</textPath></text><path d="M 81.81346652052679 110.50000000000001 l -8.907304634697635 5.142634728596687 a31.285269457193365,31.285269457193365 0 0,0 -0.2645342867577751,-0.46740673751519757 l 8.99427228647679 -4.988971220982368" fill="red" stroke="none" /><path d="M 81.29705330413844 109.54985784667822 l -15.80291469250234 8.069080842216884 a38.74379267284021,38.74379267284021 0 0,0 -0.2973679935959454,-0.5949351861136729 l 15.939102599310022 -7.796613799939458" fill="red" stroke="none" /><path d="M 81.1358732173502 109.22738970284198 l -15.419016717950578 7.5422137335306845 a38.16482055107767,38.16482055107767 0 0,0 -0.2828208425707385,-0.5909867859113935 l 15.546216818481229 -7.276414445554188" fill="red" stroke="none" /><path d="M 80.83023694016515 108.57439118712176 l -12.062516123993962 5.395410033251561 a34.21418724963915,34.21418724963915 0 0,0 -0.23520806634166452,-0.538202085730825 l 12.153358072352596 -5.187545877744887" fill="red" stroke="none" /><path d="M 80.5471966667186 107.91128576633889 l -16.59424036798951 6.748733094004737 a38.91407859100566,38.91407859100566 0 0,0 -0.24634710335050772,-0.6209556262817797 l 16.707646146306143 -6.462876450509392" fill="red" stroke="none" /><path d="M 80.28708602549918 107.23885506374661 l -16.17673159873732 5.940319914136622 a38.232934918343844,38.232934918343844 0 0,0 -0.22094964192434258,-0.6180354723686182 l 16.276321410705602 -5.661749485387083" fill="red" stroke="none" /><path d="M 80.16572619554312 106.89939002012753 l -16.17982148139312 5.628181800691112 a38.13076336744457,38.13076336744457 0 0,0 -0.20974566931019903,-0.6200758019525857 l 16.274052572275686 -5.349604324264365" fill="red" stroke="none" /><path d="M 79.94057633289273 106.21446072829308 l -20.03957927853599 6.208312885987154 a41.979225117983816,41.979225117983816 0 0,0 -0.20734474822063548,-0.6901832316018851 l 20.143200346760253 -5.863392050794546" fill="red" stroke="none" /><path d="M 79.64726062577567 105.17358676015961 l -17.140781948127174 4.357119742707519 a38.68589546066396,38.68589546066396 0 0,0 -0.15808249421007933,-0.645030522160545 l 17.213051968853545 -4.062233395938875" fill="red" stroke="none" /><path d="M 79.56144815229197 104.8234425847677 l -16.63630037197688 3.926121589489161 a38.09330046544818,38.09330046544818 0 0,0 -0.1447348392649074,-0.6377284071712424 l 16.701246072799456 -3.639958848378892" fill="red" stroke="none" /><path d="M 79.407916724674 104.11899336999214 l -13.38497101368882 2.677369070713822 a34.65011920014272,34.65011920014272 0 0,0 -0.11166200186375626,-0.5842627776219255 l 13.428959307834733 -2.447203728058582" fill="red" stroke="none" /><path d="M 79.2786578344484 103.40968896794605 l -34.176554033126266 5.623738960446846 a55.63615575485315,55.63615575485315 0 0,0 -0.14698147164010442,-0.9437264853229173 l 34.26805699690464 -5.036224293192479" fill="red" stroke="none" /><path d="M 79.17382384314188 102.69636545807758 l -14.300454071153132 1.8514800845754178 a35.419811550250564,35.419811550250564 0 0,0 -0.0728938266798943,-0.603665453143633 l 14.330129984092688 -1.6057209545083857" fill="red" stroke="none" /><path d="M 79.0935383218832 101.97986365728391 l -18.281838012423705 1.73130906733184 a39.36363341496246,39.36363341496246 0 0,0 -0.0579327288719356,-0.6732661248321242 l 18.30886436399338 -1.417221895124054" fill="red" stroke="none" /><path d="M 79.06263194458094 101.62068470465958 l -34.016729079837845 2.6331099676099354 a55.11848656363017,55.11848656363017 0 0,0 -0.06492442972193996,-0.9439869592033363 l 34.056917470724855 -2.0487795842522556" fill="red" stroke="none" /><path d="M 79.01933749520258 100.90099992219065 l -17.0503397303871 0.7322149511194018 a38.06605471854171,38.06605471854171 0 0,0 -0.02243234961605046,-0.6530933832309525 l 17.060396767 -0.4394153033243295" fill="red" stroke="none" /><path d="M 79.00696218219943 100.54070618675478 l -17.10806101659848 0.4406429653172531 a38.11373477562803,38.11373477562803 0 0,0 -0.011231878794727397,-0.6542006306577477 l 17.113104326991873 -0.14689541869045306" fill="red" stroke="none" /><line stroke="#e1ed5e" stroke-width="0.3" x1="15.003131293944662" x2="10.003315487706104" y1="100.72959589197737" y2="100.7725132973878" /><path d="M 14.003168132696942 100.73817937305945 a86.0,86.0 0 0,1 10.791469493833615,-42.45332614584628" fill="none" id="id70" stroke="none" /><text fill="#e1ed5e" style="font-size:6.75px; font-family:Arial;" text-anchor="middle"><textPath startOffset="22.145653131862435" xlink:href="#id70">October</textPath></text><path d="M 79.00696218219943 99.45929381324524 l -20.621597129858106 -0.5311391922241918 a41.62843612656298,41.62843612656298 0 0,0 0.024531663185611178,-0.7142126072567876 l 20.609440779675644 0.885058064045118" fill="red" stroke="none" /><path d="M 79.01933749520258 99.09900007780938 l -49.95671281611323 -2.1453561988295236 a71.00275701010364,71.00275701010364 0 0,0 0.0627475387766134,-1.2172854891265097 l 49.912523687880054 3.002613481332745" fill="red" stroke="none" /><path d="M 79.13060592940154 97.66154086499901 l -20.469680241802685 -2.2936703667611624 a41.597784661293204,41.597784661293204 0 0,0 0.08560806996574581,-0.708957626488292 l 20.427290085577273 2.644721670172891" fill="red" stroke="none" /><path d="M 79.17382384314186 97.30363454192245 l -17.110557469169056 -2.215304229678549 a38.2533692285237,38.2533692285237 0 0,0 0.08990540626980581,-0.6505107334402666 l 17.07000754634404 2.508703271318882" fill="red" stroke="none" /><path d="M 79.34024301695615 96.23510406497455 l -16.792900212292338 -3.0602258196181613 a38.06946043690502,38.06946043690502 0 0,0 0.12268102564681012,-0.6419189662511324 l 16.737892894363366 3.348047350902608" fill="red" stroke="none" /><path d="M 79.407916724674 95.88100663000787 l -33.43905058883886 -6.688746632998366 a55.10145797181363,55.10145797181363 0 0,0 0.19349084036935615,-0.9259237156400704 l 33.31930203764514 7.261786799923845" fill="red" stroke="none" /><path d="M 79.73907114497095 94.47779374421319 l -16.53115146845675 -4.505638843493205 a38.13416908580788,38.13416908580788 0 0,0 0.17756269317586437,-0.6301073572056196 l 16.451370283206302 4.788754124601837" fill="red" stroke="none" /><path d="M 79.83685265289637 94.1308016681162 l -20.64678035542926 -6.009976852064401 a42.50370574593341,42.50370574593341 0 0,0 0.2099352749262421,-0.6988062524817003 l 20.540568760499387 6.363520708136825" fill="red" stroke="none" /><path d="M 79.94057633289273 93.78553927170692 l -32.69119028733898 -10.12781431676702 a55.22406383289275,55.22406383289275 0 0,0 0.28830980639305803,-0.9031263621723156 l 32.51251576516867 10.687509712630726" fill="red" stroke="none" /><path d="M 80.05021161711548 93.44210830539832 l -16.665535745485503 -5.478292619142289 a38.54285528940497,38.54285528940497 0 0,0 0.21201246095966036,-0.626777168681738 l 16.569037862953472 5.763571462298189" fill="red" stroke="none" /><path d="M 80.28708602549916 92.7611449362534 l -19.21386500166232 -7.055597368371755 a41.46836736348746,41.46836736348746 0 0,0 0.25111923433078387,-0.6661236038222008 l 19.0899150835171 7.384389252388101" fill="red" stroke="none" /><path d="M 80.5471966667186 92.08871423366112 l -17.212580883602815 -7.000206798648237 a39.58159939021424,39.58159939021424 0 0,0 0.261378327015876,-0.6272128333991807 l 17.08987671205046 7.294652141488681" fill="red" stroke="none" /><path d="M 80.9802524753101 91.09779779509293 l -17.637553128586436 -8.255265436444207 a40.473897601401205,40.473897601401205 0 0,0 0.29993228466594657,-0.6267431186987393 l 17.493241585960586 8.556821057208033" fill="red" stroke="none" /><path d="M 81.29705330413844 90.45014215332179 l -19.873454331146895 -10.147527385452012 a43.314266716400965,43.314266716400965 0 0,0 0.34381613142339834,-0.659312765860565 l 19.696330130748557 10.487186394417064" fill="red" stroke="none" /><path d="M 81.46374523516351 90.13048839642627 l -15.653051128023161 -8.334368064061303 a38.73357551775028,38.73357551775028 0 0,0 0.3175316738764669,-0.5842225155949148 l 15.507674104531347 8.601845413130837" fill="red" stroke="none" /><line stroke="#e1ed5e" stroke-width="0.3" x1="26.387840678322718" x2="22.05771365940052" y1="57.49999999999999" y2="54.99999999999999" /><path d="M 25.521815274538284 56.99999999999999 a86.0,86.0 0 0,1 29.574782752854787,-30.34633250058573" fill="none" id="id71" stroke="none" /><text fill="#e1ed5e" style="font-size:6.75px; font-family:Arial;" text-anchor="middle"><textPath startOffset="21.40746469413373" xlink:href="#id71">November</textPath></text><path d="M 81.99639281039701 89.18935116829357 l -34.40367550235838 -20.658418641280043 a61.12957947487067,61.12957947487067 0 0,0 0.5479307226924091,-0.8950036569256105 l 34.04397681521058 21.245959414330194" fill="red" stroke="none" /><path d="M 82.37810715431573 88.57770195909679 l -35.24264254462453 -22.84385510789806 a62.99863771265467,62.99863771265467 0 0,0 0.596013794990073,-0.9024408505330569 l 34.84530431071373 23.44547583677018" fill="red" stroke="none" /><path d="M 82.576782715395 88.27688183743585 l -3.54590346741876 -2.3858421015231275 a25.27383597411654,25.27383597411654 0 0,0 0.24528891245577586,-0.35788385382093585 l 3.5044248181476707 2.4463606904140978" fill="red" stroke="none" /><path d="M 82.78059297857968 87.97951657250589 l -37.676825499245304 -26.30135032820136 a66.94893044225685,66.94893044225685 0 0,0 0.6659343209025981,-0.9367200195893014 l 37.21977607981273 26.944247574500178" fill="red" stroke="none" /><path d="M 82.98947788004972 87.6856937992154 l -6.86396264845661 -4.968979623777129 a29.473767859749273,29.473767859749273 0 0,0 0.30020854383122486,-0.40729054642730456 l 6.7776520850415665 5.086076479473297" fill="red" stroke="none" /><path d="M 83.2033758604659 87.39550010848427 l -50.389872418602316 -37.8134996745472 a84.0,84.0 0 0,0 0.875392090582773,-1.1459163470364628 l 49.73332835066524 38.672936934824556" fill="red" stroke="none" /><path d="M 83.64595745247003 86.82634096563983 l -34.86383439893637 -28.08383711043681 a65.76816788569761,65.76816788569761 0 0,0 0.7157868553868563,-0.8731435782572833 l 34.37660072431088 28.678182970392587" fill="red" stroke="none" /><path d="M 84.34580500576568 86.00192230759919 l -13.209123522972565 -11.811679705739685 a38.719952644297045,38.719952644297045 0 0,0 0.44731188260954946,-0.49167411649623044 l 13.00441393952115 12.036691397793577" fill="red" stroke="none" /><path d="M 85.08716467003674 85.21462403516908 l -24.226313472088016 -24.019252207993926 a55.11508084526687,55.11508084526687 0 0,0 0.6719002866227501,-0.6661575836376892 l 23.810421265335286 24.431589801860287" fill="red" stroke="none" /><path d="M 85.86807049272753 84.46653392183569 l -23.163979100242127 -25.46127076304418 a55.42159549796468,55.42159549796468 0 0,0 0.7092248085500172,-0.634193197102614 l 22.723489264868718 25.855159490030193" fill="red" stroke="none" /><line stroke="#e1ed5e" stroke-width="0.3" x1="56.869717070023135" x2="54.33264160355391" y1="26.7553504044142" y2="22.446841604673864" /><path d="M 56.362301976729285 25.89364864446614 a86.0,86.0 0 0,1 42.16139366436587,-11.88097634709845" fill="none" id="id72" stroke="none" /><text fill="#e1ed5e" style="font-size:6.75px; font-family:Arial;" text-anchor="middle"><textPath startOffset="22.145653131862474" xlink:href="#id72">December</textPath></text><path d="M 90.28995756902619 81.37971332152246 l -9.646895109087692 -18.4991933624744 a41.86343069363131,41.86343069363131 0 0,0 0.6400575238764332,-0.32681793228172723 l 9.327910363497677 18.66206924642896" fill="red" stroke="none" /></svg>