<?xml version="1.0" encoding="utf-8" ?>
<svg baseProfile="full" height="200mm" version="1.1" viewBox="0,0,200,200" width="200mm" xmlns="http://www.w3.org/2000/svg" xmlns:ev="http://www.w3.org/2001/xml-events" xmlns:xlink="http://www.w3.org/1999/xlink"><defs /><rect fill="#1a1a1a" height="200" width="200" x="0" y="0" /><rect fill="#1a1a1a" height="200" width="180" x="10" y="0" /><text alignment-baseline="middle" fill="#e1ed5e" style="dominant-baseline: central; font-size:9.0px; font-family:Arial;" text-anchor="middle" x="100.0" y="100.0">2026</text><line stroke="#e1ed5e" stroke-width="0.3" x1="100.0" x2="100.0" y1="15.0" y2="10.0" /><path d="M 100.0 14.0 a86.0,86.0 0 0,1 42.46469731375804,11.215312516191453" fill="none" id="id85" stroke="none" /><text fill="#e1ed5e" style="font-size:6.75px; font-family:Arial;" text-anchor="middle"><textPath startOffset="22.20632615414155" xlink:href="#id85">January</textPath></text><path d="M 100.0 79.0 l 0.0 -3.791567242250771 a24.79156724225077,24.79156724225077 0 0,0 0.42674607660218683,0.0036731382098596837 l -0.06526559732965845 3.79100548064947" fill="#ff0601" stroke="none" /><path d="M 100.36148047927253 79.00311137660856 l 0.3829254968326057 -22.24253996849808 a43.24583592914321,43.24583592914321 0 0,0 0.7441853925488173,0.01922011312876691 l -0.7657375245762907 22.23265306322695" fill="#f8ff18" stroke="none" /><path d="M 101.80526077348638 79.07773832637324 l 1.7952236483602013 -20.805935344807686 a41.883241451459334,41.883241451459334 0 0,0 0.717748866399645,0.0681589033591876 l -2.1530976418500902 20.77195089693332" fill="#fff517" stroke="none" /><path d="M 102.16513564639614 79.11191278185805 l 1.5789382706900668 -15.232763991084438 a36.314377064403516,36.314377064403516 0 0,0 0.6212063515636429,0.06979977169113 l -1.8409113257634349 15.203328265922707" fill="#ffab0f" stroke="none" /><path d="M 102.52436894288641 79.15227682838746 l 1.7874999720178804 -14.762225898439453 a35.87005277820225,35.87005277820225 0 0,0 0.6123278861253202,0.07949773354706903 l -2.0413425866510466 14.729269841728248" fill="#ffa50f" stroke="none" /><path d="M 102.88285421437855 79.19881850522331 l 5.205016954010636 -37.55670397890868 a58.915672422507726,58.915672422507726 0 0,0 1.003336761771084,0.14786575743007835 l -5.850722696210376 37.461543737317626" fill="#45ff2d" stroke="none" /><path d="M 103.2404852339499 79.25152402106235 l 1.736933300437455 -11.121395797016168 a32.25621525043198,32.25621525043198 0 0,0 0.5478499952536616,0.09039994337675203 l -1.9281125018299918 11.089849590699792" fill="#ff730a" stroke="none" /><path d="M 103.95276090670814 79.375362276772 l 2.8546969086331435 -14.895181099939217 a36.16626896900309,36.16626896900309 0 0,0 0.6104066936600692,0.12244184034017816 l -3.110670011760338 14.843835303521832" fill="#ffa90f" stroke="none" /><path d="M 104.66035177308747 79.52364482259891 l 4.062530855761137 -17.849687914568257 a39.30616059149202,39.30616059149202 0 0,0 0.658427440596858,0.15582850225186679 l -4.3691819833205185 17.77711350017552" fill="#ffd313" stroke="none" /><path d="M 105.36241919743992 79.69619591428918 l 11.64852617971505 -44.10498037026272 a66.61729338332961,66.61729338332961 0 0,0 1.1061709912843027,0.3023583177692765 l -12.405995060223063 43.89793551166716" fill="#37ff74" stroke="none" /><path d="M 107.08798089147638 80.2323363322302 l 3.2993316716521646 -9.201503194241223 a30.775134296427773,30.775134296427773 0 0,0 0.4971175942890879,0.183092605324628 l -3.4572315917138288 9.14334732111027" fill="#ff5e08" stroke="none" /><path d="M 107.4271985657038 80.35727306442388 l 5.76205265285638 -15.238912201850448 a37.291890494046285,37.291890494046285 0 0,0 0.5984759478801183,0.2321993698957768 l -6.023511765736166 15.137470128064123" fill="#ffb911" stroke="none" /><path d="M 108.09893153111575 80.62456947434976 l 7.608367025575336 -18.20183145780644 a40.72799830733605,40.72799830733605 0 0,0 0.644503588105539,0.2759428011570681 l -7.92055437147119 18.068169128686577" fill="#ffe615" stroke="none" /><path d="M 109.08828744355905 81.06846463323043 l 20.049719504509817 -41.764961358307715 a67.32821224125163,67.32821224125163 0 0,0 1.040473305386006,0.51055573222696 l -20.765664076906255 41.41365046594592" fill="#37ff7c" stroke="none" /><path d="M 109.41281617654863 81.2277094730956 l 8.324853821112672 -16.60253122899494 a39.57275516321277,39.57275516321277 0 0,0 0.606291378618173,0.3105659926131334 l -8.609405687319601 16.45677271106931" fill="#ffd714" stroke="none" /><path d="M 110.36928655335952 81.73862282372117 l 14.664781360714565 -25.82618411185759 a50.699286155346,50.699286155346 0 0,0 0.7551858271936939,0.43745237498290074 l -15.107163920373589 25.569927579484638" fill="#9fff22" stroke="none" /><line stroke="#e1ed5e" stroke-width="0.3" x1="143.23703022742887" x2="145.7803849466894" y1="26.81831364943548" y2="22.513508569990506" /><path d="M 143.74570117128098 25.957352633546492 a86.0,86.0 0 0,1 28.547481713284135,27.462654790039103" fill="none" id="id86" stroke="none" /><text fill="#e1ed5e" style="font-size:6.75px; font-family:Arial;" text-anchor="middle"><textPath startOffset="19.985693538727396" xlink:href="#id86">February</textPath></text><path d="M 110.68208982089419 81.91981866633111 l 12.47039973631209 -21.107020472234286 a45.51565179224754,45.51565179224754 0 0,0 0.6711129702718577,0.40433805545451734 l -12.831874772801587 20.889235807321153" fill="#dcff1b" stroke="none" /><path d="M 111.2981086023043 82.29822771554956 l 9.586731629907923 -15.02040263891224 a38.81903248717278,38.81903248717278 0 0,0 0.5601641367030771,0.3643463364908565 l -9.843862792395282 14.853157378261855" fill="#ffcd13" stroke="none" /><path d="M 115.4437574822437 85.77008943001954 l 7.930400996136324 -7.307088128575627 a31.78354287227954,31.78354287227954 0 0,0 0.3672608953195954,0.4055386534917188 l -8.055005532071956 7.169496687814359" fill="#ff6d0a" stroke="none" /><path d="M 116.82858285166822 87.43820079747576 l 13.016970909004923 -9.716598018104063 a37.2435774597625,37.2435774597625 0 0,0 0.379064045090287,0.5170429315024094 l -13.182297566608838 9.49109264293016" fill="#ffb811" stroke="none" /><path d="M 117.2510076193507 88.02491185347247 l 11.146308657305148 -7.737404772223733 a34.56862665464513,34.56862665464513 0 0,0 0.33511079249130704,0.49173373748109095 l -11.277843915465189 7.544393011472235" fill="#ff940d" stroke="none" /><path d="M 117.45458315368197 88.32363383020206 l 2.806750644062973 -1.8775955850015373 a24.376864575129595,24.376864575129595 0 0,0 0.23030723576809142,0.3507737205460341 l -2.8386545151889893 1.8290038004778293" fill="#ff0000" stroke="none" /><line stroke="#e1ed5e" stroke-width="0.3" x1="172.23445277983987" x2="176.4835382374775" y1="55.19839476539836" y2="52.563006222186495" /><path d="M 173.08426987136738 54.67131705675599 a86.0,86.0 0 0,1 12.851231095245387,41.99856678651699" fill="none" id="id87" stroke="none" /><text fill="#e1ed5e" style="font-size:6.75px; font-family:Arial;" text-anchor="middle"><textPath startOffset="22.20632615414155" xlink:href="#id87">March</textPath></text><path d="M 118.3937258080291 89.86733742301442 l 14.654130400783728 -8.072609120087693 a37.73052766080308,37.73052766080308 0 0,0 0.308477429122551,0.5715618265620067 l -14.790915929124743 7.819166310193228" fill="#ffbe11" stroke="none" /><path d="M 118.73160827565052 90.50648371742162 l 30.2241792324798 -15.318158134029732 a54.88431759525643,54.88431759525643 0 0,0 0.4198388603601442,0.8463695235715318 l -30.48337810579335 14.79562902195925" fill="#70ff27" stroke="none" /><path d="M 119.04729006885535 91.15688171328212 l 29.059501288229274 -13.49150489733079 a53.038653522195645,53.038653522195645 0 0,0 0.37732628321904027,0.8313884485789625 l -29.287429888411662 12.989294439909765" fill="#84ff25" stroke="none" /><path d="M 119.34039704204932 91.81776055985345 l 21.324691683874352 -9.02172447470465 a44.154567322880055,44.154567322880055 0 0,0 0.29011298645146766,0.7025316082478974 l -21.47682635721202 8.65331829600345" fill="#edff1a" stroke="none" /><path d="M 119.7369772167798 92.82701384747503 l 19.514098610716843 -7.091985645840261 a41.7628587865348,41.7628587865348 0 0,0 0.2397325696805593,0.6777562572219608 l -19.633284261207212 6.7550317621916856" fill="#fff316" stroke="none" /><path d="M 119.97218684219823 93.5106431181261 l 42.2976425309059 -13.743337162510004 a65.47437329558144,65.47437329558144 0 0,0 0.3390466214098992,1.074870442713629 l -42.527944636084 13.013216553369956" fill="#35ff66" stroke="none" /><path d="M 120.18372546131832 94.20196356495316 l 23.078900350856614 -6.6297129026814465 a45.012262171164764,45.012262171164764 0 0,0 0.20751345070971378,0.7465362915123521 l -23.18960057213269 6.231465307750143" fill="#e2ff1b" stroke="none" /><path d="M 120.37134235888165 94.90015583598534 l 12.41346123781252 -3.1076360474242035 a33.796539442596355,33.796539442596355 0 0,0 0.13642085759160283,0.5655525275682735 l -12.465114895664941 2.893498288196524" fill="#ff890c" stroke="none" /><path d="M 120.6074358757038 95.95851677861258 l 61.69798563926543 -12.100067920069549 a83.87330972370788,83.87330972370788 0 0,0 0.2656558323598376,1.4191440790764671 l -61.89712719553513 11.036245763530518" fill="#4dd3ff" stroke="none" /><path d="M 120.78858239683441 97.02765380044208 l 14.78315894955264 -2.1136922894682035 a35.933502054852895,35.933502054852895 0 0,0 0.08227745460289485,0.6130626043635945 l -14.81735240321337 1.8589113430399449" fill="#ffa60f" stroke="none" /><path d="M 120.87857604477298 97.74499172005257 l 19.25610750326165 -2.079772191661693 a40.36809563551303,40.36809563551303 0 0,0 0.06866973365881929,0.6914948466170256 l -19.289054362602695 1.7480018143402323" fill="#ffe115" stroke="none" /><path d="M 120.94382443527127 98.46500227214037 l 62.831473305813795 -4.6049931835789 a84.0,84.0 0 0,0 0.09327763598233796,1.442963742987859 l -62.90143153280055 3.5227703763380056" fill="#4dd2ff" stroke="none" /><line stroke="#e1ed5e" stroke-width="0.3" x1="184.98032266829074" x2="189.97916517819016" y1="98.17113171792111" y2="98.06355123074" /><path d="M 185.9800911702706 98.14961562048488 a86.0,86.0 0 0,1 -9.607161424134198,41.387399972396054" fill="none" id="id88" stroke="none" /><text fill="#e1ed5e" style="font-size:6.75px; font-family:Arial;" text-anchor="middle"><textPath startOffset="21.466115282336823" xlink:href="#id88">April</textPath></text><path d="M 120.99513854157772 99.54816195383933 l 14.837913859829014 -0.3193279241405578 a35.84134960287783,35.84134960287783 0 0,0 0.007965301118480922,0.6169213496961604 l -14.84121216806521 0.06387031638393469" fill="#ffa50f" stroke="none" /><path d="M 120.99980553446 99.90962569577887 l 17.977846450582287 -0.07736906714205279 a38.97801293172481,38.97801293172481 0 0,0 -0.002887533350841471,0.6709610587272727 l -17.97651461994194 -0.23210146978890467" fill="#ffcf13" stroke="none" /><path d="M 120.9904718944345 100.63252640178507 l 35.76440200684501 1.0777236751586556 a56.780636372585896,56.780636372585896 0 0,0 -0.0378479906936951,0.9766884660381967 l -35.74055188330011 -1.6931893882108586" fill="#5bff2a" stroke="none" /><path d="M 120.9764740272857 100.99374915477107 l 21.173454069281842 1.0030809781264005 a42.197200963161784,42.197200963161784 0 0,0 -0.040617114942750616,0.7252458723372954 l -21.153050603451565 -1.3673985667991193" fill="#fff917" stroke="none" /><path d="M 120.92983693683757 101.71520430193887 l 14.931700270060915 1.2236558084881095 a35.9817557880438,35.9817557880438 0 0,0 -0.055900919487838575,0.6168619883998078 l -14.908424754296 -1.4804991854364877" fill="#ffa70f" stroke="none" /><path d="M 120.89721153311464 102.0752229133903 l 19.387310957607085 1.925280407124849 a40.48267257880732,40.48267257880732 0 0,0 -0.07483067517122748,0.6928391154646213 l -19.351297980934806 -2.2587158444742617" fill="#ffe315" stroke="none" /><path d="M 120.8583938346157 102.4346265915055 l 17.692786254044545 2.0651315836425534 a38.812901332715725,38.812901332715725 0 0,0 -0.0831677134153907,0.6629285053638209 l -17.65461703138231 -2.369377843293769" fill="#ffcd13" stroke="none" /><path d="M 120.76222939487914 103.15116336523771 l 21.732492618217695 3.298423944334089 a42.98137475039819,42.98137475039819 0 0,0 -0.11731509503965899,0.7305212087979597 l -21.67249576881675 -3.6720243828252532" fill="#fcff18" stroke="none" /><path d="M 120.70491114924044 103.5080841355445 l 48.24343261421842 8.174003712368425 a69.93100374090487,69.93100374090487 0 0,0 -0.21130337991199605,1.185101570180629 l -48.09558279196724 -9.003224033282272" fill="#3bff9a" stroke="none" /><path d="M 120.49622156327973 104.57218783832717 l 40.41161033995916 9.01480659511428 a62.40489087313249,62.40489087313249 0 0,0 -0.2429019268159742,1.0464151433891633 l -40.250447847212634 -9.709090395852009" fill="#31ff40" stroke="none" /><path d="M 120.23288151984713 105.62410040840565 l 12.525270464212454 3.4816285887933596 a34.00015914640956,34.00015914640956 0 0,0 -0.16159362999314797,0.5625286250987863 l -12.463484197333207 -3.6967146893967278" fill="#ff8c0c" stroke="none" /><path d="M 120.13307415673323 105.97154293290107 l 58.888406307800125 17.46651523654896 a82.4241284185714,82.4241284185714 0 0,0 -0.41515552791434696,1.3567522859621715 l -58.57902400737965 -18.47759449506319" fill="#4be1ff" stroke="none" /><path d="M 119.26925614724726 108.34839909993367 l 3.535098603139436 1.531580345972103 a24.85261735578378,24.85261735578378 0 0,0 -0.17344631625011486,0.3910756546537834 l -3.5082112021580483 -1.5922043371185741" fill="#ff0701" stroke="none" /><path d="M 119.12269723197855 108.67885076344098 l 3.8691448808220112 1.7560143632160377 a25.248984414258565,25.248984414258565 0 0,0 -0.18302553937455412,0.3942207290964263 l -3.8383447246076257 -1.8223551595912946" fill="#ff0d01" stroke="none" /><path d="M 118.97047184881838 109.00673069616215 l 26.344099117456803 12.50755427038657 a50.162483984342856,50.162483984342856 0 0,0 -0.37704689224024146,0.7768282756153948 l -26.124898968601848 -12.95917150196724" fill="#a5ff21" stroke="none" /><path d="M 118.81262510543309 109.33194174019688 l 26.67316454101806 13.23113686306223 a50.77449729754152,50.77449729754152 0 0,0 -0.39512551853798683,0.7796201336431045 l -26.441460352693806 -13.688311208408031" fill="#9eff22" stroke="none" /><line stroke="#e1ed5e" stroke-width="0.3" x1="174.80103733775053" x2="179.2010983576182" y1="140.37084112569926" y2="142.7455964860345" /><path d="M 175.68104954172406 140.8457921977663 a86.0,86.0 0 0,1 -30.038265399797805,32.042727171017184" fill="none" id="id89" stroke="none" /><text fill="#e1ed5e" style="font-size:6.75px; font-family:Arial;" text-anchor="middle"><textPath startOffset="22.206326154141568" xlink:href="#id89">May</textPath></text><path d="M 117.94076556474637 110.91462005526583 l 13.665459177360207 8.313652740366809 a36.99567430324545,36.99567430324545 0 0,0 -0.3356659111474075,0.5412003271224991 l -13.520328626544835 -8.547649398854581" fill="#ffb510" stroke="none" /><path d="M 117.75023020441432 111.22182372390056 l 25.03764560471265 15.828980368249221 a50.62161908008416,50.62161908008416 0 0,0 -0.4719746106599997,0.7325150769257917 l -24.7614661306756 -16.257617045096467" fill="#a0ff22" stroke="none" /><line stroke="#e1ed5e" stroke-width="0.3" x1="143.8653032363475" x2="146.44561519142675" y1="172.8068346515853" y2="177.08958963109032" /><path d="M 144.38136562736335 173.6633856474863 a86.0,86.0 0 0,1 -40.68145358897372,12.25698825130547" fill="none" id="id90" stroke="none" /><text fill="#e1ed5e" style="font-size:6.75px; font-family:Arial;" text-anchor="middle"><textPath startOffset="21.466115282336833" xlink:href="#id90">June</textPath></text><line stroke="#e1ed5e" stroke-width="0.3" x1="102.19456741930631" x2="102.32365962044197" y1="184.97166512339345" y2="189.96999836594603" /><path d="M 102.22038585953345 185.97133177190398 a86.0,86.0 0 0,1 -42.740103519485714,-10.115201625700543" fill="none" id="id91" stroke="none" /><text fill="#e1ed5e" style="font-size:6.75px; font-family:Arial;" text-anchor="middle"><textPath startOffset="22.20632615414155" xlink:href="#id91">July</textPath></text><line stroke="#e1ed5e" stroke-width="0.3" x1="58.666819895761336" x2="56.23545636021788" y1="174.27360380694188" y2="178.64263932499728" /><path d="M 58.180547188652646 175.14741091055294 a86.0,86.0 0 0,1 -31.652253787137756,-30.449443065178592" fill="none" id="id92" stroke="none" /><text fill="#e1ed5e" style="font-size:6.75px; font-family:Arial;" text-anchor="middle"><textPath startOffset="22.20632615414155" xlink:href="#id92">August</textPath></text><line stroke="#e1ed5e" stroke-width="0.3" x1="26.63291911575756" x2="22.317208475507996" y1="142.92168965132927" y2="145.44649492493687" /><path d="M 25.769776987707644 143.4266507060508 a86.0,86.0 0 0,1 -11.730757126820373,-40.83630448921669" fill="none" id="id93" stroke="none" /><text fill="#e1ed5e" style="font-size:6.75px; font-family:Arial;" text-anchor="middle"><textPath startOffset="21.46611528233685" xlink:href="#id93">September</textPath></text><line stroke="#e1ed5e" stroke-width="0.3" x1="15.007084014347285" x2="10.007500721073583" y1="101.09737516637583" y2="101.16192664675087" /><path d="M 14.007167355692545 101.11028546245083 a86.0,86.0 0 0,1 10.666146001902534,-42.60595125391555" fill="none" id="id94" stroke="none" /><text fill="#e1ed5e" style="font-size:6.75px; font-family:Arial;" text-anchor="middle"><textPath startOffset="22.20632615414155" xlink:href="#id94">October</textPath></text><line stroke="#e1ed5e" stroke-width="0.3" x1="26.266209847984243" x2="21.928928074336255" y1="57.711370442889674" y2="55.22380399835377" /><path d="M 25.398753493254645 57.213857153982495 a86.0,86.0 0 0,1 29.58750427330803,-30.492523968695096" fill="none" id="id95" stroke="none" /><text fill="#e1ed5e" style="font-size:6.75px; font-family:Arial;" text-anchor="middle"><textPath startOffset="21.46611528233685" xlink:href="#id95">November</textPath></text><line stroke="#e1ed5e" stroke-width="0.3" x1="56.762969772571076" x2="54.21961505331055" y1="26.818313649435495" y2="22.513508569990535" /><path d="M 56.25429882871897 25.957352633546506 a86.0,86.0 0 0,1 42.265352541879196,-11.944610805530505" fill="none" id="id96" stroke="none" /><text fill="#e1ed5e" style="font-size:6.75px; font-family:Arial;" text-anchor="middle"><textPath startOffset="22.20632615414155" xlink:href="#id96">December</textPath></text></svg>