<?xml version="1.0" encoding="utf-8" ?>
<svg baseProfile="full" height="200mm" version="1.1" viewBox="0,0,200,200" width="200mm" xmlns="http://www.w3.org/2000/svg" xmlns:ev="http://www.w3.org/2001/xml-events" xmlns:xlink="http://www.w3.org/1999/xlink"><defs /><rect fill="#1a1a1a" height="200" width="200" x="0" y="0" /><rect fill="#1a1a1a" height="200" width="180" x="10" y="0" /><text alignment-baseline="middle" fill="#e1ed5e" style="dominant-baseline: central; font-size:9.0px; font-family:Arial;" text-anchor="middle" x="100.0" y="100.0">2026</text><line stroke="#e1ed5e" stroke-width="0.3" x1="100.0" x2="100.0" y1="15.0" y2="10.0" /><path d="M 100.0 14.0 a86.0,86.0 0 0,1 42.46469731375804,11.215312516191453" fill="none" id="id85" stroke="none" /><text fill="#e1ed5e" style="font-size:6.75px; font-family:Arial;" text-anchor="middle"><textPath startOffset="22.20632615414155" xlink:href="#id85">January</textPath></text><path d="M 100.0 79.0 l 0.0 -3.753170094498582 a24.753170094498582,24.753170094498582 0 0,0 0.42608513282256016,0.003667449258081039 l -0.06460465355003181 3.7526140218490602" fill="#ff0500" stroke="none" /><path d="M 100.36148047927253 79.00311137660856 l 0.3712006622163988 -21.56149338180653 a42.56468842309846,42.56468842309846 0 0,0 0.7324640322541498,0.018917384973736958 l -0.7422913296654164 21.551909204690435" fill="#fffd17" stroke="none" /><path d="M 101.80526077348638 79.07773832637324 l 1.79835977645207 -20.842281834768453 a41.91972298969276,41.91972298969276 0 0,0 0.7183740468251357,0.0682182717736817 l -2.15685895036745 20.808238018479592" fill="#fff517" stroke="none" /><path d="M 102.16513564639614 79.11191278185805 l 1.5740986148989067 -15.186073543564532 a36.267436461959726,36.267436461959726 0 0,0 0.620403369308637,0.06970954727869384 l -1.835268687717269 15.156728042815239" fill="#ffab0f" stroke="none" /><path d="M 102.52436894288641 79.15227682838746 l 1.773831321617801 -14.649342145660995 a35.756344495104194,35.756344495104194 0 0,0 0.610386803042591,0.07924572525347329 l -2.025732853168238 14.616638097243385" fill="#ffa40f" stroke="none" /><path d="M 102.88285421437855 79.19881850522331 l 5.079029614080134 -36.64764464775431 a57.99792426675824,57.99792426675824 0 0,0 0.9877074661210645,0.14556240552726427 l -5.709106060629853 36.55478775806608" fill="#4fff2b" stroke="none" /><path d="M 103.2404852339499 79.25152402106235 l 1.7197217614571254 -11.011192177091438 a32.144675683826286,32.144675683826286 0 0,0 0.5459555711694627,0.09008734717080728 l -1.9090065387654633 10.979958566981006" fill="#ff720a" stroke="none" /><path d="M 103.95276090670814 79.375362276772 l 2.876020242201813 -15.006441568327023 a36.279554344848144,36.279554344848144 0 0,0 0.6123187004465277,0.12282537091431577 l -3.133905352115466 14.9547122413355" fill="#ffab0f" stroke="none" /><path d="M 104.66035177308747 79.52364482259891 l 4.040892091721841 -17.75461289885221 a39.208654208508364,39.208654208508364 0 0,0 0.6567940865062099,0.15544194011016454 l -4.345909865190575 17.682425046601175" fill="#ffd213" stroke="none" /><path d="M 105.36241919743992 79.69619591428918 l 11.669012162141456 -44.1825467369294 a66.69751941846687,66.69751941846687 0 0,0 1.107503133560092,0.3027224425752157 l -12.427813184925258 43.975137753527896" fill="#37ff74" stroke="none" /><path d="M 107.08798089147638 80.2323363322302 l 3.4347650165179076 -9.579213130497758 a31.17639105568354,31.17639105568354 0 0,0 0.5035991840339819,0.18547982952805847 l -3.599146526324466 9.518670033163374" fill="#ff6409" stroke="none" /><path d="M 107.4271985657038 80.35727306442388 l 5.862798295009866 -15.505354403612515 a37.57674331796196,37.57674331796196 0 0,0 0.6030473858399739,0.2339730168026509 l -6.128828845849507 15.402138682919317" fill="#ffbc11" stroke="none" /><path d="M 108.09893153111575 80.62456947434976 l 7.577041121353947 -18.12688911775049 a40.6467722855921,40.6467722855921 0 0,0 0.6432182201857488,0.2753924736944284 l -7.887943099330011 17.99377711609327" fill="#ffe515" stroke="none" /><path d="M 109.08828744355905 81.06846463323043 l 10.046752241075687 -20.928084257270317 a44.21469235792206,44.21469235792206 0 0,0 0.6832827662114281,0.3352838859154746 l -10.405506274297547 20.75204521122001" fill="#ecff1a" stroke="none" /><path d="M 109.41281617654863 81.2277094730956 l 18.329371811011058 -36.55487224633298 a61.89284235574744,61.89284235574744 0 0,0 0.9482558533944857,0.485733478565821 l -18.955888151994298 36.23394624245466" fill="#30ff3a" stroke="none" /><path d="M 110.36928655335952 81.73862282372117 l 14.56022206617699 -25.642044469751 a50.4875314532274,50.4875314532274 0 0,0 0.7520316575394782,0.435625276331615 l -14.999450456181798 25.387615036029334" fill="#a1ff22" stroke="none" /><line stroke="#e1ed5e" stroke-width="0.3" x1="143.23703022742887" x2="145.7803849466894" y1="26.81831364943548" y2="22.513508569990506" /><path d="M 143.74570117128098 25.957352633546492 a86.0,86.0 0 0,1 28.547481713284135,27.462654790039103" fill="none" id="id86" stroke="none" /><text fill="#e1ed5e" style="font-size:6.75px; font-family:Arial;" text-anchor="middle"><textPath startOffset="19.985693538727396" xlink:href="#id86">February</textPath></text><path d="M 110.68208982089419 81.91981866633111 l 12.410648077409535 -21.005886626136807 a45.39818556064,45.39818556064 0 0,0 0.6693809702126121,0.4032945447983028 l -12.770391113839786 20.78914547187989" fill="#deff1b" stroke="none" /><path d="M 111.2981086023043 82.29822771554956 l 9.546102818278126 -14.956745791826185 a38.74351497585661,38.74351497585661 0 0,0 0.5590744083192911,0.36363754683727506 l -9.802144252381696 14.790209320829382" fill="#ffcc13" stroke="none" /><path d="M 115.4437574822437 85.77008943001954 l 7.891915783843034 -7.2716277731647185 a31.73121173077539,31.73121173077539 0 0,0 0.36665620559198564,0.4048709399914788 l -8.015915630051056 7.134704045903691" fill="#ff6c09" stroke="none" /><path d="M 116.82858285166822 87.43820079747576 l 12.978173403439937 -9.68763738138486 a37.19516294833001,37.19516294833001 0 0,0 0.37857128360504844,0.5163708053903205 l -13.143007299558613 9.462804132323047" fill="#ffb711" stroke="none" /><path d="M 117.2510076193507 88.02491185347247 l 11.130199857014015 -7.726222567237356 a34.54901708669535,34.54901708669535 0 0,0 0.3349206959068603,0.49145479420010185 l -11.261545018589608 7.533489749766847" fill="#ff930d" stroke="none" /><path d="M 117.45458315368197 88.32363383020206 l 2.821656250814855 -1.8875667954787854 a24.394797844519847,24.394797844519847 0 0,0 0.2304766653388561,0.35103177340620345 l -2.8537295515116363 1.8387169580949079" fill="#ff0000" stroke="none" /><line stroke="#e1ed5e" stroke-width="0.3" x1="172.23445277983987" x2="176.4835382374775" y1="55.19839476539836" y2="52.563006222186495" /><path d="M 173.08426987136738 54.67131705675599 a86.0,86.0 0 0,1 12.851231095245387,41.99856678651699" fill="none" id="id87" stroke="none" /><text fill="#e1ed5e" style="font-size:6.75px; font-family:Arial;" text-anchor="middle"><textPath startOffset="22.20632615414155" xlink:href="#id87">March</textPath></text><path d="M 118.3937258080291 89.86733742301442 l 14.594096323040391 -8.039537785914156 a37.6619871353126,37.6619871353126 0 0,0 0.3079170551653117,0.5705235387252968 l -14.730321477424168 7.787133263856401" fill="#ffbd11" stroke="none" /><path d="M 118.73160827565052 90.50648371742162 l 30.00319546883159 -15.206159584438726 a54.63657276906097,54.63657276906097 0 0,0 0.41794373056629186,0.842549057549513 l -30.260499212351288 14.687450938390263" fill="#73ff27" stroke="none" /><path d="M 119.04729006885535 91.15688171328212 l 28.88289494209037 -13.409511563715052 a52.843941662633995,52.843941662633995 0 0,0 0.37594106890102746,0.8283363124463373 l -29.109438327954745 12.910353242426652" fill="#86ff25" stroke="none" /><path d="M 119.34039704204932 91.81776055985345 l 21.251347581516942 -8.990695173408188 a44.07492954987276,44.07492954987276 0 0,0 0.2895897347571969,0.7012645127662686 l -21.402959003160337 8.623556090188616" fill="#eeff19" stroke="none" /><path d="M 119.7369772167798 92.82701384747503 l 19.39112703590943 -7.047294232684155 a41.63201792663047,41.63201792663047 0 0,0 0.23898150003457538,0.675632882192638 l -19.509561616753814 6.712463724064902" fill="#fff116" stroke="none" /><path d="M 119.97218684219823 93.5106431181261 l 41.97357663954709 -13.638041771530256 a65.13363025265356,65.13363025265356 0 0,0 0.3372821482021591,1.0692765804593078 l -42.20211427151746 12.913515024644528" fill="#35ff62" stroke="none" /><path d="M 120.18372546131832 94.20196356495316 l 23.015153332643944 -6.611400746437992 a44.945937082417814,44.945937082417814 0 0,0 0.2072076818509488,0.7454362782404331 l -23.125547785061258 6.214253164778607" fill="#e3ff1b" stroke="none" /><path d="M 120.37134235888165 94.90015583598534 l 12.372425535765956 -3.097363003954038 a33.75423738278133,33.75423738278133 0 0,0 0.1362501039176162,0.5648446433515959 l -12.423908439944391 2.883933128943036" fill="#ff880c" stroke="none" /><path d="M 120.6074358757038 95.95851677861258 l 61.67595948509975 -12.095748201059905 a83.85086397935282,83.85086397935282 0 0,0 0.2655847389104528,1.4187642950270851 l -61.87502994792006 11.032305828570257" fill="#4dd3ff" stroke="none" /><path d="M 120.78858239683441 97.02765380044208 l 14.630958639330549 -2.091930728000258 a35.779753884167114,35.779753884167114 0 0,0 0.08192541521317527,0.6104395020065552 l -14.66480005360156 1.8397728839290384" fill="#ffa40f" stroke="none" /><path d="M 120.87857604477298 97.74499172005257 l 19.143570176076146 -2.0676175023733885 a40.25490382272716,40.25490382272716 0 0,0 0.06847718428253594,0.6895559006749781 l -19.17632448604091 1.7377860709939752" fill="#ffdf14" stroke="none" /><path d="M 120.94382443527127 98.46500227214037 l 62.831473305813795 -4.6049931835789 a84.0,84.0 0 0,0 0.09327763598233796,1.442963742987859 l -62.90143153280055 3.5227703763380056" fill="#4dd2ff" stroke="none" /><line stroke="#e1ed5e" stroke-width="0.3" x1="184.98032266829074" x2="189.97916517819016" y1="98.17113171792111" y2="98.06355123074" /><path d="M 185.9800911702706 98.14961562048488 a86.0,86.0 0 0,1 -9.607161424134198,41.387399972396054" fill="none" id="id88" stroke="none" /><text fill="#e1ed5e" style="font-size:6.75px; font-family:Arial;" text-anchor="middle"><textPath startOffset="21.466115282336823" xlink:href="#id88">April</textPath></text><path d="M 120.99513854157772 99.54816195383933 l 14.772597578655795 -0.31792224725924817 a35.77601819761364,35.77601819761364 0 0,0 0.007950782013559131,0.6157968290193526 l -14.775881367787068 0.0635891601794328" fill="#ffa40f" stroke="none" /><path d="M 120.99980553446 99.90962569577887 l 17.905230898799054 -0.07705656044015624 a38.90539670749619,38.90539670749619 0 0,0 -0.0028821538624196363,0.6697110550707354 l -17.903904447647133 -0.23116397283426388" fill="#ffce13" stroke="none" /><path d="M 120.9904718944345 100.63252640178507 l 35.708563297232764 1.0760410327555223 a56.724772316372466,56.724772316372466 0 0,0 -0.03781075366334898,0.9757275437439882 l -35.68475041071821 -1.6905458235135167" fill="#5cff2a" stroke="none" /><path d="M 120.9764740272857 100.99374915477107 l 20.37050626819324 0.965041758683745 a41.39335262330604,41.39335262330604 0 0,0 -0.03984336692934652,0.7114300817834501 l -20.350876550376363 -1.3155435568026186" fill="#ffee16" stroke="none" /><path d="M 120.92983693683757 101.71520430193887 l 14.84703259499423 1.2167172756678208 a35.896804281648116,35.896804281648116 0 0,0 -0.05576893962150383,0.6154056015725087 l -14.823889059095652 -1.4721042657888999" fill="#ffa60f" stroke="none" /><path d="M 120.89721153311464 102.0752229133903 l 19.33218341050961 1.9198058992597975 a40.42727387227595,40.42727387227595 0 0,0 -0.07472827277659097,0.6918909964698499 l -19.296272836231967 -2.252293217614439" fill="#ffe215" stroke="none" /><path d="M 120.8583938346157 102.4346265915055 l 17.655492272531294 2.060778567786433 a38.77535416499092,38.77535416499092 0 0,0 -0.0830872578973111,0.6622871957238361 l -17.617403505387134 -2.3643835177976644" fill="#ffcc13" stroke="none" /><path d="M 120.76222939487914 103.15116336523771 l 21.661797549028023 3.287694281931438 a42.9098700759845,42.9098700759845 0 0,0 -0.11711992730192756,0.729305899108804 l -21.601995867364806 -3.660079410733447" fill="#fdff18" stroke="none" /><path d="M 120.70491114924044 103.5080841355445 l 48.228443536375664 8.171464075960058 a69.91580103694594,69.91580103694594 0 0,0 -0.2112574434523647,1.1848439341198127 l -48.08063965058411 -9.000426760813088" fill="#3bff9a" stroke="none" /><path d="M 120.49622156327973 104.57218783832717 l 40.27008571611802 8.983236036513881 a62.259887703085354,62.259887703085354 0 0,0 -0.24233752314654905,1.0439837071530962 l -40.10948762704091 -9.675088401015541" fill="#31ff3f" stroke="none" /><line stroke="#e1ed5e" stroke-width="0.3" x1="174.80103733775053" x2="179.2010983576182" y1="140.37084112569926" y2="142.7455964860345" /><path d="M 175.68104954172406 140.8457921977663 a86.0,86.0 0 0,1 -30.038265399797805,32.042727171017184" fill="none" id="id89" stroke="none" /><text fill="#e1ed5e" style="font-size:6.75px; font-family:Arial;" text-anchor="middle"><textPath startOffset="22.206326154141568" xlink:href="#id89">May</textPath></text><line stroke="#e1ed5e" stroke-width="0.3" x1="143.8653032363475" x2="146.44561519142675" y1="172.8068346515853" y2="177.08958963109032" /><path d="M 144.38136562736335 173.6633856474863 a86.0,86.0 0 0,1 -40.68145358897372,12.25698825130547" fill="none" id="id90" stroke="none" /><text fill="#e1ed5e" style="font-size:6.75px; font-family:Arial;" text-anchor="middle"><textPath startOffset="21.466115282336833" xlink:href="#id90">June</textPath></text><line stroke="#e1ed5e" stroke-width="0.3" x1="102.19456741930631" x2="102.32365962044197" y1="184.97166512339345" y2="189.96999836594603" /><path d="M 102.22038585953345 185.97133177190398 a86.0,86.0 0 0,1 -42.740103519485714,-10.115201625700543" fill="none" id="id91" stroke="none" /><text fill="#e1ed5e" style="font-size:6.75px; font-family:Arial;" text-anchor="middle"><textPath startOffset="22.20632615414155" xlink:href="#id91">July</textPath></text><line stroke="#e1ed5e" stroke-width="0.3" x1="58.666819895761336" x2="56.23545636021788" y1="174.27360380694188" y2="178.64263932499728" /><path d="M 58.180547188652646 175.14741091055294 a86.0,86.0 0 0,1 -31.652253787137756,-30.449443065178592" fill="none" id="id92" stroke="none" /><text fill="#e1ed5e" style="font-size:6.75px; font-family:Arial;" text-anchor="middle"><textPath startOffset="22.20632615414155" xlink:href="#id92">August</textPath></text><line stroke="#e1ed5e" stroke-width="0.3" x1="26.63291911575756" x2="22.317208475507996" y1="142.92168965132927" y2="145.44649492493687" /><path d="M 25.769776987707644 143.4266507060508 a86.0,86.0 0 0,1 -11.730757126820373,-40.83630448921669" fill="none" id="id93" stroke="none" /><text fill="#e1ed5e" style="font-size:6.75px; font-family:Arial;" text-anchor="middle"><textPath startOffset="21.46611528233685" xlink:href="#id93">September</textPath></text><line stroke="#e1ed5e" stroke-width="0.3" x1="15.007084014347285" x2="10.007500721073583" y1="101.09737516637583" y2="101.16192664675087" /><path d="M 14.007167355692545 101.11028546245083 a86.0,86.0 0 0,1 10.666146001902534,-42.60595125391555" fill="none" id="id94" stroke="none" /><text fill="#e1ed5e" style="font-size:6.75px; font-family:Arial;" text-anchor="middle"><textPath startOffset="22.20632615414155" xlink:href="#id94">October</textPath></text><line stroke="#e1ed5e" stroke-width="0.3" x1="26.266209847984243" x2="21.928928074336255" y1="57.711370442889674" y2="55.22380399835377" /><path d="M 25.398753493254645 57.213857153982495 a86.0,86.0 0 0,1 29.58750427330803,-30.492523968695096" fill="none" id="id95" stroke="none" /><text fill="#e1ed5e" style="font-size:6.75px; font-family:Arial;" text-anchor="middle"><textPath startOffset="21.46611528233685" xlink:href="#id95">November</textPath></text><line stroke="#e1ed5e" stroke-width="0.3" x1="56.762969772571076" x2="54.21961505331055" y1="26.818313649435495" y2="22.513508569990535" /><path d="M 56.25429882871897 25.957352633546506 a86.0,86.0 0 0,1 42.265352541879196,-11.944610805530505" fill="none" id="id96" stroke="none" /><text fill="#e1ed5e" style="font-size:6.75px; font-family:Arial;" text-anchor="middle"><textPath startOffset="22.20632615414155" xlink:href="#id96">December</textPath></text></svg>