<?xml version="1.0" encoding="utf-8" ?>
<svg baseProfile="full" height="200mm" version="1.1" viewBox="0,0,200,200" width="200mm" xmlns="http://www.w3.org/2000/svg" xmlns:ev="http://www.w3.org/2001/xml-events" xmlns:xlink="http://www.w3.org/1999/xlink"><defs /><rect fill="#1a1a1a" height="200" width="200" x="0" y="0" /><rect fill="#1a1a1a" height="200" width="180" x="10" y="0" /><text alignment-baseline="middle" fill="#e1ed5e" style="dominant-baseline: central; font-size:9.0px; font-family:Arial;" text-anchor="middle" x="100.0" y="100.0">2026</text><line stroke="#e1ed5e" stroke-width="0.3" x1="100.0" x2="100.0" y1="15.0" y2="10.0" /><path d="M 100.0 14.0 a86.0,86.0 0 0,1 42.46469731375804,11.215312516191453" fill="none" id="id85" stroke="none" /><text fill="#e1ed5e" style="font-size:6.75px; font-family:Arial;" text-anchor="middle"><textPath startOffset="22.20632615414155" xlink:href="#id85">January</textPath></text><path d="M 100.0 79.0 l 0.0 -5.2363636363636346 a26.236363636363635,26.236363636363635 0 0,0 0.4516158715067172,0.003887200386277444 l -0.09013539223418886 5.235587812585916" fill="red" stroke="none" /><path d="M 100.36148047927253 79.00311137660856 l 0.5288412466240301 -30.718175369156437 a51.72272727272727,51.72272727272727 0 0,0 0.8900579043544586,0.02298756974287654 l -1.0575257861733565 30.7045210072712" fill="red" stroke="none" /><path d="M 101.80526077348638 79.07773832637324 l 2.4793029454049904 -28.73414509072767 a49.84090909090909,49.84090909090909 0 0,0 0.8541186107046478,0.08110885376430106 l -2.9735466831998827 28.68721069244819" fill="red" stroke="none" /><path d="M 102.16513564639614 79.11191278185805 l 2.1806009010132468 -21.03728784112867 a42.15,42.15 0 0,0 0.7210325450983371,0.08101640767686549 l -2.5424001496213093 20.996635479981204" fill="red" stroke="none" /><path d="M 102.52436894288641 79.15227682838746 l 2.4686361220694333 -20.387448763927587 a41.53636363636363,41.53636363636363 0 0,0 0.7090559330942212,0.09205581015716857 l -2.8192067836715005 20.341934630606282" fill="red" stroke="none" /><path d="M 102.88285421437855 79.19881850522331 l 7.188415703385503 -51.86788112983277 a73.36363636363637,73.36363636363637 0 0,0 1.249386289151839,0.18412706182726432 l -8.080170972965998 51.736459583844535" fill="red" stroke="none" /><path d="M 103.2404852339499 79.25152402106235 l 2.3988007575992802 -15.359261438953846 a36.54545454545455,36.54545454545455 0 0,0 0.6206998230829964,0.10242078917000383 l -2.6628297868211517 15.315694386844216" fill="red" stroke="none" /><path d="M 103.95276090670814 79.375362276772 l 3.9424939952621334 -20.571067235635212 a41.945454545454545,41.945454545454545 0 0,0 0.7079465743370925,0.14200742279643325 l -4.296006979066351 20.50015585676157" fill="red" stroke="none" /><path d="M 104.66035177308747 79.52364482259891 l 5.610579342405311 -24.651404220065988 a46.28181818181818,46.28181818181818 0 0,0 0.7752784457462306,0.18348335986616351 l -6.034081475114065 24.551174948058957" fill="red" stroke="none" /><path d="M 105.36241919743992 79.69619591428918 l 16.08725759231978 -60.91141225713248 a84.0,84.0 0 0,0 1.3948084431051566,0.3812538366948255 l -17.13336392464865 60.62547187961136" fill="red" stroke="none" /><path d="M 107.08798089147638 80.2323363322302 l 4.55655914452053 -12.707783786423436 a34.5,34.5 0 0,0 0.5572861790879101,0.2052532028896094 l -4.774627649381016 12.627467315727502" fill="red" stroke="none" /><path d="M 107.4271985657038 80.35727306442388 l 7.95771274896836 -21.045778859545837 a43.5,43.5 0 0,0 0.6981063010721182,0.2708543990838673 l -8.318802215040145 20.905681756571422" fill="red" stroke="none" /><path d="M 108.09893153111575 80.62456947434976 l 10.507574804655368 -25.137733889772196 a48.24545454545455,48.24545454545455 0 0,0 0.7634641980116005,0.326875526017952 l -10.938722760457285 24.953138835791457" fill="red" stroke="none" /><line stroke="#e1ed5e" stroke-width="0.3" x1="143.23703022742887" x2="145.7803849466894" y1="26.81831364943548" y2="22.513508569990506" /><path d="M 143.74570117128098 25.957352633546492 a86.0,86.0 0 0,1 28.547481713284135,27.462654790039103" fill="none" id="id86" stroke="none" /><text fill="#e1ed5e" style="font-size:6.75px; font-family:Arial;" text-anchor="middle"><textPath startOffset="19.985693538727396" xlink:href="#id86">February</textPath></text><line stroke="#e1ed5e" stroke-width="0.3" x1="172.23445277983987" x2="176.4835382374775" y1="55.19839476539836" y2="52.563006222186495" /><path d="M 173.08426987136738 54.67131705675599 a86.0,86.0 0 0,1 12.851231095245387,41.99856678651699" fill="none" id="id87" stroke="none" /><text fill="#e1ed5e" style="font-size:6.75px; font-family:Arial;" text-anchor="middle"><textPath startOffset="22.20632615414155" xlink:href="#id87">March</textPath></text><line stroke="#e1ed5e" stroke-width="0.3" x1="184.98032266829074" x2="189.97916517819016" y1="98.17113171792111" y2="98.06355123074" /><path d="M 185.9800911702706 98.14961562048488 a86.0,86.0 0 0,1 -9.607161424134198,41.387399972396054" fill="none" id="id88" stroke="none" /><text fill="#e1ed5e" style="font-size:6.75px; font-family:Arial;" text-anchor="middle"><textPath startOffset="21.466115282336823" xlink:href="#id88">April</textPath></text><line stroke="#e1ed5e" stroke-width="0.3" x1="174.80103733775053" x2="179.2010983576182" y1="140.37084112569926" y2="142.7455964860345" /><path d="M 175.68104954172406 140.8457921977663 a86.0,86.0 0 0,1 -30.038265399797805,32.042727171017184" fill="none" id="id89" stroke="none" /><text fill="#e1ed5e" style="font-size:6.75px; font-family:Arial;" text-anchor="middle"><textPath startOffset="22.206326154141568" xlink:href="#id89">May</textPath></text><line stroke="#e1ed5e" stroke-width="0.3" x1="143.8653032363475" x2="146.44561519142675" y1="172.8068346515853" y2="177.08958963109032" /><path d="M 144.38136562736335 173.6633856474863 a86.0,86.0 0 0,1 -40.68145358897372,12.25698825130547" fill="none" id="id90" stroke="none" /><text fill="#e1ed5e" style="font-size:6.75px; font-family:Arial;" text-anchor="middle"><textPath startOffset="21.466115282336833" xlink:href="#id90">June</textPath></text><line stroke="#e1ed5e" stroke-width="0.3" x1="102.19456741930631" x2="102.32365962044197" y1="184.97166512339345" y2="189.96999836594603" /><path d="M 102.22038585953345 185.97133177190398 a86.0,86.0 0 0,1 -42.740103519485714,-10.115201625700543" fill="none" id="id91" stroke="none" /><text fill="#e1ed5e" style="font-size:6.75px; font-family:Arial;" text-anchor="middle"><textPath startOffset="22.20632615414155" xlink:href="#id91">July</textPath></text><line stroke="#e1ed5e" stroke-width="0.3" x1="58.666819895761336" x2="56.23545636021788" y1="174.27360380694188" y2="178.64263932499728" /><path d="M 58.180547188652646 175.14741091055294 a86.0,86.0 0 0,1 -31.652253787137756,-30.449443065178592" fill="none" id="id92" stroke="none" /><text fill="#e1ed5e" style="font-size:6.75px; font-family:Arial;" text-anchor="middle"><textPath startOffset="22.20632615414155" xlink:href="#id92">August</textPath></text><line stroke="#e1ed5e" stroke-width="0.3" x1="26.63291911575756" x2="22.317208475507996" y1="142.92168965132927" y2="145.44649492493687" /><path d="M 25.769776987707644 143.4266507060508 a86.0,86.0 0 0,1 -11.730757126820373,-40.83630448921669" fill="none" id="id93" stroke="none" /><text fill="#e1ed5e" style="font-size:6.75px; font-family:Arial;" text-anchor="middle"><textPath startOffset="21.46611528233685" xlink:href="#id93">September</textPath></text><line stroke="#e1ed5e" stroke-width="0.3" x1="15.007084014347285" x2="10.007500721073583" y1="101.09737516637583" y2="101.16192664675087" /><path d="M 14.007167355692545 101.11028546245083 a86.0,86.0 0 0,1 10.666146001902534,-42.60595125391555" fill="none" id="id94" stroke="none" /><text fill="#e1ed5e" style="font-size:6.75px; font-family:Arial;" text-anchor="middle"><textPath startOffset="22.20632615414155" xlink:href="#id94">October</textPath></text><line stroke="#e1ed5e" stroke-width="0.3" x1="26.266209847984243" x2="21.928928074336255" y1="57.711370442889674" y2="55.22380399835377" /><path d="M 25.398753493254645 57.213857153982495 a86.0,86.0 0 0,1 29.58750427330803,-30.492523968695096" fill="none" id="id95" stroke="none" /><text fill="#e1ed5e" style="font-size:6.75px; font-family:Arial;" text-anchor="middle"><textPath startOffset="21.46611528233685" xlink:href="#id95">November</textPath></text><line stroke="#e1ed5e" stroke-width="0.3" x1="56.762969772571076" x2="54.21961505331055" y1="26.818313649435495" y2="22.513508569990535" /><path d="M 56.25429882871897 25.957352633546506 a86.0,86.0 0 0,1 42.265352541879196,-11.944610805530505" fill="none" id="id96" stroke="none" /><text fill="#e1ed5e" style="font-size:6.75px; font-family:Arial;" text-anchor="middle"><textPath startOffset="22.20632615414155" xlink:href="#id96">December</textPath></text></svg>