<?xml version="1.0" encoding="utf-8" ?>
<svg baseProfile="full" height="200mm" version="1.1" viewBox="0,0,200,200" width="200mm" xmlns="http://www.w3.org/2000/svg" xmlns:ev="http://www.w3.org/2001/xml-events" xmlns:xlink="http://www.w3.org/1999/xlink"><defs /><rect fill="#1a1a1a" height="200" width="200" x="0" y="0" /><rect fill="#1a1a1a" height="200" width="180" x="10" y="0" /><text alignment-baseline="middle" fill="#e1ed5e" style="dominant-baseline: central; font-size:9.0px; font-family:Arial;" text-anchor="middle" x="100.0" y="100.0">2026</text><line stroke="#e1ed5e" stroke-width="0.3" x1="100.0" x2="100.0" y1="15.0" y2="10.0" /><path d="M 100.0 14.0 a86.0,86.0 0 0,1 42.46469731375804,11.215312516191453" fill="none" id="id85" stroke="none" /><text fill="#e1ed5e" style="font-size:6.75px; font-family:Arial;" text-anchor="middle"><textPath startOffset="22.20632615414155" xlink:href="#id85">January</textPath></text><path d="M 100.0 79.0 l 0.0 -5.156010230179028 a26.156010230179028,26.156010230179028 0 0,0 0.45023271970772716,0.003875295162066929 l -0.08875224043519878 5.15524631162552" fill="red" stroke="none" /><path d="M 100.36148047927253 79.00311137660856 l 0.5207260356783928 -30.246796718990353 a51.25127877237851,51.25127877237851 0 0,0 0.8819450981209651,0.022778039892975218 l -1.0412977689942258 30.233351886955017" fill="red" stroke="none" /><path d="M 101.80526077348638 79.07773832637324 l 2.441257375910285 -28.29321191797993 a49.39833759590793,49.39833759590793 0 0,0 0.8465343078228847,0.0803886328188359 l -2.927916810823414 28.246997740645917" fill="red" stroke="none" /><path d="M 102.16513564639614 79.11191278185805 l 2.147138994603837 -20.714465009807007 a41.825447570332486,41.825447570332486 0 0,0 0.7154806384700805,0.08039258627818316 l -2.5033863365836426 20.674436470058225" fill="red" stroke="none" /><path d="M 102.52436894288641 79.15227682838746 l 2.430754237843305 -20.07459788775479 a41.22122762148338,41.22122762148338 0 0,0 0.7036763321489211,0.09135738355888769 l -2.775945298500072 20.029782181031766" fill="red" stroke="none" /><path d="M 102.88285421437855 79.19881850522331 l 7.078107534024086 -51.0719545651806 a72.56010230179028,72.56010230179028 0 0,0 1.2357020650662047,0.18211036291184385 l -7.956178579518947 50.942549718107784" fill="red" stroke="none" /><path d="M 103.2404852339499 79.25152402106235 l 2.361990515794688 -15.12356944756325 a36.30690537084399,36.30690537084399 0 0,0 0.6166482267266507,0.10175224105578959 l -2.6219679486602137 15.080670943567837" fill="red" stroke="none" /><path d="M 103.95276090670814 79.375362276772 l 3.881995366178827 -20.255398684704748 a41.62404092071611,41.62404092071611 0 0,0 0.7025218226674625,0.14091926864491955 l -4.230083598313414 20.18557545998262" fill="red" stroke="none" /><path d="M 104.66035177308747 79.52364482259891 l 5.524483495718784 -24.273121802366763 a45.89386189258312,45.89386189258312 0 0,0 0.7687796917916205,0.18194531477142645 l -5.941486874472928 24.17443057545447" fill="red" stroke="none" /><path d="M 105.36241919743992 79.69619591428918 l 15.840394304458096 -59.97671027876216 a83.03324808184144,83.03324808184144 0 0,0 1.3787556605118747,0.376866004814706 l -16.87044785419368 59.695157733121164" fill="red" stroke="none" /><path d="M 107.08798089147638 80.2323363322302 l 4.486637520819447 -12.512779431644558 a34.29283887468031,34.29283887468031 0 0,0 0.55393985932023,0.2040207250784186 l -4.701359705912254 12.433695438759816" fill="red" stroke="none" /><path d="M 107.4271985657038 80.35727306442388 l 7.835599509853755 -20.722825731266358 a43.15473145780051,43.15473145780051 0 0,0 0.6925652862474873,0.26870457141674076 l -8.19114796110091 20.58487845595907" fill="red" stroke="none" /><path d="M 108.09893153111575 80.62456947434976 l 10.34633324755068 -24.75198861269129 a47.827365728900254,47.827365728900254 0 0,0 0.7568481168483997,0.32404286534305565 l -10.770865122189395 24.570226219385443" fill="red" stroke="none" /><path d="M 109.08828744355905 81.06846463323043 l 27.264862330677165 -56.79460610030869 a84.0,84.0 0 0,0 1.2981149319582728,0.6369793594606721 l -28.23844852964587 56.31687158071319" fill="red" stroke="none" /><path d="M 109.41281617654863 81.2277094730956 l 11.32065679545266 -22.577160154160595 a46.25639386189258,46.25639386189258 0 0,0 0.7086909336679904,0.36301902192994606 l -11.707608216709406 22.378948606918147" fill="red" stroke="none" /><path d="M 110.36928655335952 81.73862282372117 l 19.942086711957643 -35.120060117456205 a61.38694646888987,61.38694646888987 0 0,0 0.9143827352116537,0.5296694995563059 l -20.543666179634624 34.77158646050985" fill="red" stroke="none" /><line stroke="#e1ed5e" stroke-width="0.3" x1="143.23703022742887" x2="145.7803849466894" y1="26.81831364943548" y2="22.513508569990506" /><path d="M 143.74570117128098 25.957352633546492 a86.0,86.0 0 0,1 28.547481713284135,27.462654790039103" fill="none" id="id86" stroke="none" /><text fill="#e1ed5e" style="font-size:6.75px; font-family:Arial;" text-anchor="middle"><textPath startOffset="19.985693538727396" xlink:href="#id86">February</textPath></text><line stroke="#e1ed5e" stroke-width="0.3" x1="172.23445277983987" x2="176.4835382374775" y1="55.19839476539836" y2="52.563006222186495" /><path d="M 173.08426987136738 54.67131705675599 a86.0,86.0 0 0,1 12.851231095245387,41.99856678651699" fill="none" id="id87" stroke="none" /><text fill="#e1ed5e" style="font-size:6.75px; font-family:Arial;" text-anchor="middle"><textPath startOffset="22.20632615414155" xlink:href="#id87">March</textPath></text><line stroke="#e1ed5e" stroke-width="0.3" x1="184.98032266829074" x2="189.97916517819016" y1="98.17113171792111" y2="98.06355123074" /><path d="M 185.9800911702706 98.14961562048488 a86.0,86.0 0 0,1 -9.607161424134198,41.387399972396054" fill="none" id="id88" stroke="none" /><text fill="#e1ed5e" style="font-size:6.75px; font-family:Arial;" text-anchor="middle"><textPath startOffset="21.466115282336823" xlink:href="#id88">April</textPath></text><line stroke="#e1ed5e" stroke-width="0.3" x1="174.80103733775053" x2="179.2010983576182" y1="140.37084112569926" y2="142.7455964860345" /><path d="M 175.68104954172406 140.8457921977663 a86.0,86.0 0 0,1 -30.038265399797805,32.042727171017184" fill="none" id="id89" stroke="none" /><text fill="#e1ed5e" style="font-size:6.75px; font-family:Arial;" text-anchor="middle"><textPath startOffset="22.206326154141568" xlink:href="#id89">May</textPath></text><line stroke="#e1ed5e" stroke-width="0.3" x1="143.8653032363475" x2="146.44561519142675" y1="172.8068346515853" y2="177.08958963109032" /><path d="M 144.38136562736335 173.6633856474863 a86.0,86.0 0 0,1 -40.68145358897372,12.25698825130547" fill="none" id="id90" stroke="none" /><text fill="#e1ed5e" style="font-size:6.75px; font-family:Arial;" text-anchor="middle"><textPath startOffset="21.466115282336833" xlink:href="#id90">June</textPath></text><line stroke="#e1ed5e" stroke-width="0.3" x1="102.19456741930631" x2="102.32365962044197" y1="184.97166512339345" y2="189.96999836594603" /><path d="M 102.22038585953345 185.97133177190398 a86.0,86.0 0 0,1 -42.740103519485714,-10.115201625700543" fill="none" id="id91" stroke="none" /><text fill="#e1ed5e" style="font-size:6.75px; font-family:Arial;" text-anchor="middle"><textPath startOffset="22.20632615414155" xlink:href="#id91">July</textPath></text><line stroke="#e1ed5e" stroke-width="0.3" x1="58.666819895761336" x2="56.23545636021788" y1="174.27360380694188" y2="178.64263932499728" /><path d="M 58.180547188652646 175.14741091055294 a86.0,86.0 0 0,1 -31.652253787137756,-30.449443065178592" fill="none" id="id92" stroke="none" /><text fill="#e1ed5e" style="font-size:6.75px; font-family:Arial;" text-anchor="middle"><textPath startOffset="22.20632615414155" xlink:href="#id92">August</textPath></text><line stroke="#e1ed5e" stroke-width="0.3" x1="26.63291911575756" x2="22.317208475507996" y1="142.92168965132927" y2="145.44649492493687" /><path d="M 25.769776987707644 143.4266507060508 a86.0,86.0 0 0,1 -11.730757126820373,-40.83630448921669" fill="none" id="id93" stroke="none" /><text fill="#e1ed5e" style="font-size:6.75px; font-family:Arial;" text-anchor="middle"><textPath startOffset="21.46611528233685" xlink:href="#id93">September</textPath></text><line stroke="#e1ed5e" stroke-width="0.3" x1="15.007084014347285" x2="10.007500721073583" y1="101.09737516637583" y2="101.16192664675087" /><path d="M 14.007167355692545 101.11028546245083 a86.0,86.0 0 0,1 10.666146001902534,-42.60595125391555" fill="none" id="id94" stroke="none" /><text fill="#e1ed5e" style="font-size:6.75px; font-family:Arial;" text-anchor="middle"><textPath startOffset="22.20632615414155" xlink:href="#id94">October</textPath></text><line stroke="#e1ed5e" stroke-width="0.3" x1="26.266209847984243" x2="21.928928074336255" y1="57.711370442889674" y2="55.22380399835377" /><path d="M 25.398753493254645 57.213857153982495 a86.0,86.0 0 0,1 29.58750427330803,-30.492523968695096" fill="none" id="id95" stroke="none" /><text fill="#e1ed5e" style="font-size:6.75px; font-family:Arial;" text-anchor="middle"><textPath startOffset="21.46611528233685" xlink:href="#id95">November</textPath></text><line stroke="#e1ed5e" stroke-width="0.3" x1="56.762969772571076" x2="54.21961505331055" y1="26.818313649435495" y2="22.513508569990535" /><path d="M 56.25429882871897 25.957352633546506 a86.0,86.0 0 0,1 42.265352541879196,-11.944610805530505" fill="none" id="id96" stroke="none" /><text fill="#e1ed5e" style="font-size:6.75px; font-family:Arial;" text-anchor="middle"><textPath startOffset="22.20632615414155" xlink:href="#id96">December</textPath></text></svg>