<?xml version="1.0" encoding="utf-8" ?>
<svg baseProfile="full" height="200mm" version="1.1" viewBox="0,0,200,200" width="200mm" xmlns="http://www.w3.org/2000/svg" xmlns:ev="http://www.w3.org/2001/xml-events" xmlns:xlink="http://www.w3.org/1999/xlink"><defs /><rect fill="#1a1a1a" height="200" width="200" x="0" y="0" /><text alignment-baseline="middle" fill="#e1ed5e" style="dominant-baseline: central; font-size:9.0px; font-family:Arial;" text-anchor="middle" x="100.0" y="100.0">2024</text><line stroke="#e1ed5e" stroke-width="0.3" x1="100.0" x2="100.0" y1="15.0" y2="10.0" /><path d="M 100.0 14.0 a86.0,86.0 0 0,1 42.35913384403234,11.155469271406648" fill="none" id="id61" stroke="none" /><text fill="#e1ed5e" style="font-size:6.75px; font-family:Arial;" text-anchor="middle"><textPath startOffset="22.145653131862478" xlink:href="#id61">January</textPath></text><line stroke="#e1ed5e" stroke-width="0.3" x1="143.13028292997686" x2="145.6673583964461" y1="26.7553504044142" y2="22.446841604673864" /><path d="M 143.63769802327073 25.89364864446614 a86.0,86.0 0 0,1 29.32050498858742,28.57503671076993" fill="none" id="id62" stroke="none" /><text fill="#e1ed5e" style="font-size:6.75px; font-family:Arial;" text-anchor="middle"><textPath startOffset="20.669276256404974" xlink:href="#id62">February</textPath></text><line stroke="#e1ed5e" stroke-width="0.3" x1="172.87174338648825" x2="177.1583165268699" y1="56.24261187166439" y2="53.66864786411523" /><path d="M 173.72905801456457 55.72781907015455 a86.0,86.0 0 0,1 12.242430191666344,42.057860355516425" fill="none" id="id63" stroke="none" /><text fill="#e1ed5e" style="font-size:6.75px; font-family:Arial;" text-anchor="middle"><textPath startOffset="22.145653131862474" xlink:href="#id63">March</textPath></text><line stroke="#e1ed5e" stroke-width="0.3" x1="184.99686870605535" x2="189.99668451229388" y1="99.2704041080226" y2="99.22748670261217" /><path d="M 185.99683186730306 99.26182062694052 a86.0,86.0 0 0,1 -10.086455211305974,41.156179273409016" fill="none" id="id64" stroke="none" /><text fill="#e1ed5e" style="font-size:6.75px; font-family:Arial;" text-anchor="middle"><textPath startOffset="21.40746469413373" xlink:href="#id64">April</textPath></text><path d="M 119.71291397450082 107.23885506374661 l 12.132263361503169 4.455135155701837 a33.92439722108705,33.92439722108705 0 0,0 -0.20543535221966336,0.544941678950752 l -12.053997325469066 -4.662745114846747" fill="red" stroke="none" /><line stroke="#e1ed5e" stroke-width="0.3" x1="174.33088141563837" x2="178.70328620479359" y1="141.23008692659167" y2="143.65538615756765" /><path d="M 175.20536237346943 141.71514677278685 a86.0,86.0 0 0,1 -30.301960400862466,31.631185727798858" fill="none" id="id65" stroke="none" /><text fill="#e1ed5e" style="font-size:6.75px; font-family:Arial;" text-anchor="middle"><textPath startOffset="22.145653131862474" xlink:href="#id65">May</textPath></text><path d="M 117.01052211995028 112.31430620078461 l 17.764768809780527 12.86032263837559 a42.931140171638745,42.931140171638745 0 0,0 -0.43728019903224363,0.5932545720810958 l -17.541386591164454 -13.163383519725564" fill="red" stroke="none" /><path d="M 116.79662413953412 112.60449989151573 l 10.3443042820915 7.762558780757746 a33.93297915815284,33.93297915815284 0 0,0 -0.35362692339234997,0.4629089942973319 l -10.209525381344847 -7.9389886882959555" fill="red" stroke="none" /><path d="M 114.91283532996324 114.78537596483092 l 12.255705700268122 12.150956708326515 a38.258275439313444,38.258275439313444 0 0,0 -0.4664013159217886,0.46241500384169426 l -12.045312464216368 -12.359551722396871" fill="red" stroke="none" /><line stroke="#e1ed5e" stroke-width="0.3" x1="143.1302829299769" x2="145.66735839644613" y1="173.24464959558577" y2="177.55315839532614" /><path d="M 143.63769802327073 174.10635135553383 a86.0,86.0 0 0,1 -40.68552437913181,11.842963189579606" fill="none" id="id66" stroke="none" /><text fill="#e1ed5e" style="font-size:6.75px; font-family:Arial;" text-anchor="middle"><textPath startOffset="21.407464694133747" xlink:href="#id66">June</textPath></text><path d="M 108.73861861582097 119.09545874513695 l 3.606867512047068 7.88165644977046 a29.667756436452798,29.667756436452798 0 0,0 -0.4649171909800154,0.20795154601742852 l -3.471036918211426 -7.942411746697739" fill="red" stroke="none" /><path d="M 103.94208987418118 120.62667999033965 l 2.0080976821278442 10.507215614204485 a31.69738455251328,31.69738455251328 0 0,0 -0.5353314922881774,0.09755523072517713 l -1.8274314562886096 -10.540139018861026" fill="red" stroke="none" /><path d="M 103.58742460773223 120.69131181640829 l 6.116361039419237 35.27754511567445 a56.803841438496114,56.803841438496114 0 0,0 -0.9622097291752001,0.15833124477202928 l -5.5098738071909645 -35.377342358942144" fill="red" stroke="none" /><line stroke="#e1ed5e" stroke-width="0.3" x1="101.45913802915013" x2="101.54496967792366" y1="184.9874750549273" y2="189.98673829345242" /><path d="M 101.47630435890484 185.9873277026323 a86.0,86.0 0 0,1 -42.54439059252881,-10.42667462771756" fill="none" id="id67" stroke="none" /><text fill="#e1ed5e" style="font-size:6.75px; font-family:Arial;" text-anchor="middle"><textPath startOffset="22.145653131862474" xlink:href="#id67">July</textPath></text><path d="M 99.63950707515114 120.99690560180557 l -0.15557030185549042 9.06119015754257 a30.06252554147936,30.06252554147936 0 0,0 -0.5159111405027315,-0.013288040916544274 l 0.31109475642896584 -9.057184399275979" fill="red" stroke="none" /><path d="M 97.12497278360702 120.80226474461374 l -2.744611188187165 19.858639331188268 a41.04740498569677,41.04740498569677 0 0,0 -0.697170420873904,-0.10246004348649179 l 3.0851067146687536 -19.808598214402895" fill="red" stroke="none" /><path d="M 96.41257539226777 120.69131181640829 l -2.2951014398875373 13.237535205797787 a34.43502247650184,34.43502247650184 0 0,0 -0.5815669724668505,-0.10598087539860815 l 2.522003145905445 -13.196186156467812" fill="red" stroke="none" /><path d="M 95.35216902796893 120.47920084513623 l -3.8177933198947542 16.821901797598624 a38.24969350224765,38.24969350224765 0 0,0 -0.6390755990115733,-0.15082010125409243 l 4.106001072646215 -16.753885552698307" fill="red" stroke="none" /><path d="M 95.00130118170881 120.39639698878247 l -4.146856804712346 16.920590881580875 a38.42133224356355,38.42133224356355 0 0,0 -0.6392481006252471,-0.16249436741868717 l 4.436710198562972 -16.846911282326925" fill="red" stroke="none" /><path d="M 94.6519064749342 120.30758222061772 l -5.485784531228108 20.830417398345112 a42.540662035145075,42.540662035145075 0 0,0 -0.7045920701130839,-0.19203970189108144 l 5.842558002275887 -20.733177202309886" fill="red" stroke="none" /><path d="M 93.95794788825049 120.11202640906438 l -3.7901716352821797 12.616248687337078 a34.173273395995096,34.173273395995096 0 0,0 -0.5603755618737862,-0.17360578150957237 l 4.006187830027599 -12.549326318020858" fill="red" stroke="none" /><path d="M 92.59220618246901 119.65005319985036 l -8.158563276765841 21.64155838724836 a44.12832039231712,44.12832039231712 0 0,0 -0.7065316821652137,-0.27330163269072144 l 8.528867221424584 -21.498316866419596" fill="red" stroke="none" /><path d="M 91.92203290615298 119.3841803445677 l -10.052067756748746 24.121303289419146 a47.131998365345325,47.131998365345325 0 0,0 -0.7441579759558612,-0.31763678956704283 l 10.464660807875038 -23.9451918501927" fill="red" stroke="none" /><path d="M 91.26138138417905 119.09545874513695 l -17.92720288165966 39.1741736414334 a64.08132407029015,64.08132407029015 0 0,0 -0.99634645423849,-0.46634044906533634 l 18.59703804976964 -38.860656960797535" fill="red" stroke="none" /><path d="M 90.6110303473126 118.78422872680471 l -6.465228387731205 12.934787660263966 a35.46056395586432,35.46056395586432 0 0,0 -0.5421629423291695,-0.2768322614171805 l 6.686318551773957 -12.82189744717395" fill="red" stroke="none" /><path d="M 90.28995756902619 118.62028667847754 l -9.979876057989024 19.137728237176553 a42.583571720474055,42.583571720474055 0 0,0 -0.6452651802480917,-0.3435673637762943 l 10.306930054023677 -18.963590405677685" fill="red" stroke="none" /><path d="M 89.97174638481275 118.45085714620012 l -10.388893712504975 19.114394305524023 a42.75521046178994,42.75521046178994 0 0,0 -0.6418489802232517,-0.3560228096902553 l 10.71548688088433 -18.93323858040062" fill="red" stroke="none" /><line stroke="#e1ed5e" stroke-width="0.3" x1="58.13341422392154" x2="55.67067388415222" y1="173.97424548756322" y2="178.32567169271397" /><path d="M 57.64086615596768 174.84453072859336 a86.0,86.0 0 0,1 -31.369924170532247,-30.572349798747897" fill="none" id="id68" stroke="none" /><text fill="#e1ed5e" style="font-size:6.75px; font-family:Arial;" text-anchor="middle"><textPath startOffset="22.145653131862474" xlink:href="#id68">August</textPath></text><path d="M 89.34428304082925 118.09573695890944 l -3.418364451552528 5.805130164586802 a27.736820596648958,27.736820596648958 0 0,0 -0.4082163182698795,-0.24512217011357199 l 3.517513526379835 -5.7455939939373115" fill="red" stroke="none" /><path d="M 89.03521579738668 117.91015095944536 l -5.220258927684723 8.526900640684035 a30.997956681651,30.997956681651 0 0,0 -0.45144224226054686,-0.28173334769445435 l 5.365865298734983 -8.436031496148034" fill="red" stroke="none" /><path d="M 88.72937992617639 117.7192867562869 l -11.583820795123163 18.211690311426874 a42.583571720474055,42.583571720474055 0 0,0 -0.613435346440833,-0.3976213802473538 l 11.894741773821007 -18.010155089475628" fill="red" stroke="none" /><path d="M 88.4268655584334 117.5232005979908 l -12.533226918737835 18.976902976982263 a43.74213322435635,43.74213322435635 0 0,0 -0.6230206863790609,-0.419196122325645 l 12.857143893213902 -18.7589571805995" fill="red" stroke="none" /><path d="M 88.1277618465304 117.32195027204791 l -12.177898555459207 17.767917933322547 a42.540662035145075,42.540662035145075 0 0,0 -0.5988204058241294,-0.4180231500016246 l 12.481114052457102 -17.556249967515793" fill="red" stroke="none" /><path d="M 87.83215693770417 117.11559508785305 l -12.704879045429442 17.871003452989186 a42.926849203105846,42.926849203105846 0 0,0 -0.5969264348628863,-0.43212870518672947 l 13.009786490666281 -17.65027397642939" fill="red" stroke="none" /><path d="M 87.54013794807813 116.9041958592261 l -12.220543083209034 16.57951371562839 a41.59664895790765,41.59664895790765 0 0,0 -0.5711556856352741,-0.4286058744794932 l 12.503351757755073 -16.367288813884883" fill="red" stroke="none" /><path d="M 84.3458050057657 113.99807769240083 l -9.691910672768685 8.666566286876687 a34.0016346546792,34.0016346546792 0 0,0 -0.38533394548265487,-0.43843929518252095 l 9.839255682209933 -8.498914713882867" fill="red" stroke="none" /><path d="M 84.1078160697243 113.72728997021213 l -16.30458837636174 14.083515108384775 a42.544953003677975,42.544953003677975 0 0,0 -0.4726651824329757,-0.5567983964063483 l 16.543948122301828 -13.801549929528871" fill="red" stroke="none" /><path d="M 83.8745106332314 113.45245675266167 l -10.187987969360137 8.499181912388622 a34.26767470371884,34.26767470371884 0 0,0 -0.37295171670623245,-0.4549404532807146 l 10.332386505305 -8.323039177409411" fill="red" stroke="none" /><path d="M 83.64595745247003 113.17365903436017 l -16.80850715449035 13.539743551865897 a42.583571720474055,42.583571720474055 0 0,0 -0.45368449985965315,-0.5732155448693728 l 17.038458084991564 -13.249208063081843" fill="red" stroke="none" /><path d="M 83.20337586046588 112.60449989151573 l -17.22906685338399 12.929012965960144 a42.540662035145075,42.540662035145075 0 0,0 -0.4333029378516357,-0.5878586534344763 l 17.448471810819456 -12.631348003256788" fill="red" stroke="none" /><path d="M 82.78059297857968 112.02048342749411 l -4.18698290876383 2.922839247796892 a26.106252554147936,26.106252554147936 0 0,0 -0.25336772399173735,-0.3696710812901123 l 4.236540369570892 -2.8505334314367285" fill="red" stroke="none" /><path d="M 82.576782715395 111.72311816256416 l -17.871792147265445 12.024939349422167 a42.540662035145075,42.540662035145075 0 0,0 -0.402466185643628,-0.6093851013785347 l 18.0755827718298 -11.716374369704571" fill="red" stroke="none" /><path d="M 82.18462484594161 111.11811171558189 l -36.47528791247751 22.763277358016055 a63.9955046996322,63.9955046996322 0 0,0 -0.5736192435864517,-0.9369639252387324 l 36.860675120519375 -22.133776316652764" fill="red" stroke="none" /><line stroke="#e1ed5e" stroke-width="0.3" x1="26.387840678322732" x2="22.057713659400548" y1="142.50000000000003" y2="145.00000000000006" /><path d="M 25.521815274538298 143.00000000000003 a86.0,86.0 0 0,1 -11.493303480769221,-40.785679425670985" fill="none" id="id69" stroke="none" /><text fill="#e1ed5e" style="font-size:6.75px; font-family:Arial;" text-anchor="middle"><textPath startOffset="21.40746469413373" xlink:href="#id69">September</textPath></text><path d="M 81.81346652052679 110.50000000000001 l -11.222585024113016 6.47936248467512 a33.95872496935023,33.95872496935023 0 0,0 -0.28713983433200085,-0.5073485740571214 l 11.332158223466395 -6.285757140518877" fill="red" stroke="none" /><path d="M 81.29705330413844 109.54985784667822 l -19.910574639443947 10.166481279361163 a43.35594605639559,43.35594605639559 0 0,0 -0.3327673880074805,-0.6657576880509689 l 20.082161940663163 -9.823191735146441" fill="red" stroke="none" /><path d="M 81.1358732173502 109.22738970284198 l -19.42688986198509 9.50266532536239 a42.62648140580302,42.62648140580302 0 0,0 -0.31588403175852764,-0.660076134958163 l 19.58715315170353 -9.167776688339123" fill="red" stroke="none" /><path d="M 80.83023694016515 108.57439118712176 l -15.197932299174338 6.797841807526045 a37.648957907642014,37.648957907642014 0 0,0 -0.2588206618682311,-0.5922323252526968 l 15.312386843059537 -6.5359474124974986" fill="red" stroke="none" /><path d="M 80.5471966667186 107.91128576633889 l -20.907590014928513 8.50293484490041 a43.57049448304046,43.57049448304046 0 0,0 -0.27582472709316974,-0.6952584943223249 l 21.050473416987806 -8.14277533336452" fill="red" stroke="none" /><path d="M 80.28708602549918 107.23885506374661 l -20.381557971183938 7.4843904010130435 a42.71230077646097,42.71230077646097 0 0,0 -0.24683607425063117,-0.6904444307691678 l 20.507034215478512 -7.133411013862954" fill="red" stroke="none" /><path d="M 80.16572619554312 106.89939002012753 l -20.38545100866738 7.09111806318788 a42.583571720474055,42.583571720474055 0 0,0 -0.23423920643968674,-0.6924865922595873 l 20.504175636679435 -6.740129796454131" fill="red" stroke="none" /><path d="M 79.94057633289273 106.21446072829308 l -25.248477684793773 7.82204292731618 a47.43236616264814,47.43236616264814 0 0,0 -0.23427902711072285,-0.7798386861275322 l 25.379033031908126 -7.3874666375979245" fill="red" stroke="none" /><path d="M 79.64726062577567 105.17358676015961 l -21.596194436115027 5.489668174399026 a43.282999591336335,43.282999591336335 0 0,0 -0.17686767879651558,-0.721680485733163 l 21.687249641427837 -5.118131864057763" fill="red" stroke="none" /><path d="M 79.56144815229197 104.8234425847677 l -20.96058269792534 4.946640444002678 a42.536371066612176,42.536371066612176 0 0,0 -0.1616162095175425,-0.712110839326202 l 21.04240976900055 -4.58609527073745" fill="red" stroke="none" /><path d="M 79.407916724674 104.11899336999214 l -16.864133585514224 3.3732990247095413 a38.19820187985288,38.19820187985288 0 0,0 -0.12309590235068231,-0.6440897764759775 l 16.919555780147064 -3.083306683200249" fill="red" stroke="none" /><path d="M 79.2786578344484 103.40968896794605 l -43.060083740020396 7.085520393136758 a64.63914997956681,64.63914997956681 0 0,0 -0.17076588525319533,-1.0964394825060557 l 43.17537111741186 -6.345292728699252" fill="red" stroke="none" /><path d="M 79.17382384314188 102.69636545807758 l -18.017578636726057 2.3327362790152195 a39.1679607682877,39.1679607682877 0 0,0 -0.08060750237470606,-0.6675457533803048 l 18.054968225360422 -2.0230968487115155" fill="red" stroke="none" /><path d="M 79.0935383218832 101.97986365728391 l -23.033845804741684 2.1813291459082262 a44.13690232938292,44.13690232938292 0 0,0 -0.06495770268308912,-0.7549069690833553 l 23.067897130122514 -1.7856011294492091" fill="red" stroke="none" /><path d="M 79.06263194458094 101.62068470465958 l -42.85871540236783 3.317535629603519 a63.98692276256641,63.98692276256641 0 0,0 -0.07537061935155998,-1.0958722637945304 l 42.90934998288446 -2.5813199416546455" fill="red" stroke="none" /><path d="M 79.01933749520258 100.90099992219065 l -21.482243525038797 0.9225399693701148 a42.502043318348996,42.502043318348996 0 0,0 -0.02504648044467087,-0.7292009500393118 l 21.494914692480314 -0.5536327547666832" fill="red" stroke="none" /><path d="M 79.00696218219943 100.54070618675478 l -21.554968335604386 0.5551795235886215 a42.56211687780956,42.56211687780956 0 0,0 -0.012542789123995026,-0.7305545853091477 l 21.561322556327045 -0.18507802231042142" fill="red" stroke="none" /><line stroke="#e1ed5e" stroke-width="0.3" x1="15.003131293944662" x2="10.003315487706104" y1="100.72959589197737" y2="100.7725132973878" /><path d="M 14.003168132696942 100.73817937305945 a86.0,86.0 0 0,1 10.791469493833604,-42.45332614584628" fill="none" id="id70" stroke="none" /><text fill="#e1ed5e" style="font-size:6.75px; font-family:Arial;" text-anchor="middle"><textPath startOffset="22.145653131862435" xlink:href="#id70">October</textPath></text><path d="M 79.00696218219943 99.45929381324524 l -25.981779743035975 -0.6691984824629319 a46.9903964037597,46.9903964037597 0 0,0 0.027691469697076126,-0.8062069261867836 l 25.966463586342048 1.115111673213854" fill="red" stroke="none" /><path d="M 79.01933749520258 99.09900007780938 l -62.941987514392274 -2.7029997665718684 a84.0,84.0 0 0,0 0.07423364217371864,-1.440112826493152 l 62.886312282761985 3.7830843864417325" fill="red" stroke="none" /><path d="M 79.13060592940154 97.66154086499901 l -25.790375018181344 -2.8898653143616673 a46.951777686963624,46.951777686963624 0 0,0 0.09662656562049636,-0.8002065768499713 l 25.73696636630118 3.332165568135075" fill="red" stroke="none" /><path d="M 79.17382384314186 97.30363454192245 l -21.55811369240771 -2.7911294259544137 a42.73804658765836,42.73804658765836 0 0,0 0.10044556908666318,-0.7267741010068111 l 21.507023606765834 3.160791835161292" fill="red" stroke="none" /><path d="M 79.34024301695615 96.23510406497455 l -21.15788761728969 -3.8556719301895255 a42.506334286881895,42.506334286881895 0 0,0 0.13697910679463232,-0.7167325686105407 l 21.088582218212895 4.218307063833381" fill="red" stroke="none" /><path d="M 79.407916724674 95.88100663000787 l -42.130880636665154 -8.42735607146122 a63.96546791990192,63.96546791990192 0 0,0 0.22461714440971883,-1.07487434832211 l 41.98000578143107 9.14934687106874" fill="red" stroke="none" /><path d="M 79.73907114497095 94.47779374421319 l -20.828102384481237 -5.676791923347661 a42.58786268900695,42.58786268900695 0 0,0 0.19830025871674972,-0.7036976614758059 l 20.727583633689907 6.03349750872648" fill="red" stroke="none" /><path d="M 79.83685265289637 94.1308016681162 l -26.013508857705837 -7.572153303537864 a48.093175316714344,48.093175316714344 0 0,0 0.23754291078858167,-0.7907030933704886 l 25.879689626913624 8.017594000499077" fill="red" stroke="none" /><path d="M 79.94057633289273 93.78553927170692 l -41.18862861274233 -12.760342431266269 a64.11994278708623,64.11994278708623 0 0,0 0.33475276913372415,-1.048608281477224 l 40.963511127831346 13.465519746434886" fill="red" stroke="none" /><path d="M 80.05021161711548 93.44210830539832 l -20.997417237482257 -6.902268107661068 a43.10277891295463,43.10277891295463 0 0,0 0.23709520643759574,-0.7009298487754487 l 20.875836609472294 7.2616996309106785" fill="red" stroke="none" /><path d="M 80.28708602549916 92.7611449362534 l -24.208135060635474 -8.889562511875168 a46.78872088271353,46.78872088271353 0 0,0 0.2833376018977095,-0.7515866515658038 l 24.051966774923326 9.303817443635117" fill="red" stroke="none" /><path d="M 80.5471966667186 92.08871423366112 l -21.686656106739537 -8.81977424216283 a44.41152431548835,44.41152431548835 0 0,0 0.29327288701419024,-0.7037481665882548 l 21.53205737518887 9.190754918192349" fill="red" stroke="none" /><path d="M 80.9802524753101 91.09779779509293 l -22.22209161139699 -10.401060933318071 a45.53575807110748,45.53575807110748 0 0,0 0.33744326001828534,-0.7051266301768073 l 22.0402690934188 10.781000065559965" fill="red" stroke="none" /><path d="M 81.29705330413844 90.45014215332179 l -25.039171792252734 -12.785179528286813 a49.11442582754393,49.11442582754393 0 0,0 0.3898561182085897,-0.747600511120974 l 24.816007605069206 13.213126282512272" fill="red" stroke="none" /><path d="M 81.46374523516351 90.13048839642627 l -19.7217569596452 -10.500724748632694 a43.3430731507969,43.3430731507969 0 0,0 0.35531960023198683,-0.6537480439462336 l 19.538592009797863 10.837727626053548" fill="red" stroke="none" /><line stroke="#e1ed5e" stroke-width="0.3" x1="26.387840678322718" x2="22.05771365940052" y1="57.49999999999999" y2="54.99999999999999" /><path d="M 25.521815274538284 56.99999999999999 a86.0,86.0 0 0,1 29.574782752854787,-30.34633250058573" fill="none" id="id71" stroke="none" /><text fill="#e1ed5e" style="font-size:6.75px; font-family:Arial;" text-anchor="middle"><textPath startOffset="21.40746469413373" xlink:href="#id71">November</textPath></text><path d="M 81.99639281039701 89.18935116829357 l -43.34624101248305 -26.028172289333238 a71.56048222313036,71.56048222313036 0 0,0 0.6414273920673091,-1.0477234398020014 l 42.89304565596034 26.76843284525978" fill="red" stroke="none" /><path d="M 82.37810715431573 88.57770195909679 l -18.035974921134557 -11.690701039412383 a42.493461381283204,42.493461381283204 0 0,0 0.40201963248222733,-0.6087089629767631 l 17.8326308497316 11.998589880728208" fill="red" stroke="none" /><path d="M 82.78059297857968 87.97951657250589 l -19.179196500564395 -13.388568688857877 a44.39006947282387,44.39006947282387 0 0,0 0.44154358514659514,-0.62108634852677 l 18.946537816887826 13.715832264094166" fill="red" stroke="none" /><path d="M 83.2033758604659 87.39550010848427 l -21.097026682818992 -15.831602131824116 a47.376583571720474,47.376583571720474 0 0,0 0.49372722068473623,-0.6463047807330193 l 20.82214748477995 16.19142782579802" fill="red" stroke="none" /><path d="M 83.64595745247003 86.82634096563983 l -22.25874078649309 -17.930065964011664 a49.582141397629755,49.582141397629755 0 0,0 0.5396264821613469,-0.6582565661981845 l 21.947667485093113 18.309524811908343" fill="red" stroke="none" /><path d="M 84.34580500576568 86.00192230759919 l -16.642577963833492 -14.881895838488239 a43.3259092766653,43.3259092766653 0 0,0 0.5005221525540826,-0.5501615242325969 l 16.38465811043754 15.165394938278494" fill="red" stroke="none" /><path d="M 85.08716467003674 85.21462403516908 l -30.523471904422127 -30.2625890967943 a63.98263179403351,63.98263179403351 0 0,0 0.7800033671724398,-0.7733367117859115 l 29.99947661711971 30.782105818808887" fill="red" stroke="none" /><path d="M 85.86807049272753 84.46653392183569 l -29.18500439926501 -32.079432295056534 a64.36881896199428,64.36881896199428 0 0,0 0.823721563674356,-0.7365769015568252 l 28.630017808767267 32.57570472649677" fill="red" stroke="none" /><line stroke="#e1ed5e" stroke-width="0.3" x1="56.869717070023135" x2="54.33264160355391" y1="26.7553504044142" y2="22.446841604673864" /><path d="M 56.362301976729285 25.89364864446614 a86.0,86.0 0 0,1 42.16139366436587,-11.88097634709845" fill="none" id="id72" stroke="none" /><text fill="#e1ed5e" style="font-size:6.75px; font-family:Arial;" text-anchor="middle"><textPath startOffset="22.145653131862474" xlink:href="#id72">December</textPath></text><path d="M 90.28995756902619 81.37971332152246 l -12.154417640405725 -23.307698445515612 a47.28647323252963,47.28647323252963 0 0,0 0.722971396958791,-0.3691543466623151 l 11.752519021733352 23.51291074385076" fill="red" stroke="none" /><path d="M 91.26138138417902 80.90454125486306 l -25.24807258432951 -55.171595148393216 a81.6742950551696,81.6742950551696 0 0,0 1.2799007539939011,-0.5724833275811194 l 24.29725842747999 55.59688222688418" fill="red" stroke="none" /><path d="M 91.5904679813234 80.7573450057729 l -17.783050032955472 -40.69109859731431 a65.40723334695545,65.40723334695545 0 0,0 1.0327021146663502,-0.4407991244874757 l 17.08191284311869 40.99037237146119" fill="red" stroke="none" /><path d="M 93.95794788825049 79.88797359093562 l -6.588972644137129 -21.932546985119863 a43.900899060073556,43.900899060073556 0 0,0 0.723612221766163,-0.210632971718617 l 6.211500409989342 22.042423651141" fill="red" stroke="none" /><path d="M 94.6519064749342 79.69241777938228 l -6.73702423008392 -25.581578338804306 a47.453821005312626,47.453821005312626 0 0,0 0.7895292321660284,-0.20069524338656036 l 6.296889704692513 25.69345881402613" fill="red" stroke="none" /></svg>