<?xml version="1.0" encoding="utf-8" ?>
<svg baseProfile="full" height="200mm" version="1.1" viewBox="0,0,200,200" width="200mm" xmlns="http://www.w3.org/2000/svg" xmlns:ev="http://www.w3.org/2001/xml-events" xmlns:xlink="http://www.w3.org/1999/xlink"><defs /><rect fill="#1a1a1a" height="200" width="200" x="0" y="0" /><rect fill="#1a1a1a" height="200" width="180" x="10" y="0" /><text alignment-baseline="middle" fill="#e1ed5e" style="dominant-baseline: central; font-size:9.0px; font-family:Arial;" text-anchor="middle" x="100.0" y="100.0">2024</text><line stroke="#e1ed5e" stroke-width="0.3" x1="100.0" x2="100.0" y1="15.0" y2="10.0" /><path d="M 100.0 14.0 a86.0,86.0 0 0,1 42.35913384403234,11.155469271406648" fill="none" id="id61" stroke="none" /><text fill="#e1ed5e" style="font-size:6.75px; font-family:Arial;" text-anchor="middle"><textPath startOffset="22.145653131862478" xlink:href="#id61">January</textPath></text><line stroke="#e1ed5e" stroke-width="0.3" x1="143.13028292997686" x2="145.6673583964461" y1="26.7553504044142" y2="22.446841604673864" /><path d="M 143.63769802327073 25.89364864446614 a86.0,86.0 0 0,1 29.32050498858742,28.57503671076993" fill="none" id="id62" stroke="none" /><text fill="#e1ed5e" style="font-size:6.75px; font-family:Arial;" text-anchor="middle"><textPath startOffset="20.669276256404974" xlink:href="#id62">February</textPath></text><line stroke="#e1ed5e" stroke-width="0.3" x1="172.87174338648825" x2="177.1583165268699" y1="56.24261187166439" y2="53.66864786411523" /><path d="M 173.72905801456457 55.72781907015455 a86.0,86.0 0 0,1 12.242430191666344,42.057860355516425" fill="none" id="id63" stroke="none" /><text fill="#e1ed5e" style="font-size:6.75px; font-family:Arial;" text-anchor="middle"><textPath startOffset="22.145653131862474" xlink:href="#id63">March</textPath></text><line stroke="#e1ed5e" stroke-width="0.3" x1="184.99686870605535" x2="189.99668451229388" y1="99.2704041080226" y2="99.22748670261217" /><path d="M 185.99683186730306 99.26182062694052 a86.0,86.0 0 0,1 -10.086455211305974,41.156179273409016" fill="none" id="id64" stroke="none" /><text fill="#e1ed5e" style="font-size:6.75px; font-family:Arial;" text-anchor="middle"><textPath startOffset="21.40746469413373" xlink:href="#id64">April</textPath></text><path d="M 119.71291397450082 107.23885506374661 l 11.011058334276411 4.043413139396325 a32.729987018606664,32.729987018606664 0 0,0 -0.1982023841865926,0.5257553719147352 l -10.940025266275377 -4.231836791505219" fill="red" stroke="none" /><line stroke="#e1ed5e" stroke-width="0.3" x1="174.33088141563837" x2="178.70328620479359" y1="141.23008692659167" y2="143.65538615756765" /><path d="M 175.20536237346943 141.71514677278685 a86.0,86.0 0 0,1 -30.301960400862466,31.631185727798858" fill="none" id="id65" stroke="none" /><text fill="#e1ed5e" style="font-size:6.75px; font-family:Arial;" text-anchor="middle"><textPath startOffset="22.145653131862474" xlink:href="#id65">May</textPath></text><path d="M 117.01052211995028 112.31430620078461 l 16.1230349054335 11.671833898536837 a40.9043704024232,40.9043704024232 0 0,0 -0.4166362961558743,0.5652471530529565 l -15.920296589693796 -11.946887360858671" fill="red" stroke="none" /><path d="M 116.79662413953412 112.60449989151573 l 9.388333774474093 7.045180689811784 a32.737775854608394,32.737775854608394 0 0,0 -0.34117131007614493,0.4466041966358605 l -9.266010487043644 -7.205305799688522" fill="red" stroke="none" /><path d="M 114.91283532996324 114.78537596483092 l 11.123092729884194 11.028024132512206 a36.66334919948075,36.66334919948075 0 0,0 -0.4469577919125551,0.4431376627997717 l -10.932143017841675 -11.217341805540638" fill="red" stroke="none" /><path d="M 114.39649973595853 115.28858382429668 l 12.68693207861932 13.473082215440035 a39.506274340112505,39.506274340112505 0 0,0 -0.49772304936651013,0.46068502391996613 l -12.453779257938843 -13.68888498549238" fill="red" stroke="none" /><line stroke="#e1ed5e" stroke-width="0.3" x1="143.1302829299769" x2="145.66735839644613" y1="173.24464959558577" y2="177.55315839532614" /><path d="M 143.63769802327073 174.10635135553383 a86.0,86.0 0 0,1 -40.68552437913181,11.842963189579606" fill="none" id="id66" stroke="none" /><text fill="#e1ed5e" style="font-size:6.75px; font-family:Arial;" text-anchor="middle"><textPath startOffset="21.407464694133747" xlink:href="#id66">June</textPath></text><path d="M 108.73861861582097 119.09545874513695 l 3.273538283481181 7.153271929005991 a28.86672436174816,28.86672436174816 0 0,0 -0.452364385281537,0.2023368356937417 l -3.150260495344017 -7.2084125156095835" fill="red" stroke="none" /><path d="M 103.94208987418118 120.62667999033965 l 1.822519018915807 9.5361896302003 a30.708784076157507,30.708784076157507 0 0,0 -0.5186351946044502,0.09451260910426297 l -1.6585490907602995 -9.566070413235925" fill="red" stroke="none" /><path d="M 103.58742460773223 120.69131181640829 l 5.551116571722399 32.01736523387107 a53.495023799221116,53.495023799221116 0 0,0 -0.9061611161949648,0.14910846683513052 l -5.000677952474362 -32.10793969920187" fill="red" stroke="none" /><line stroke="#e1ed5e" stroke-width="0.3" x1="101.45913802915013" x2="101.54496967792366" y1="184.9874750549273" y2="189.98673829345242" /><path d="M 101.47630435890484 185.9873277026323 a86.0,86.0 0 0,1 -42.54439059252881,-10.42667462771756" fill="none" id="id67" stroke="none" /><text fill="#e1ed5e" style="font-size:6.75px; font-family:Arial;" text-anchor="middle"><textPath startOffset="22.145653131862474" xlink:href="#id67">July</textPath></text><path d="M 99.63950707515114 120.99690560180557 l -0.14119324793486498 8.223798843607595 a29.22501081782778,29.22501081782778 0 0,0 -0.5015383235658862,-0.012917848136142803 l 0.2823448855714952 -8.220163278121404" fill="red" stroke="none" /><path d="M 97.12497278360702 120.80226474461374 l -2.490967513442786 18.023400053193185 a39.19472090004327,39.19472090004327 0 0,0 -0.6657034732266285,-0.09783548580619665 l 2.7999960922770994 -17.977983494088107" fill="red" stroke="none" /><path d="M 96.41257539226777 120.69131181640829 l -2.082999279250097 12.014186307196828 a33.19342276070965,33.19342276070965 0 0,0 -0.5605978156085473,-0.10215959649965832 l 2.2889318284097016 -11.976658536765804" fill="red" stroke="none" /><path d="M 95.35216902796893 120.47920084513623 l -3.4649713496133256 15.267303096516224 a36.65556036347901,36.65556036347901 0 0,0 -0.612440834199591,-0.14453436928116922 l 3.7265443375528045 -15.205572583588829" fill="red" stroke="none" /><path d="M 95.00130118170881 120.39639698878247 l -3.7636243807125336 15.356871813276278 a36.81133708351363,36.81133708351363 0 0,0 -0.6124612536321898,-0.15568525566220232 l 4.026690927570102 -15.290001325778814" fill="red" stroke="none" /><path d="M 94.6519064749342 120.30758222061772 l -4.978814890739389 18.90537109739154 a40.54997836434444,40.54997836434444 0 0,0 -0.6716207936578431,-0.18305323387645187 l 5.302617085331927 -18.817117369370944" fill="red" stroke="none" /><path d="M 93.95794788825049 120.11202640906438 l -3.439902327329726 11.450316080081786 a32.95586326265686,32.95586326265686 0 0,0 -0.5404123912522617,-0.1674211402208445 l 3.6359553514536214 -11.389578352054293" fill="red" stroke="none" /><path d="M 92.59220618246901 119.65005319985036 l -7.404588368021025 19.641550364194874 a41.99091302466465,41.99091302466465 0 0,0 -0.672309984862573,-0.2600639450082711 l 7.740670615377126 -19.511546531048563" fill="red" stroke="none" /><path d="M 91.92203290615298 119.3841803445677 l -9.123104333596158 21.892129251112806 a44.717005625270446,44.717005625270446 0 0,0 -0.7060281242260096,-0.30136142320470505 l 9.4975675329926 -21.732293178248696" fill="red" stroke="none" /><path d="M 91.26138138417905 119.09545874513695 l -16.270457607005447 35.55388622139613 a60.09995672868888,60.09995672868888 0 0,0 -0.9344435317977148,-0.437366755701263 l 16.878389852674655 -35.26934323412434" fill="red" stroke="none" /><path d="M 90.6110303473126 118.78422872680471 l -5.867743289155565 11.739417223712406 a34.12418866291649,34.12418866291649 0 0,0 -0.5217308600367845,-0.2663994946143385 l 6.0684013709059315 -11.636959777425231" fill="red" stroke="none" /><path d="M 90.28995756902619 118.62028667847754 l -9.05758424203467 17.369112071349825 a40.588922544353096,40.588922544353096 0 0,0 -0.6150404337517198,-0.32747438868259293 l 9.35441349157295 -17.21106721494466" fill="red" stroke="none" /><path d="M 89.97174638481275 118.45085714620012 l -9.428802465661006 17.34793454866191 a40.74469926438771,40.74469926438771 0 0,0 -0.6116668211871428,-0.33928127485317255 l 9.725213475004251 -17.183520358375592" fill="red" stroke="none" /><line stroke="#e1ed5e" stroke-width="0.3" x1="58.13341422392154" x2="55.67067388415222" y1="173.97424548756322" y2="178.32567169271397" /><path d="M 57.64086615596768 174.84453072859336 a86.0,86.0 0 0,1 -31.369924170532247,-30.572349798747897" fill="none" id="id68" stroke="none" /><text fill="#e1ed5e" style="font-size:6.75px; font-family:Arial;" text-anchor="middle"><textPath startOffset="22.145653131862474" xlink:href="#id68">August</textPath></text><path d="M 89.34428304082925 118.09573695890944 l -3.1024557629779457 5.268648147151106 a27.11423626135872,27.11423626135872 0 0,0 -0.3990534409213709,-0.2396201255366425 l 3.192441960456744 -5.214614021078544" fill="red" stroke="none" /><path d="M 89.03521579738668 117.91015095944536 l -4.737827877620518 7.738885776505101 a30.073993942016443,30.073993942016443 0 0,0 -0.4379860065728336,-0.2733356614064329 l 4.869978012983064 -7.656414318257121" fill="red" stroke="none" /><path d="M 88.72937992617639 117.7192867562869 l -10.513300173950563 16.528654086194557 a40.588922544353096,40.588922544353096 0 0,0 -0.584701535279723,-0.37899647100477996 l 10.795487341487297 -16.345743773485882" fill="red" stroke="none" /><path d="M 88.4268655584334 117.5232005979908 l -11.374966781288801 17.22314950287777 a41.64041540458676,41.64041540458676 0 0,0 -0.5930858482235488,-0.3990546272652361 l 11.668948917609356 -17.025345201555414" fill="red" stroke="none" /><path d="M 88.1277618465304 117.32195027204791 l -11.052476144603578 16.125893002227954 a40.54997836434444,40.54997836434444 0 0,0 -0.570798697966563,-0.39846182164153954 l 11.327669933743906 -15.933786364781287" fill="red" stroke="none" /><path d="M 87.83215693770417 117.11559508785305 l -11.530755649687523 16.219451857376967 a40.90047598442233,40.90047598442233 0 0,0 -0.5687483653426367,-0.4117299558848259 l 11.807485025404112 -16.019121130119075" fill="red" stroke="none" /><path d="M 87.54013794807813 116.9041958592261 l -11.091179671612474 15.04731534727428 a39.69320640415405,39.69320640415405 0 0,0 -0.5450198774850403,-0.4089930767971946 l 11.347852538008281 -14.85470324321307" fill="red" stroke="none" /><path d="M 84.3458050057657 113.99807769240083 l -8.796231223192793 7.865644200032359 a32.80008654262224,32.80008654262224 0 0,0 -0.3717170332545121,-0.42294574868899537 l 8.929959320405898 -7.713486173532064" fill="red" stroke="none" /><path d="M 84.1078160697243 113.72728997021213 l -14.797797276487797 12.781984843994886 a40.55387278234531,40.55387278234531 0 0,0 -0.45054471385533884,-0.5307405400430193 l 15.015036553850248 -12.526077521502312" fill="red" stroke="none" /><path d="M 83.8745106332314 113.45245675266167 l -9.246463458375812 7.713728678845875 a33.0415404586759,33.0415404586759 0 0,0 -0.3596071032898036,-0.43866219471646173 l 9.377517380904246 -7.553864202430919" fill="red" stroke="none" /><path d="M 83.64595745247003 113.17365903436017 l -15.255146321458074 12.288466021418994 a40.588922544353096,40.588922544353096 0 0,0 -0.43243354844101456,-0.5463656619657342 l 15.46384630054065 -12.02478041553858" fill="red" stroke="none" /><path d="M 83.20337586046588 112.60449989151573 l -15.636839929615117 11.734176198691156 a40.54997836434444,40.54997836434444 0 0,0 -0.4130265941929832,-0.5603498990769615 l 15.835968543391932 -11.464019990345315" fill="red" stroke="none" /><path d="M 82.78059297857968 112.02048342749411 l -3.8000422245453764 2.652724598884464 a25.634357421029858,25.634357421029858 0 0,0 -0.2487878634547677,-0.3629889278958832 l 3.8450198248154694 -2.5871009359185297" fill="red" stroke="none" /><path d="M 82.576782715395 111.72311816256416 l -16.22016766434761 10.913652687656318 a40.54997836434444,40.54997836434444 0 0,0 -0.3836328430137393,-0.5808690202338351 l 16.405124946282076 -10.633603789083422" fill="red" stroke="none" /><path d="M 82.18462484594161 111.11811171558189 l -33.10441844167614 20.659605499807856 a60.02206836867157,60.02206836867157 0 0,0 -0.5380036241253294,-0.8787884874667031 l 33.454190030256875 -20.088279896216598" fill="red" stroke="none" /><line stroke="#e1ed5e" stroke-width="0.3" x1="26.387840678322732" x2="22.057713659400548" y1="142.50000000000003" y2="145.00000000000006" /><path d="M 25.521815274538298 143.00000000000003 a86.0,86.0 0 0,1 -11.493303480769221,-40.785679425670985" fill="none" id="id69" stroke="none" /><text fill="#e1ed5e" style="font-size:6.75px; font-family:Arial;" text-anchor="middle"><textPath startOffset="21.40746469413373" xlink:href="#id69">September</textPath></text><path d="M 81.81346652052679 110.50000000000001 l -10.185448063548693 5.880571181306797 a32.76114236261358,32.76114236261358 0 0,0 -0.2770136098754698,-0.4894565057185182 l 10.28489503844554 -5.704857905489157" fill="red" stroke="none" /><path d="M 81.29705330413844 109.54985784667822 l -18.070535751765842 9.226944312516574 a41.28991778450887,41.28991778450887 0 0,0 -0.31691012057082785,-0.6340325308153252 l 18.226265785548406 -8.915379925537495" fill="red" stroke="none" /><path d="M 81.1358732173502 109.22738970284198 l -17.63155077911017 8.624475014339536 a40.62786672436175,40.62786672436175 0 0,0 -0.30107327462623695,-0.6291273488822662 l 17.77700331169632 -8.320535163392165" fill="red" stroke="none" /><path d="M 80.83023694016515 108.57439118712176 l -13.793412994775146 6.1696181874326115 a36.11034184335785,36.11034184335785 0 0,0 -0.24824332718884842,-0.5680293135343512 l 13.897290203980962 -5.931926804122411" fill="red" stroke="none" /><path d="M 80.5471966667186 107.91128576633889 l -18.975411794472418 7.717134783509167 a41.48463868455214,41.48463868455214 0 0,0 -0.2626201350131397,-0.6619742964026761 l 19.10509060445168 -7.390259469892925" fill="red" stroke="none" /><path d="M 80.28708602549918 107.23885506374661 l -18.497993084806986 6.792719284643229 a40.70575508437906,40.70575508437906 0 0,0 -0.23524016739395884,-0.6580086154888697 l 18.611873422244887 -6.474175712773437" fill="red" stroke="none" /><path d="M 80.16572619554312 106.89939002012753 l -18.50152634661893 6.435791271788616 a40.588922544353096,40.588922544353096 0 0,0 -0.2232672512639421,-0.6600499563711683 l 18.60927901945524 -6.117239640943286" fill="red" stroke="none" /><path d="M 79.94057633289273 106.21446072829308 l -22.91513564740942 7.099167599607847 a44.98961488533102,44.98961488533102 0 0,0 -0.22221373416790544,-0.7396772499447546 l 23.033625701580956 -6.704752746072369" fill="red" stroke="none" /><path d="M 79.64726062577567 105.17358676015961 l -25.84321069950806 6.5692431007256245 a47.66508005192557,47.66508005192557 0 0,0 -0.1947742103835528,-0.794745245227162 l 25.952172436407906 -6.124642030890363" fill="red" stroke="none" /><path d="M 79.56144815229197 104.8234425847677 l -19.023507150333177 4.489495889154189 a40.54608394634357,40.54608394634357 0 0,0 -0.15405414787091842,-0.6787910004171634 l 19.097772159761764 -4.162270554797999" fill="red" stroke="none" /><path d="M 79.407916724674 104.11899336999214 l -19.177865279474656 3.8361101633369334 a40.55776720034617,40.55776720034617 0 0,0 -0.13069973729545475,-0.6838762539818356 l 19.24089130905227 -3.5063313443217834" fill="red" stroke="none" /><path d="M 79.2786578344484 103.40968896794605 l -39.08067932688259 6.430710911295907 a60.606231068801385,60.606231068801385 0 0,0 -0.1601115841343082,-1.0280312264428753 l 39.18531240315516 -5.758891502921582" fill="red" stroke="none" /><path d="M 79.22317932658666 103.0534771498775 l -11.20075743913196 1.6461256242864342 a32.32107312851579,32.32107312851579 0 0,0 -0.07596296141486791,-0.5496301478910964 l 11.22736491710204 -1.453607168195252" fill="red" stroke="none" /><path d="M 79.17382384314188 102.69636545807758 l -21.226555756585082 2.7482026131410757 a42.40372133275638,42.40372133275638 0 0,0 -0.08726668432516306,-0.7226933327129359 l 21.270604527169905 -2.3834156035047402" fill="red" stroke="none" /><path d="M 79.13060592940153 102.33845913500099 l -5.124141265278923 0.5741707167103852 a26.156209433145825,26.156209433145825 0 0,0 -0.04616895740167586,-0.446642781759363 l 5.133242615162264 -0.4861234126680908" fill="red" stroke="none" /><path d="M 79.0935383218832 101.97986365728391 l -25.829050077198637 2.4460378966728245 a46.944612721765466,46.944612721765466 0 0,0 -0.06908990062320575,-0.8029293727980426 l 25.867233600519583 -2.00228747649912" fill="red" stroke="none" /><path d="M 79.06263194458094 101.62068470465958 l -38.897920475833864 3.0109450524719583 a60.01427953266984,60.01427953266984 0 0,0 -0.07069121662717623,-1.0278347751697197 l 38.94387565362611 -2.342766853147895" fill="red" stroke="none" /><path d="M 79.01933749520258 100.90099992219065 l -19.49695861004016 0.8372832929648285 a40.51492860233665,40.51492860233665 0 0,0 -0.023875472512107917,-0.6951083317644693 l 19.508458769549115 -0.5024686966362393" fill="red" stroke="none" /><path d="M 79.00696218219943 100.54070618675478 l -19.56296254579611 0.5038725205741573 a40.56945045434877,40.56945045434877 0 0,0 -0.011955562816250806,-0.6963515968433687 l 19.568729540211027 -0.1679740077617363" fill="red" stroke="none" /><line stroke="#e1ed5e" stroke-width="0.3" x1="15.003131293944662" x2="10.003315487706104" y1="100.72959589197737" y2="100.7725132973878" /><path d="M 14.003168132696942 100.73817937305945 a86.0,86.0 0 0,1 10.791469493833604,-42.45332614584628" fill="none" id="id70" stroke="none" /><text fill="#e1ed5e" style="font-size:6.75px; font-family:Arial;" text-anchor="middle"><textPath startOffset="22.145653131862435" xlink:href="#id70">October</textPath></text><path d="M 79.00077361379809 100.18025310272382 l -5.61164960546151 0.04816926272331582 a26.61185633924708,26.61185633924708 0 0,0 0.0,-0.4568447308942647 l 5.61164960546151 0.048169262723313754" fill="red" stroke="none" /><path d="M 79.00696218219943 99.45929381324524 l -23.580669480574535 -0.6073543994263935 a44.58848983124189,44.58848983124189 0 0,0 0.0262760246666366,-0.7649977885115269 l 23.566768768911047 1.0120584525020588" fill="red" stroke="none" /><path d="M 79.01933749520258 99.09900007780938 l -57.12519383608255 -2.4532016179024647 a78.17784508870619,78.17784508870619 0 0,0 0.06908840688365979,-1.3402966364266722 l 57.07466383974232 3.433470047705849" fill="red" stroke="none" /><path d="M 79.13060592940154 97.66154086499901 l -28.147945183061623 -3.154035968757288 a49.32410212029424,49.32410212029424 0 0,0 0.10150879955972322,-0.8406384775679739 l 28.08965429724223 3.6367681232486984" fill="red" stroke="none" /><path d="M 79.17382384314186 97.30363454192245 l -24.559619369746095 -3.1797344281229853 a45.76460406750324,45.76460406750324 0 0,0 0.1075587694481487,-0.7782416753857228 l 24.501416083742736 3.600864411708775" fill="red" stroke="none" /><path d="M 79.22317932658666 96.9465228501225 l -9.278095601455027 -1.363560544644556 a30.377758546083946,30.377758546083946 0 0,0 0.08025298649146329,-0.5152817428832378 l 9.253321122825296 1.5226304694592439" fill="red" stroke="none" /><path d="M 79.2786578344484 96.59031103205396 l -10.044925836821148 -1.6528887239063386 a31.180008654262224,31.180008654262224 0 0,0 0.09143935826506916,-0.5273979194090551 l 10.015071661063844 1.8250796762359862" fill="red" stroke="none" /><path d="M 79.34024301695615 96.23510406497455 l -25.719654193084008 -4.686977760739165 a47.14322803980961,47.14322803980961 0 0,0 0.15192176358293286,-0.7949188630926717 l 25.635406137218915 5.127799188865151" fill="red" stroke="none" /><path d="M 79.407916724674 95.88100663000787 l -38.23734867450811 -7.648540634307575 a59.99480744266551,59.99480744266551 0 0,0 0.2106740209273081,-1.0081514549912551 l 38.10041694275644 8.303808540584239" fill="red" stroke="none" /><path d="M 79.48165901384962 95.52812308129327 l -4.832470739768368 -1.0532145057966626 a25.94591086109909,25.94591086109909 0 0,0 0.09858104160518111,-0.4343662587353058 l 4.813678836605526 1.1360150984709767" fill="red" stroke="none" /><path d="M 79.56144815229197 95.17655741523228 l -10.093564363685443 -2.382053706478906 a31.370835136304628,31.370835136304628 0 0,0 0.12819090277598674,-0.5230626285788605 l 10.051185934393159 2.5549721596658843" fill="red" stroke="none" /><path d="M 79.64726062577567 94.8264132398404 l -5.110516618538617 -1.2990733399127328 a26.273041973171786,26.273041973171786 0 0,0 0.11486388687600657,-0.4361568876799909 l 5.087463250857885 1.3866107319655083" fill="red" stroke="none" /><path d="M 79.73907114497095 94.47779374421319 l -28.954203700968147 -7.891596972323641 a51.01038511466898,51.01038511466898 0 0,0 0.23751773220802985,-0.8428666396878963 l 28.814467476685536 8.387471535914552" fill="red" stroke="none" /><path d="M 79.83685265289637 94.1308016681162 l -28.582635529689103 -8.319988634898888 a50.76893119861532,50.76893119861532 0 0,0 0.2507590654001389,-0.834695373751029 l 28.435600144285335 8.809421612240639" fill="red" stroke="none" /><path d="M 79.94057633289273 93.78553927170692 l -37.3821750196132 -11.581093377996622 a60.13500649069667,60.13500649069667 0 0,0 0.3139485013497149,-0.9834392089559233 l 37.17786180248623 12.221101620643937" fill="red" stroke="none" /><path d="M 80.05021161711548 93.44210830539832 l -23.374438338949947 -7.683642157351816 a45.604932929467765,45.604932929467765 0 0,0 0.25085879055085897,-0.7416194395776861 l 23.239094126826725 8.083763271403663" fill="red" stroke="none" /><path d="M 80.16572619554312 93.10060997987247 l -4.340318307954341 -1.509788012069693 a25.595413241021202,25.595413241021202 0 0,0 0.14791690469453986,-0.41374990820531443 l 4.313761233215858 1.5840728766559289" fill="red" stroke="none" /><path d="M 80.28708602549916 92.7611449362534 l -26.558877423146793 -9.752787668563837 a49.29294677628732,49.29294677628732 0 0,0 0.2985023968719934,-0.7918130719211183 l 26.387544342460362 10.2072690206791" fill="red" stroke="none" /><path d="M 80.41425534168474 92.42381321644754 l -8.633612237030732 -3.3396666843983778 a30.257031588057117,30.257031588057117 0 0,0 0.1915433271860919,-0.48281430987116347 l 8.57501023487851 3.487382011483124" fill="red" stroke="none" /><path d="M 80.5471966667186 92.08871423366112 l -29.934974728238068 -12.174293618547315 a53.31588057118131,53.31588057118131 0 0,0 0.35207308147631144,-0.8448472278381562 l 29.721575802225278 12.686373355826737" fill="red" stroke="none" /><path d="M 80.68587082218212 91.75594674310238 l -9.423652197596374 -4.0223967581562 a31.246213760276937,31.246213760276937 0 0,0 0.21480450391613748,-0.49151474194812916 l 9.353213811663258 4.1835735698801955" fill="red" stroke="none" /><path d="M 80.9802524753101 91.09779779509293 l -20.168433519103083 -9.439845250848482 a43.268282128948506,43.268282128948506 0 0,0 0.3206401034146261,-0.6700144954978413 l 20.003414157728553 9.784672248411411" fill="red" stroke="none" /><path d="M 81.1358732173502 90.77261029715801 l -4.59329884384358 -2.24681263766425 a26.113370835136305,26.113370835136305 0 0,0 0.20042644654958014,-0.40098715345302577 l 4.554052484082256 2.3253316472810464" fill="red" stroke="none" /><path d="M 81.29705330413844 90.45014215332179 l -27.379809831946172 -13.980325989060608 a51.742535698831674,51.742535698831674 0 0,0 0.41071729484625513,-0.7876045679729412 l 27.135784468124978 14.448276800138036" fill="red" stroke="none" /><path d="M 81.46374523516351 90.13048839642627 l -26.90547061464583 -14.325647645639776 a51.48160969277369,51.48160969277369 0 0,0 0.42203802466183005,-0.7765024302443922 l 26.65558724036865 14.785404909358789" fill="red" stroke="none" /><path d="M 81.63589988554816 89.8137432299009 l -4.546468502094307 -2.521849438353645 a26.199048031155343,26.199048031155343 0 0,0 0.221527466596942,-0.39141780712492164 l 4.502507670475996 2.5995240155776718" fill="red" stroke="none" /><line stroke="#e1ed5e" stroke-width="0.3" x1="26.387840678322718" x2="22.05771365940052" y1="57.49999999999999" y2="54.99999999999999" /><path d="M 25.521815274538284 56.99999999999999 a86.0,86.0 0 0,1 29.574782752854787,-30.34633250058573" fill="none" id="id71" stroke="none" /><text fill="#e1ed5e" style="font-size:6.75px; font-family:Arial;" text-anchor="middle"><textPath startOffset="21.40746469413373" xlink:href="#id71">November</textPath></text><path d="M 81.81346652052679 89.5 l -8.391190325201707 -4.84465599307659 a30.68931198615318,30.68931198615318 0 0,0 0.2673277133474616,-0.45398090068440655 l 8.306788901724467 4.98798806205457" fill="red" stroke="none" /><path d="M 81.99639281039701 89.18935116829357 l -39.340391329991725 -23.62277465240716 a66.88792730419732,66.88792730419732 0 0,0 0.5995452718966076,-0.979312144066687 l 38.929078093639724 24.29462391259839" fill="red" stroke="none" /><path d="M 82.37810715431573 88.57770195909679 l -24.27762414859154 -15.736462659183402 a49.93163132842925,49.93163132842925 0 0,0 0.4723902318942374,-0.7152590195689161 l 24.003909477776574 16.15090155709138" fill="red" stroke="none" /><path d="M 82.576782715395 88.27688183743585 l -4.09704633434119 -2.756675619113188 a25.93812202509736,25.93812202509736 0 0,0 0.2517359750691243,-0.3672903108466116 l 4.049120622456752 2.8266006650298343" fill="red" stroke="none" /><path d="M 82.78059297857968 87.97951657250589 l -26.558782505499057 -18.540092847833698 a53.389874513197746,53.389874513197746 0 0,0 0.5310637465326883,-0.74700766643326 l 26.236603660436398 18.993277740976477" fill="red" stroke="none" /><path d="M 82.98947788004972 87.6856937992154 l -9.50158112603516 -6.878411994207185 a32.729987018606664,32.729987018606664 0 0,0 0.3333751486822759,-0.45228741573865044 l 9.382103957769067 7.040505719214699" fill="red" stroke="none" /><path d="M 83.2033758604659 87.39550010848427 l -41.22269713715665 -30.934280440932053 a72.53872782345306,72.53872782345306 0 0,0 0.7559503404474683,-0.9895632619776614 l 40.685594819354876 31.637364616150595" fill="red" stroke="none" /><path d="M 83.42222388311158 87.10902102172516 l -12.26962437086635 -9.540934122945215 a36.54262224145391,36.54262224145391 0 0,0 0.3893243479903591,-0.4918985954627975 l 12.104033592234428 9.750152662322696" fill="red" stroke="none" /><path d="M 83.64595745247003 86.82634096563983 l -24.89652010991041 -20.054874268355558 a52.96927736910428,52.96927736910428 0 0,0 0.5764903250161925,-0.703224460504092 l 24.548582965655587 20.479301010558142" fill="red" stroke="none" /><path d="M 83.8745106332314 86.54754324733833 l -3.9055243456141064 -3.258127313898031 a26.086109909130247,26.086109909130247 0 0,0 0.28981101232147705,-0.3413966437952747 l 3.849018769785515 3.3246907401428625" fill="red" stroke="none" /><path d="M 84.10781606972428 86.27271002978789 l -8.352311786808688 -7.214527992009855 a32.03678061445262,32.03678061445262 0 0,0 0.36306663488693175,-0.4131031832784152 l 8.227234087963165 7.35684345309957" fill="red" stroke="none" /><path d="M 84.34580500576568 86.00192230759919 l -24.478489001307484 -21.888815806822716 a53.837732583297274,53.837732583297274 0 0,0 0.6219598907699386,-0.6836428712924064 l 24.09913140969568 22.30579625367278" fill="red" stroke="none" /><path d="M 84.58840730492382 85.73525988315684 l -3.6411638301651204 -3.3702068817812054 a25.961488533102553,25.961488533102553 0 0,0 0.3055347827847131,-0.32446735133644816 l 3.5827732136441357 3.432215693062165" fill="red" stroke="none" /><path d="M 84.83555147118756 85.47280134310135 l -8.596968378422389 -8.235701235236293 a32.90523582864561,32.90523582864561 0 0,0 0.39425674503489266,-0.4045421525293424 l 8.454324832236694 8.382066079833367" fill="red" stroke="none" /><path d="M 85.08716467003674 85.21462403516908 l -27.702640446357528 -27.465867164439263 a60.01038511466898,60.01038511466898 0 0,0 0.7315782602603355,-0.7253254921894595 l 27.227070265967214 27.937372666857396" fill="red" stroke="none" /><path d="M 85.60350026404147 84.71141617570332 l -7.122169329903536 -7.5634970172015406 a31.389022239510087,31.389022239510087 0 0,0 0.39545718057802814,-0.3660292625101205 l 6.9912823780115545 7.684644025844027" fill="red" stroke="none" /><path d="M 85.86807049272753 84.46653392183569 l -34.16664987073833 -37.55513332404552 a71.77152747728256,71.77152747728256 0 0,0 0.9184533100691296,-0.8212866133279674 l 33.51693153384581 38.136115467256886" fill="red" stroke="none" /><path d="M 86.13680546590413 84.22622945171909 l -7.651023106905356 -8.705459816718301 a32.58978797057551,32.58978797057551 0 0,0 0.42338870993099376,-0.36571308366652894 l 7.500454917211514 8.835517032849541" fill="red" stroke="none" /><path d="M 86.40962598614128 83.9905735841838 l -3.175595831883908 -3.740843905037105 a25.906966681090438,25.906966681090438 0 0,0 0.3415101572065761,-0.28489991937136516 l 3.1109113405154227 3.794806008320352" fill="red" stroke="none" /><path d="M 86.68645165197937 83.75963576809568 l -6.8637567671689474 -8.372667224706808 a31.826482042405885,31.826482042405885 0 0,0 0.42548858646228876,-0.3427434864973258 l 6.719017410351413 8.489259004997532" fill="red" stroke="none" /><path d="M 86.96720088162412 83.53348406188908 l -4.935335810049491 -6.235635571296747 a28.9524015577672,28.9524015577672 0 0,0 0.3923602648698855,-0.3051017151326692 l 4.827565600544361 6.3194383380502215" fill="red" stroke="none" /><path d="M 87.25179093698888 83.31218511350988 l -6.352433285339225 -8.315539086356976 a31.4643011683254,31.4643011683254 0 0,0 0.43203034275707386,-0.32420362348860393 l 6.208749953671398 8.42336173710958" fill="red" stroke="none" /><path d="M 87.54013794807813 83.09580414077388 l -9.295794962270204 -12.611531175434257 a36.66724361748161,36.66724361748161 0 0,0 0.5098824492165979,-0.369115572219571 l 9.077931502679638 12.769247519026907" fill="red" stroke="none" /><path d="M 87.83215693770416 82.88440491214696 l -7.112513073936421 -10.00464036290649 a33.275205538727825,33.275205538727825 0 0,0 0.4683959094976121,-0.32697672228887853 l 6.9397220732650435 10.125261901000496" fill="red" stroke="none" /><path d="M 88.12776184653039 82.6780497279521 l -2.5913873350992884 -3.7809115664586246 a25.583729987018607,25.583729987018607 0 0,0 0.3643899334972204,-0.24517780946297124 l 2.526101113505079 3.824839049978705" fill="red" stroke="none" /><line stroke="#e1ed5e" stroke-width="0.3" x1="56.869717070023135" x2="54.33264160355391" y1="26.7553504044142" y2="22.446841604673864" /><path d="M 56.362301976729285 25.89364864446614 a86.0,86.0 0 0,1 42.16139366436587,-11.88097634709845" fill="none" id="id72" stroke="none" /><text fill="#e1ed5e" style="font-size:6.75px; font-family:Arial;" text-anchor="middle"><textPath startOffset="22.145653131862474" xlink:href="#id72">December</textPath></text><path d="M 89.34428304082924 81.90426304109057 l -2.4799885239091237 -4.211562690875565 a25.88749459108611,25.88749459108611 0 0,0 0.38487003807429737,-0.22220482008521591 l 2.4073260179744267 4.2535144082369545" fill="red" stroke="none" /><path d="M 89.65649057296885 81.72400993836675 l -10.69198025831829 -18.891704630687478 a42.707485936823886,42.707485936823886 0 0,0 0.6411325309916783,-0.35562540737868137 l 10.36610353917051 19.072462953499308" fill="red" stroke="none" /><path d="M 89.97174638481275 81.54914285379989 l -9.068015941333941 -16.684127980133223 a39.98918217221981,39.98918217221981 0 0,0 0.6059526197499512,-0.322635639599806 l 8.780274505797427 16.837334087455606" fill="red" stroke="none" /><path d="M 90.28995756902619 81.37971332152246 l -16.08576541433315 -30.846576169655652 a55.78883600173085,55.78883600173085 0 0,0 0.8529655510686212,-0.4355302879958144 l 15.553872641550946 31.1181644093243" fill="red" stroke="none" /><path d="M 90.61103034731259 81.2157712731953 l -3.8149037230088587 -7.632362948710351 a29.53266983989615,29.53266983989615 0 0,0 0.455421544741812,-0.2227694989978598 l 3.6833219290049937 7.696726197805424" fill="red" stroke="none" /><path d="M 90.93487009805054 81.0573650232925 l -5.2232228358824795 -10.914526835500434 a33.09995672868888,33.09995672868888 0 0,0 0.5146433067752932,-0.24087905343477142 l 5.035090815235664 11.002582120505748" fill="red" stroke="none" /><path d="M 91.26138138417902 80.90454125486306 l -22.91476798436829 -50.07290350304192 a76.06707053223712,76.06707053223712 0 0,0 1.19203111410455,-0.5331803553153104 l 22.051823467408123 50.45888760926708" fill="red" stroke="none" /><path d="M 91.5904679813234 80.7573450057729 l -16.139626666492692 -36.93062431883345 a61.303331890956294,61.303331890956294 0 0,0 0.9679064109631921,-0.41314169156730607 l 15.503285180359068 37.20224066006016" fill="red" stroke="none" /><path d="M 91.92203290615298 80.6158196554323 l -1.5879294899198586 -3.8104527103743147 a25.128083080917353,25.128083080917353 0 0,0 0.3995910116051577,-0.16251018572013715 l 1.5222840171242602 3.8371501526737433" fill="red" stroke="none" /><path d="M 92.25597844496254 80.48000691201159 l -3.8071461598079366 -9.596495334658577 a31.324102120294246,31.324102120294246 0 0,0 0.5015253326346749,-0.19400077265432905 l 3.6418485646797323 9.660435995450946" fill="red" stroke="none" /><path d="M 92.592206182469 80.34994680014964 l -3.375338333994002 -8.95348594523688 a30.56858502812635,30.56858502812635 0 0,0 0.4926067043857709,-0.18089200516428366 l 3.221142477954104 9.010108799409885" fill="red" stroke="none" /><path d="M 92.93061703081487 80.22567764915836 l -1.976997499696699 -5.53001386630448 a26.872782345305062,26.872782345305062 0 0,0 0.4357155846508231,-0.15156449820100795 l 1.8817761430008715 5.5631367970740735" fill="red" stroke="none" /><path d="M 93.27111125876988 80.10723608172694 l -3.4016722585015766 -10.05643959471083 a31.616183470359154,31.616183470359154 0 0,0 0.5156106648073673,-0.1694914668513071 l 3.2285388560464483 10.113351982964165" fill="red" stroke="none" /><path d="M 93.61358852112211 79.99465700312896 l -5.140080203683633 -16.101228028637003 a37.90177412375595,37.90177412375595 0 0,0 0.6215157595380739,-0.19254717103353358 l 4.862923811273943 16.187091787477176" fill="red" stroke="none" /><path d="M 93.95794788825049 79.88797359093562 l -9.66197972917401 -32.161588129819286 a54.58156642146257,54.58156642146257 0 0,0 0.8996601297769812,-0.2618779519908647 l 9.108459587015405 32.32270977611267" fill="red" stroke="none" /><path d="M 94.30408787586887 79.78721728523814 l -1.1724910288283772 -4.160757027888792 a25.32280398096062,25.32280398096062 0 0,0 0.4194162954792139,-0.11431377639427992 l 1.1008933324144856 4.180271298427211" fill="red" stroke="none" /><path d="M 94.6519064749342 79.69241777938228 l -10.36724144480056 -39.3661043986123 a61.7083513630463,61.7083513630463 0 0,0 1.0266938728589001,-0.26098156762557567 l 9.689942278716282 39.53827119807314" fill="red" stroke="none" /><path d="M 95.00130118170881 79.60360301121753 l -0.9863291480488016 -4.024559509686196 a25.143660752920812,25.143660752920812 0 0,0 0.42010009978437046,-0.09914247967584407 l 0.9170968945245251 4.040898133008273" fill="red" stroke="none" /><path d="M 95.35216902796891 79.52079915486377 l -10.241489944304897 -45.12589437631984 a67.273474686283,67.273474686283 0 0,0 1.128392673768154,-0.24592793133068766 l 9.465334853917625 45.295053765784246" fill="red" stroke="none" /><path d="M 95.70440661134978 79.44403061299748 l -1.002933561781037 -4.799400159158588 a25.90307226308957,25.90307226308957 0 0,0 0.4360393847879637,-0.0872200889527829 l 0.9203976914620967 4.815909644774236" fill="red" stroke="none" /><path d="M 96.05791012581881 79.37332000966035 l -9.960618384567969 -52.118164344756956 a74.06144526179143,74.06144526179143 0 0,0 1.2508105817794493,-0.22793935469295765 l 9.064473069237481 52.28147187338127" fill="red" stroke="none" /><path d="M 96.76829788921471 79.25015418208739 l -2.033473189446965 -13.056356591489928 a34.21376027693639,34.21376027693639 0 0,0 0.5811042539781082,-0.08540231391077416 l 1.809043829861172 13.089339978699586" fill="red" stroke="none" /><path d="M 97.12497278360702 79.19773525538626 l -8.62508164917895 -62.406794233841204 a84.0,84.0 0 0,0 1.4300887124368238,-0.18515361519842122 l 7.5525151148513325 62.54565944524002" fill="red" stroke="none" /><path d="M 97.48249496171623 79.15144685158666 l -0.5168222928936407 -4.280029981200514 a25.311120726958027,25.311120726958027 0 0,0 0.4318126593674733,-0.04838550915714176 l 0.4432737319253681 4.288271250864626" fill="red" stroke="none" /><path d="M 97.84075906011542 79.11130261209362 l -4.556869981310469 -44.0835834099724 a65.31847684984855,65.31847684984855 0 0,0 1.1163252314493524,-0.10571716005722147 l 3.7994451864761007 44.1553123255348" fill="red" stroke="none" /><path d="M 98.1996594967304 79.07731436759882 l -0.45706858174743265 -5.311829751639469 a26.33145824318477,26.33145824318477 0 0,0 0.450682976446776,-0.03488571269532866 l 0.36581661052543946 5.318893231329851" fill="red" stroke="none" /><path d="M 98.9189461498227 79.02784411241856 l -1.4867581170021897 -28.84271027921814 a49.881003894418,49.881003894418 0 0,0 0.8555167922923588,-0.03673957212323276 l 0.9914155641090108 28.8639824197672" fill="red" stroke="none" /><path d="M 99.27912038922189 79.0123766808444 l -0.35641497261855787 -10.37663304494249 a31.382752283575833,31.382752283575833 0 0,0 0.538567909086509,-0.013871598906174686 l 0.178233749461305 10.381222361198711" fill="red" stroke="none" /><path d="M 99.63950707515114 79.00309439819443 l -0.6993478061773932 -40.733503647243865 a61.73950670705322,61.73950670705322 0 0,0 1.0598407310262352,-0.009097458003790837 l 9.978301297526972e-15 40.73950670705322" fill="red" stroke="none" /></svg>