<?xml version="1.0" encoding="utf-8" ?>
<svg baseProfile="full" height="200mm" version="1.1" viewBox="0,0,200,200" width="200mm" xmlns="http://www.w3.org/2000/svg" xmlns:ev="http://www.w3.org/2001/xml-events" xmlns:xlink="http://www.w3.org/1999/xlink"><defs /><rect fill="#1a1a1a" height="200" width="200" x="0" y="0" /><rect fill="#1a1a1a" height="200" width="180" x="10" y="0" /><text alignment-baseline="middle" fill="#e1ed5e" style="dominant-baseline: central; font-size:9.0px; font-family:Arial;" text-anchor="middle" x="100.0" y="100.0">2025</text><line stroke="#e1ed5e" stroke-width="0.3" x1="100.0" x2="100.0" y1="15.0" y2="10.0" /><path d="M 100.0 14.0 a86.0,86.0 0 0,1 42.46469731375804,11.215312516191453" fill="none" id="id73" stroke="none" /><text fill="#e1ed5e" style="font-size:6.75px; font-family:Arial;" text-anchor="middle"><textPath startOffset="22.20632615414155" xlink:href="#id73">January</textPath></text><path d="M 100.0 79.0 l 0.0 -11.987071202075526 a32.987071202075526,32.987071202075526 0 0,0 0.5678182051392038,0.004887390558238271 l -0.20633772586667543 11.985295188125846" fill="red" stroke="none" /><path d="M 100.36148047927253 79.00311137660856 l 0.4424045900257845 -25.697431634324214 a46.70123955030268,46.70123955030268 0 0,0 0.803646860803019,0.02075582742535379 l -0.8846780860236713 25.6860090147565" fill="red" stroke="none" /><path d="M 100.72285384407766 79.0124445844662 l 0.5446096301185857 -15.812359421746653 a36.82173537042375,36.82173537042375 0 0,0 0.6332622522077406,0.02726960468259813 l -0.8167127147156578 15.80064209053986" fill="red" stroke="none" /><path d="M 101.80526077348638 79.07773832637324 l 3.5005094029787998 -40.56952590770187 a61.72026520611127,61.72026520611127 0 0,0 1.0576939331907484,0.10044078360941165 l -4.198328463259792 40.50325957957728" fill="red" stroke="none" /><path d="M 103.95276090670814 79.375362276772 l 11.858282720124386 -61.87391316968404 a84.0,84.0 0 0,0 1.4177343621314986,0.2843841756911667 l -12.921583491723009 61.66062503791566" fill="red" stroke="none" /><path d="M 104.307194497241 79.44645832069477 l 0.9908161455169557 -4.72808482562282 a25.830786970308445,25.830786970308445 0 0,0 0.434396683781175,0.09494228988899406 l -1.0720555534516587 4.710329037637955" fill="red" stroke="none" /><path d="M 104.66035177308747 79.52364482259891 l 1.1381522116343932 -5.000740301612629 a26.128624963966562,26.128624963966562 0 0,0 0.43768720736014877,0.10358642087563642 l -1.2240631059570655 4.980407968596123" fill="red" stroke="none" /><path d="M 105.01212808612495 79.60689891045804 l 2.6024344504837886 -10.588657734933115 a31.903776304410492,31.903776304410492 0 0,0 0.5321718693722055,0.13566245880392985 l -2.784315208541019 10.542292279960316" fill="red" stroke="none" /><path d="M 105.36241919743992 79.69619591428918 l 2.318716862542487 -8.77939063954057 a30.08042663591813,30.08042663591813 0 0,0 0.4994813457617125,0.13652711981382154 l -2.4694960975279105 8.738176978900453" fill="red" stroke="none" /><path d="M 105.71112130821622 79.79150937346287 l 3.2301008955665074 -11.429535488401795 a32.877198039780914,32.877198039780914 0 0,0 0.543271873030864,0.1585959572333587 l -3.426362986320798 11.372241202249732" fill="red" stroke="none" /><path d="M 106.0581310904928 79.89281104454417 l 9.03218622082119 -29.97820157901918 a52.309311040645724,52.309311040645724 0 0,0 0.8599018721264583,0.26717569745752084 l -9.546873465658367 29.81828574667914" fill="red" stroke="none" /><path d="M 106.40334571778207 80.00007090966166 l 1.3965901902778652 -4.3620485297636185 a25.580167195157106,25.580167195157106 0 0,0 0.41819575276230636,0.1378725646498044 l -1.471468765282589 4.337362240854578" fill="red" stroke="none" /><path d="M 106.74666289553966 80.11325718540242 l 2.170445601447752 -6.397695295788671 a27.75583741712309,27.75583741712309 0 0,0 0.4511222287027646,0.15738768757723515 l -2.2802498342137905 6.359386755039228" fill="red" stroke="none" /><path d="M 107.4271985657038 80.35727306442388 l 1.861402834541045 -4.922855807953263 a26.26301527817815,26.26301527817815 0 0,0 0.42147991841033283,0.1635276602598016 l -1.9458659179510447 4.890085443802914" fill="red" stroke="none" /><path d="M 109.73455568895987 81.39251694778311 l 1.7342045015212446 -3.314910500510245 a24.74113577399827,24.74113577399827 0 0,0 0.3756587474311883,0.20066389299144738 l -1.791008295480744 3.2845678810170438" fill="red" stroke="none" /><line stroke="#e1ed5e" stroke-width="0.3" x1="143.23703022742887" x2="145.7803849466894" y1="26.81831364943548" y2="22.513508569990506" /><path d="M 143.74570117128098 25.957352633546492 a86.0,86.0 0 0,1 28.547481713284135,27.462654790039103" fill="none" id="id74" stroke="none" /><text fill="#e1ed5e" style="font-size:6.75px; font-family:Arial;" text-anchor="middle"><textPath startOffset="19.985693538727396" xlink:href="#id74">February</textPath></text><path d="M 111.90073688211348 82.69761687909136 l 7.167200776624807 -10.420334049063799 a33.64721821850677,33.64721821850677 0 0,0 0.4743758835301676,0.33233062177846445 l -7.345507799738626 10.2954185845214" fill="red" stroke="none" /><path d="M 113.06298171725822 83.55741782278167 l 2.6773652352178137 -3.3700420663021706 a25.304122225425196,25.304122225425196 0 0,0 0.33870965523217844,0.2738796521867795 l -2.7349782890144834 3.3234563168512614" fill="red" stroke="none" /><path d="M 113.34407831869373 83.78471172551755 l 14.828890723137597 -18.01958382765346 a44.3366964543096,44.3366964543096 0 0,0 0.5851229170687301,0.49002361581080056 l -15.136871177165444 17.761659054448838" fill="red" stroke="none" /><path d="M 113.89432698308785 84.25364557470407 l 9.444457488071818 -10.703344979777407 a35.2744306716633,35.2744306716633 0 0,0 0.4518302033087824,0.40565761772882786 l -9.62729867897659 10.539188353279282" fill="red" stroke="none" /><path d="M 114.16331599549186 84.49514656593476 l 20.01645229158212 -21.912393901945297 a50.67846641683482,50.67846641683482 0 0,0 0.6390123032640704,0.5938922938073046 l -20.390672478641036 21.56459702206335" fill="red" stroke="none" /><path d="M 114.42810811169701 84.74124197986012 l 12.607230126311894 -13.333049095026805 a39.34972614586336,39.34972614586336 0 0,0 0.48815538191714003,0.4696050906392865 l -12.834868751841453 13.114060917625217" fill="red" stroke="none" /><path d="M 114.94478906791727 85.2469230424477 l 18.290457326823162 -18.055826904290583 a46.70123955030268,46.70123955030268 0 0,0 0.5598271868653776,0.5769511262637902 l -18.59854877739165 17.73831158247668" fill="red" stroke="none" /><path d="M 115.4437574822437 85.77008943001954 l 7.706296973699579 -7.100598211771747 a31.478812337849526,31.478812337849526 0 0,0 0.36373971426826596,0.4016504774281767 l -7.827380328583881 6.966894947074022" fill="red" stroke="none" /><path d="M 115.68641384162765 86.03803664274999 l 7.094835202511905 -6.314880515285465 a30.498126261170366,30.498126261170366 0 0,0 0.345657247418507,0.39514598669632434 l -7.20248431350826 6.1918189723861925" fill="red" stroke="none" /><path d="M 115.9244219780498 86.31012108654704 l 3.7182997411992944 -3.1965413432968885 a25.903430383395794,25.903430383395794 0 0,0 0.28776168489150344,0.34061907020382043 l -3.7727720395779154 3.1320633234639614" fill="red" stroke="none" /><path d="M 116.15771136456269 86.58626213691792 l 11.832530974498434 -9.823078601145486 a36.37861055059095,36.37861055059095 0 0,0 0.3958365412845283,0.485248795375347 l -11.99986600785937 9.61794563616204" fill="red" stroke="none" /><path d="M 116.38621287248628 86.86637796730983 l 5.662667048583614 -4.5386526643957845 a28.25707696742577,28.25707696742577 0 0,0 0.300932378957479,0.3821535611144444 l -5.7399535081350574 4.440506709328302" fill="red" stroke="none" /><path d="M 116.60985879189232 87.15038557335679 l 6.446674510638172 -4.987235763629985 a29.150590948400115,29.150590948400115 0 0,0 0.3036159808142992,0.3995230412863854 l -6.531566431676585 4.875527946462566" fill="red" stroke="none" /><path d="M 116.82858285166822 87.43820079747576 l 24.18775269484511 -18.05509680708731 a51.18333813779187,51.18333813779187 0 0,0 0.5209425226858717,0.7105650154965468 l -24.49495783004461 17.63606934791927" fill="red" stroke="none" /><path d="M 117.04232023915458 87.72973835380427 l 7.3573302940783805 -5.297187616414741 a30.065897953300663,30.065897953300663 0 0,0 0.2987796893865769,0.4226026818829968 l -7.44742260326884 5.1697584341999505" fill="red" stroke="none" /><path d="M 117.2510076193507 88.02491185347247 l 3.7833861622375355 -2.6263035635278595 a25.605592389737676,25.605592389737676 0 0,0 0.24822248345759343,0.36423586542831793 l -3.8280331113638626 2.5607896748291354" fill="red" stroke="none" /><path d="M 117.45458315368197 88.32363383020206 l 25.953943736904673 -17.362073213332867 a52.22577111559527,52.22577111559527 0 0,0 0.4934175576362382,0.751508791712831 l -26.248957929898836 16.912746357642362" fill="red" stroke="none" /><path d="M 117.65298651832404 88.62581576622439 l 3.786054185538509 -2.4394329979616765 a25.503891611415394,25.503891611415394 0 0,0 0.23460228798379612,0.37108447972904274 l -3.8274840697682606 2.3739008705184275" fill="red" stroke="none" /><line stroke="#e1ed5e" stroke-width="0.3" x1="172.23445277983987" x2="176.4835382374775" y1="55.19839476539836" y2="52.563006222186495" /><path d="M 173.08426987136738 54.67131705675599 a86.0,86.0 0 0,1 12.851231095245387,41.99856678651699" fill="none" id="id75" stroke="none" /><text fill="#e1ed5e" style="font-size:6.75px; font-family:Arial;" text-anchor="middle"><textPath startOffset="22.20632615414155" xlink:href="#id75">March</textPath></text><path d="M 117.84615892207809 88.93136811851018 l 17.773107478811 -11.023323558423469 a41.91403862784664,41.91403862784664 0 0,0 0.3749993184853971,0.6164002801582039 l -17.960222595582618 10.715755505058183" fill="red" stroke="none" /><path d="M 118.21658344932153 89.55222093294921 l 4.092823620755609 -2.347362065396192 a25.718189680023062,25.718189680023062 0 0,0 0.21694194198132824,0.3859155077523844 l -4.13262320402937 2.276563047709014" fill="red" stroke="none" /><path d="M 118.3937258080291 89.86733742301442 l 7.55261546294513 -4.160554792348883 a29.62277313346786,29.62277313346786 0 0,0 0.24219001074787094,0.4487413076278312 l -7.623113572911465 4.0299325013885925" fill="red" stroke="none" /><path d="M 118.56541770881063 90.18545643968196 l 4.2803750601057216 -2.262805402001261 a25.84168348227155,25.84168348227155 0 0,0 0.20450685838169366,0.39504215716778324 l -4.318691351647532 2.1887905225731332" fill="red" stroke="none" /><path d="M 118.73160827565052 90.50648371742162 l 24.771728488144802 -12.554757941180926 a48.771576823292015,48.771576823292015 0 0,0 0.37307930805407097,0.752105119429046 l -24.984167809152282 12.12649323325293" fill="red" stroke="none" /><path d="M 118.89224826269711 90.83032412892265 l 7.979510566302626 -3.87299195338787 a29.86976073796483,29.86976073796483 0 0,0 0.22052674544422216,0.46448556723737267 l -8.044995505588604 3.735063970509957" fill="red" stroke="none" /><path d="M 119.04729006885535 91.15688171328212 l 4.345351790283116 -2.017423987347516 a25.790833093110408,25.790833093110408 0 0,0 0.18348050989027287,0.40427498227998726 l -4.379434617136736 1.942326996225466" fill="red" stroke="none" /><path d="M 119.47837535516314 92.15188598940014 l 9.901460680684538 -3.9894391024190767 a31.674949553185357,31.674949553185357 0 0,0 0.19941107800489785,0.5074794427164306 l -9.968665308571136 3.8184106548068617" fill="red" stroke="none" /><path d="M 119.61058180528143 92.48833698450437 l 4.4976012926727895 -1.7227671072725073 a25.816258287690978,25.816258287690978 0 0,0 0.15538364712481087,0.4163509224055075 l -4.526589528299226 1.6450930478376666" fill="red" stroke="none" /><path d="M 119.7369772167798 92.82701384747503 l 4.215941227337513 -1.532194505339003 a25.485730758143557,25.485730758143557 0 0,0 0.14629649172404202,0.4135998826013124 l -4.241690799871365 1.459396996311076" fill="red" stroke="none" /><path d="M 119.85752413597 93.16781622104841 l 4.664142596133855 -1.6047458469558222 a25.932487748630727,25.932487748630727 0 0,0 0.1415947249756389,0.42335020516038946 l -4.6910746148812645 1.5242225388731188" fill="red" stroke="none" /><path d="M 120.08093135843002 93.85539295169968 l 5.1195087037750096 -1.5665293956520032 a26.35381954453733,26.35381954453733 0 0,0 0.12900082084575246,0.43492663814864707 l -5.145715421732464 1.478173370756826" fill="red" stroke="none" /><path d="M 120.18372546131832 94.20196356495316 l 4.6465042241017045 -1.3347684915042988 a25.834419140962815,25.834419140962815 0 0,0 0.11910064512279876,0.42846838902544854 l -4.668791639790866 1.2545887990598983" fill="red" stroke="none" /><path d="M 120.28053869075195 94.5502522615342 l 9.372660602194731 -2.5186035094575856 a30.705159988469298,30.705159988469298 0 0,0 0.1327686265458203,0.5116116778123727 l -9.414625560610855 2.3568954060963625" fill="red" stroke="none" /><path d="M 120.53481517161879 95.60439243477599 l 13.979538630526068 -2.9924090014508615 a35.296223695589504,35.296223695589504 0 0,0 0.12205888649121333,0.5952024788623842 l -14.028976812932278 2.7513308664250653" fill="red" stroke="none" /><path d="M 120.73433829027371 96.67025291283417 l 14.172748040904306 -2.2760150743982757 a35.354338426059385,35.354338426059385 0 0,0 0.09132211909362953,0.6016986635363972 l -14.209826053437235 2.0317172984697964" fill="red" stroke="none" /><path d="M 120.78858239683441 97.02765380044208 l 15.191425879497045 -2.1720661907983017 a36.345921014701645,36.345921014701645 0 0,0 0.0832217762054631,0.6200988971587649 l -15.226563654760342 1.9102489515748726" fill="red" stroke="none" /><path d="M 120.83666639777658 97.38593545837742 l 3.6579791975341416 -0.45891187830733626 a24.686653214182762,24.686653214182762 0 0,0 0.04926709151091508,0.42209035315977245 l -3.6653366420486453 0.3958777868227111" fill="red" stroke="none" /><path d="M 120.87857604477298 97.74499172005257 l 8.457358045002884 -0.9134441150135856 a29.506543672528107,29.506543672528107 0 0,0 0.05019326434121678,0.5054393220641231 l -8.47182843502633 0.7677292622450275" fill="red" stroke="none" /><path d="M 120.91429891909075 98.10471618934814 l 3.7656590097619174 -0.3412494286921749 a24.78108965119631,24.78108965119631 0 0,0 0.03484164111747371,0.4251562722739342 l -3.770975134698886 0.2763792392104719" fill="red" stroke="none" /><path d="M 120.94382443527127 98.46500227214037 l 4.9663851197619335 -0.36399225452214895 a25.979705967137505,25.979705967137505 0 0,0 0.02884911376346221,0.44628302100077083 l -4.9719148245298115 0.2784501692683429" fill="red" stroke="none" /><path d="M 120.96714384426684 98.82574320788733 l 3.78967978966714 -0.21223955279753326 a24.795618333813778,24.795618333813778 0 0,0 0.020198264824329328,0.42635344689310833 l -3.792771662724966 0.14697499928142513" fill="red" stroke="none" /><path d="M 120.98425023603335 99.18683210126433 l 3.8435839146657784 -0.14894404233399924 a24.84646872297492,24.84646872297492 0 0,0 0.01288266395971473,0.42751289908009044 l -3.8455782730811383 0.08276099582890974" fill="red" stroke="none" /><line stroke="#e1ed5e" stroke-width="0.3" x1="184.98032266829074" x2="189.97916517819016" y1="98.17113171792111" y2="98.06355123074" /><path d="M 185.9800911702706 98.14961562048488 a86.0,86.0 0 0,1 -9.607161424134198,41.387399972396054" fill="none" id="id76" stroke="none" /><text fill="#e1ed5e" style="font-size:6.75px; font-family:Arial;" text-anchor="middle"><textPath startOffset="21.466115282336823" xlink:href="#id76">April</textPath></text><path d="M 120.89721153311464 102.0752229133903 l 3.9722171475744608 0.3944658371546741 a24.991755549149612,24.991755549149612 0 0,0 -0.046196306279347774,0.42772042223431167 l -3.9648385397940613 -0.4627825812737772" fill="red" stroke="none" /><path d="M 120.81339534386255 102.79330883721812 l 3.603495313786062 0.48361524578645126 a24.63580282502162,24.63580282502162 0 0,0 -0.060024487167148796,0.41981112344437194 l -3.594636775602312 -0.5455718412112325" fill="red" stroke="none" /><path d="M 120.76222939487914 103.15116336523771 l 4.072245857675346 0.6180604075260117 a25.118881522052465,25.118881522052465 0 0,0 -0.06856048672622364,0.4269262162902898 l -4.061003616587834 -0.6880658535095064" fill="red" stroke="none" /><path d="M 120.64145759157962 103.86396538481128 l 4.6590548556376055 0.8721490044125783 a25.739982703949266,25.739982703949266 0 0,0 -0.08527296771042842,0.4348050252254535 l -4.6433519549515125 -0.9522177567059767" fill="red" stroke="none" /><path d="M 120.5718875245553 104.21870165774334 l 3.8641227763044776 0.7924202940863531 a24.944537330642838,24.944537330642838 0 0,0 -0.08987868550938595,0.41988329654474893 l -3.8499100520706486 -0.8588174100472711" fill="red" stroke="none" /><path d="M 120.49622156327973 104.57218783832717 l 18.721339765179643 4.176256668931527 a40.18149322571347,40.18149322571347 0 0,0 -0.15640059601595924,0.6737696742528584 l -18.64667860323313 -4.49789500053295" fill="red" stroke="none" /><path d="M 120.41448212921028 104.9243191809786 l 4.643132430079826 1.1200022582277651 a25.776304410492937,25.776304410492937 0 0,0 -0.10775561364417148,0.4304301123799043 l -4.623165502140593 -1.1997602100050653" fill="red" stroke="none" /><path d="M 120.23288151984713 105.62410040840565 l 10.78542649365849 2.99800705541186 a32.19434995675987,32.19434995675987 0 0,0 -0.15301110363572965,0.5326517249269335 l -10.73222275313666 -3.183216255843375" fill="red" stroke="none" /><path d="M 120.13307415673323 105.97154293290107 l 3.729464817848592 1.1061728131110493 a24.890054770827327,24.890054770827327 0 0,0 -0.12536673455283506,0.4097057421893808 l -3.7098713107896244 -1.1702055278524872" fill="red" stroke="none" /><path d="M 119.9155931802556 106.66101706037122 l 3.6754000443930934 1.2292831138799822 a24.87552608820986,24.87552608820986 0 0,0 -0.13931380728973078,0.4049111353316365 l -3.6536954061601317 -1.2923669523009191" fill="red" stroke="none" /><path d="M 119.79798401119884 107.00284435728193 l 3.496179015641513 1.2366510387059404 a24.708446238108966,24.708446238108966 0 0,0 -0.14528065041253,0.39974995437871874 l -3.4743741042237564 -1.2966487900907901" fill="red" stroke="none" /><path d="M 119.67450827220406 107.3425965602758 l 3.780636268161206 1.4109469204611824 a25.035341597002017,25.035341597002017 0 0,0 -0.15415299432490442,0.4024448247347507 l -3.7557889942427947 -1.475815312029077" fill="red" stroke="none" /><path d="M 119.54520255179757 107.68017299344265 l 3.9180553054252045 1.539576909668498 a25.209685788411647,25.209685788411647 0 0,0 -0.16217917359080855,0.402515408635165 l -3.8909735175770033 -1.6067916861464766" fill="red" stroke="none" /><path d="M 118.97047184881838 109.00673069616215 l 3.88159150138117 1.8428877048532415 a25.29685788411646,25.29685788411646 0 0,0 -0.19014412547086534,0.39175321729959844 l -3.8492941192955907 -1.9094298781181154" fill="red" stroke="none" /><line stroke="#e1ed5e" stroke-width="0.3" x1="174.80103733775053" x2="179.2010983576182" y1="140.37084112569926" y2="142.7455964860345" /><path d="M 175.68104954172406 140.8457921977663 a86.0,86.0 0 0,1 -30.038265399797805,32.042727171017184" fill="none" id="id77" stroke="none" /><text fill="#e1ed5e" style="font-size:6.75px; font-family:Arial;" text-anchor="middle"><textPath startOffset="22.206326154141568" xlink:href="#id77">May</textPath></text><path d="M 117.94076556474637 110.91462005526583 l 22.369843578481962 13.60913738456235 a47.18431824733352,47.18431824733352 0 0,0 -0.4281086228227241,0.6902474127433013 l -22.132270315991274 -13.992181128670925" fill="red" stroke="none" /><path d="M 117.55443506779139 111.5257021239791 l 3.336810171144895 2.190846924344716 a24.991755549149612,24.991755549149612 0 0,0 -0.23920310741492626,0.35757619008150676 l -3.2986039583192475 -2.2479600286320296" fill="red" stroke="none" /><path d="M 117.35343817320211 111.8261652097733 l 22.961164950993844 15.647765440432229 a48.78610550590948,48.78610550590948 0 0,0 -0.4788915967657378,0.6898790625640845 l -22.688412447065968 -16.040685765183333" fill="red" stroke="none" /><path d="M 116.27256486870786 113.27417163493432 l 14.804328257607953 12.076473242967056 a40.10521764197175,40.10521764197175 0 0,0 -0.44097405612720525,0.5311816580055551 l -14.594258201587204 -12.329516158086381" fill="red" stroke="none" /><path d="M 116.0416608686014 113.55231037782055 l 3.113071806498259 2.6299842451279316 a25.075295474200058,25.075295474200058 0 0,0 -0.28138958110577117,0.3273196540366442 l -3.067339715821709 -2.683180998326104" fill="red" stroke="none" /><path d="M 115.80600337817218 113.82643327865902 l 16.69813813212032 14.606835595165636 a43.18529835687518,43.18529835687518 0 0,0 -0.4942478231129098,0.5552926687525531 l -16.444231459359074 -14.892102433659055" fill="red" stroke="none" /><path d="M 115.56566222782051 114.09645910891815 l 3.1822333963592704 2.8818705102463986 a25.293225713462093,25.293225713462093 0 0,0 -0.29503173770892893,0.32019868180716715 l -3.1321552506546193 -2.9362204468549007" fill="red" stroke="none" /><path d="M 115.07121518719521 114.62390073753431 l 6.378656136592677 6.189337291106337 a29.88792159123667,29.88792159123667 0 0,0 -0.3614437088428394,0.3661405687860082 l -6.271171802694303 -6.29821835387301" fill="red" stroke="none" /><path d="M 113.75828350139079 115.86535959552629 l 9.942134644360461 11.464768934582098 a36.175208993946384,36.175208993946384 0 0,0 -0.4739547088702454,0.40391448512704364 l -9.743314458913169 -11.63420780993209" fill="red" stroke="none" /><path d="M 112.92097659922987 116.55440617244103 l 3.4013940128038986 4.3578794225059525 a26.528163735946958,26.528163735946958 0 0,0 -0.36238895531732823,0.27786439787953093 l -3.325876328993077 -4.415783162212855" fill="red" stroke="none" /><line stroke="#e1ed5e" stroke-width="0.3" x1="143.8653032363475" x2="146.44561519142675" y1="172.8068346515853" y2="177.08958963109032" /><path d="M 144.38136562736335 173.6633856474863 a86.0,86.0 0 0,1 -40.68145358897372,12.25698825130547" fill="none" id="id78" stroke="none" /><text fill="#e1ed5e" style="font-size:6.75px; font-family:Arial;" text-anchor="middle"><textPath startOffset="21.466115282336833" xlink:href="#id78">June</textPath></text><path d="M 110.5260780823613 118.17145234162733 l 2.0536320686486373 3.5452403991967065 a25.09708849812626,25.09708849812626 0 0,0 -0.3756809864797039,0.2133214687946467 l -1.9923023152477342 -3.580065033785982" fill="red" stroke="none" /><path d="M 110.21172684928248 118.3499491758327 l 1.8050824168290642 3.2436404827387175 a24.712078408763333,24.712078408763333 0 0,0 -0.373478569440704,0.20365029443247762 l -1.7489810355197113 -3.2742314289309653" fill="red" stroke="none" /><path d="M 108.59647513512805 119.15986991738527 l 1.8912740914181978 4.215281845185484 a25.620121072355147,25.620121072355147 0 0,0 -0.4039186857058099,0.1770660817374487 l -1.818434731054634 -4.247212480217388" fill="red" stroke="none" /><path d="M 106.2309692047433 120.05430185196036 l 1.1208200587373376 3.607346311796848 a24.777457480541944,24.777457480541944 0 0,0 -0.4083856239884906,0.12304323846937597 l -1.058559460308601 -3.62610491937195" fill="red" stroke="none" /><path d="M 105.88484417918355 120.15858648285463 l 1.0371847019754459 3.5528854931153977 a24.70118189680023,24.70118189680023 0 0,0 -0.4091795853750264,0.11563823801138856 l -0.9758739484958137 -3.5702125244653056" fill="red" stroke="none" /><path d="M 105.53697534728816 120.25689768951611 l 3.1699143959971976 11.597059328734215 a33.022484865955605,33.022484865955605 0 0,0 -0.5496035267982938,0.14515528669615146 l -2.969820426387406 -11.64990596473395" fill="red" stroke="none" /><line stroke="#e1ed5e" stroke-width="0.3" x1="102.19456741930631" x2="102.32365962044197" y1="184.97166512339345" y2="189.96999836594603" /><path d="M 102.22038585953345 185.97133177190398 a86.0,86.0 0 0,1 -42.740103519485714,-10.115201625700543" fill="none" id="id79" stroke="none" /><text fill="#e1ed5e" style="font-size:6.75px; font-family:Arial;" text-anchor="middle"><textPath startOffset="22.20632615414155" xlink:href="#id79">July</textPath></text><path d="M 99.09653310690486 120.98055641714683 l -0.665685032790767 15.458720727076189 a36.4730469876045,36.4730469876045 0 0,0 -0.627009768754318,-0.03240924308380905 l 0.931682869958574 -15.444971677230178" fill="red" stroke="none" /><path d="M 96.22490169976321 120.6578951692458 l -3.1798320072908384 17.400510142558733 a38.68867108676852,38.68867108676852 0 0,0 -0.6540824373803105,-0.12535645585325458 l 3.4788820592428435 -17.343196488357012" fill="red" stroke="none" /><path d="M 95.16358092515715 120.4354850818985 l -1.062367061121433 4.488855472011143 a25.61285673104641,25.61285673104641 0 0,0 -0.42815758208459964,-0.10523071665417678 l 1.1394779279492433 -4.469903497042936" fill="red" stroke="none" /><path d="M 90.7491055286396 118.85261126421891 l -1.8080445233734055 3.6846556463362408 a25.104352839434995,25.104352839434995 0 0,0 -0.38630350096269594,-0.19370059491182595 l 1.871201932018862 -3.6529872105151124" fill="red" stroke="none" /><path d="M 90.42595943632237 118.69057910512821 l -2.053354332480876 4.008587735432514 a25.503891611415394,25.503891611415394 0 0,0 -0.3890061192435497,-0.20350961602361148 l 2.122051354250921 -3.972648700464186" fill="red" stroke="none" /><line stroke="#e1ed5e" stroke-width="0.3" x1="58.666819895761336" x2="56.23545636021788" y1="174.27360380694188" y2="178.64263932499728" /><path d="M 58.180547188652646 175.14741091055294 a86.0,86.0 0 0,1 -31.652253787137756,-30.449443065178592" fill="none" id="id80" stroke="none" /><text fill="#e1ed5e" style="font-size:6.75px; font-family:Arial;" text-anchor="middle"><textPath startOffset="22.20632615414155" xlink:href="#id80">August</textPath></text><path d="M 89.4739219176387 118.17145234162733 l -3.768633317466912 6.505893285759915 a28.518593254540214,28.518593254540214 0 0,0 -0.42266202351838916,-0.24971617351517617 l 3.8800632120136838 -6.440058539950988" fill="red" stroke="none" /><path d="M 87.95078237400918 117.19931262002967 l -2.1465599575849885 3.0640458919510927 a24.74113577399827,24.74113577399827 0 0,0 -0.34669714934609375,-0.2473592106782 l 2.198984434779969 -3.0266424194286734" fill="red" stroke="none" /><path d="M 87.65650970185807 116.9893568818739 l -2.5405742498914208 3.496800465165166 a25.32228307869703,25.32228307869703 0 0,0 -0.35043028790404884,-0.2592399493864387 l 2.600389508214034 -3.4525505670389607" fill="red" stroke="none" /><path d="M 86.79598089348748 116.32954008644616 l -11.921299464282855 14.74318810918114 a39.95993081579706,39.95993081579706 0 0,0 -0.531143350094122,-0.4370948170722831 l 12.173312942921665 -14.535798173251678" fill="red" stroke="none" /><path d="M 84.9287848128048 114.62390073753433 l -16.10956065555485 15.631428058454103 a43.446814643989626,43.446814643989626 0 0,0 -0.5161759817680087,-0.5412084532393764 l 16.376243188701817 -15.351812488632227" fill="red" stroke="none" /><path d="M 83.28015986056508 112.70617746262583 l -3.2388966773422516 2.4613869284763807 a25.068031132891324,25.068031132891324 0 0,0 -0.25812758564879007,-0.34580408358372894 l 3.280785529686127 -2.4052699653833436" fill="red" stroke="none" /><line stroke="#e1ed5e" stroke-width="0.3" x1="26.63291911575756" x2="22.317208475507996" y1="142.92168965132927" y2="145.44649492493687" /><path d="M 25.769776987707644 143.4266507060508 a86.0,86.0 0 0,1 -11.730757126820373,-40.83630448921669" fill="none" id="id81" stroke="none" /><text fill="#e1ed5e" style="font-size:6.75px; font-family:Arial;" text-anchor="middle"><textPath startOffset="21.46611528233685" xlink:href="#id81">September</textPath></text><path d="M 81.69416730710424 110.29060199501025 l -4.780941026164186 2.6876002904235476 a26.484577688094554,26.484577688094554 0 0,0 -0.21997786354846213,-0.3993237192301892 l 4.826495299164164 -2.604906052795536" fill="red" stroke="none" /><path d="M 79.35854240842038 103.8639653848113 l -6.104968431525137 1.142815936816486 a27.211011818968004,27.211011818968004 0 0,0 -0.08222073845066208,-0.4611375657117915 l 6.123735612314988 -1.037559620371481" fill="red" stroke="none" /><path d="M 79.18660465613746 102.79330883721812 l -5.975826394490371 0.8019993086968149 a27.02940328624964,27.02940328624964 0 0,0 -0.0579182073256913,-0.4616650986182532 l 5.98874611106291 -0.6990164557911531" fill="red" stroke="none" /><line stroke="#e1ed5e" stroke-width="0.3" x1="15.007084014347285" x2="10.007500721073583" y1="101.09737516637583" y2="101.16192664675087" /><path d="M 14.007167355692545 101.11028546245083 a86.0,86.0 0 0,1 10.666146001902534,-42.60595125391555" fill="none" id="id82" stroke="none" /><text fill="#e1ed5e" style="font-size:6.75px; font-family:Arial;" text-anchor="middle"><textPath startOffset="22.20632615414155" xlink:href="#id82">October</textPath></text><line stroke="#e1ed5e" stroke-width="0.3" x1="26.266209847984243" x2="21.928928074336255" y1="57.711370442889674" y2="55.22380399835377" /><path d="M 25.398753493254645 57.213857153982495 a86.0,86.0 0 0,1 29.58750427330803,-30.492523968695096" fill="none" id="id83" stroke="none" /><text fill="#e1ed5e" style="font-size:6.75px; font-family:Arial;" text-anchor="middle"><textPath startOffset="21.46611528233685" xlink:href="#id83">November</textPath></text><line stroke="#e1ed5e" stroke-width="0.3" x1="56.762969772571076" x2="54.21961505331055" y1="26.818313649435495" y2="22.513508569990535" /><path d="M 56.25429882871897 25.957352633546506 a86.0,86.0 0 0,1 42.265352541879196,-11.944610805530505" fill="none" id="id84" stroke="none" /><text fill="#e1ed5e" style="font-size:6.75px; font-family:Arial;" text-anchor="middle"><textPath startOffset="22.20632615414155" xlink:href="#id84">December</textPath></text></svg>