<?xml version="1.0" encoding="utf-8" ?>
<svg baseProfile="full" height="200mm" version="1.1" viewBox="0,0,200,200" width="200mm" xmlns="http://www.w3.org/2000/svg" xmlns:ev="http://www.w3.org/2001/xml-events" xmlns:xlink="http://www.w3.org/1999/xlink"><defs /><rect fill="#1a1a1a" height="200" width="200" x="0" y="0" /><rect fill="#1a1a1a" height="200" width="180" x="10" y="0" /><text alignment-baseline="middle" fill="#e1ed5e" style="dominant-baseline: central; font-size:9.0px; font-family:Arial;" text-anchor="middle" x="100.0" y="100.0">2026</text><line stroke="#e1ed5e" stroke-width="0.3" x1="100.0" x2="100.0" y1="15.0" y2="10.0" /><path d="M 100.0 14.0 a86.0,86.0 0 0,1 42.46469731375804,11.215312516191453" fill="none" id="id85" stroke="none" /><text fill="#e1ed5e" style="font-size:6.75px; font-family:Arial;" text-anchor="middle"><textPath startOffset="22.20632615414155" xlink:href="#id85">January</textPath></text><path d="M 100.0 79.0 l 0.0 -3.6627507304400204 a24.66275073044002,24.66275073044002 0 0,0 0.4245287121056361,0.0036540526535909163 l -0.06304823283310772 3.662208054394988" fill="#ff0601" stroke="none" /><path d="M 100.36148047927253 79.00311137660856 l 0.3699158035754992 -21.486861319145596 a42.49004530125356,42.49004530125356 0 0,0 0.731179554344595,0.018884210698912118 l -0.739721993114962 21.477310316304326" fill="#fffd17" stroke="none" /><path d="M 101.80526077348638 79.07773832637324 l 1.734231864876848 -20.099064585346444 a41.173744257501674,41.173744257501674 0 0,0 0.7055902848517716,0.06700429953673465 l -2.0799472768188636 20.06623474129453" fill="#ffed16" stroke="none" /><path d="M 102.16513564639614 79.11191278185805 l 1.5252946696671665 -14.715238810282655 a35.794079122167894,35.794079122167894 0 0,0 0.6123059541852425,0.06879970834115146 l -1.7783673273621343 14.686803148470903" fill="#ffa60f" stroke="none" /><path d="M 102.52436894288641 79.15227682838746 l 1.7267705963941813 -14.260687002964014 a35.36485052094446,35.36485052094446 0 0,0 0.6037037162038197,0.07837806877592422 l -1.9719890411058472 14.228850611023953" fill="#ffa00e" stroke="none" /><path d="M 102.88285421437855 79.19881850522331 l 5.028179228317697 -36.28073462571844 a57.627507304400204,57.627507304400204 0 0,0 0.9813992472679872,0.14463273804742582 l -5.65194745601434 36.18880740351004" fill="#52ff2b" stroke="none" /><path d="M 103.2404852339499 79.25152402106235 l 1.677921901004257 -10.743552197917044 a31.87379123099381,31.87379123099381 0 0,0 0.5413547819867772,0.08932817753458128 l -1.8626058891299093 10.713077757442838" fill="#ff6f0a" stroke="none" /><path d="M 103.95276090670814 79.375362276772 l 2.757710075866658 -14.389125121107467 a35.65100292176008,35.65100292176008 0 0,0 0.6017101415074967,0.1206973937912871 l -3.0049866268412804 14.339523771238971" fill="#ffa40f" stroke="none" /><path d="M 104.66035177308747 79.52364482259891 l 3.924508497056496 -17.24325411367375 a38.68421837040572,38.68421837040572 0 0,0 0.6480091290989496,0.15336282452245625 l -4.220741313117969 17.173145377010425" fill="#ffcc13" stroke="none" /><path d="M 105.36241919743992 79.69619591428918 l 11.252773601866432 -42.606536755319404 a65.0674697256065,65.0674697256065 0 0,0 1.0804363826757752,0.2953240771060938 l -11.984507873765919 42.40652613738702" fill="#35ff62" stroke="none" /><path d="M 107.08798089147638 80.2323363322302 l 3.187238605620537 -8.888886941075679 a30.443029226915677,30.443029226915677 0 0,0 0.49175302718056263,0.181116789985114 l -3.3397739585736765 8.83270688328424" fill="#ff5b08" stroke="none" /><path d="M 107.4271985657038 80.35727306442388 l 5.5662899309561285 -14.721178138807069 a36.73838204485946,36.73838204485946 0 0,0 0.5895930114186475,0.22875292855342416 l -5.8188661073744425 14.623182506363099" fill="#ffb210" stroke="none" /><path d="M 108.09893153111575 80.62456947434976 l 7.349876739582478 -17.583433764410934 a40.057749894320736,40.057749894320736 0 0,0 0.633897186488384,0.2714016935101152 l -7.651457683861177 17.454312542938027" fill="#ffde14" stroke="none" /><path d="M 109.08828744355905 81.06846463323043 l 19.368540782272046 -40.34601866407388 a65.754235487564,65.754235487564 0 0,0 1.0161494634036594,0.49862012860350846 l -20.06016151268614 40.006643375335535" fill="#35ff6a" stroke="none" /><path d="M 109.41281617654863 81.2277094730956 l 8.04202127139016 -16.038468923488097 a38.94175553113979,38.94175553113979 0 0,0 0.596623877953657,0.30561392328500536 l -8.316905636932573 15.897662474890591" fill="#ffd013" stroke="none" /><path d="M 110.36928655335952 81.73862282372117 l 14.166553092386874 -24.94875302911174 a49.69026845860854,49.69026845860854 0 0,0 0.740156111358466,0.42874619347010573 l -14.59390593621067 24.701202678251583" fill="#aaff21" stroke="none" /><line stroke="#e1ed5e" stroke-width="0.3" x1="143.23703022742887" x2="145.7803849466894" y1="26.81831364943548" y2="22.513508569990506" /><path d="M 143.74570117128098 25.957352633546492 a86.0,86.0 0 0,1 28.547481713284135,27.462654790039103" fill="none" id="id86" stroke="none" /><text fill="#e1ed5e" style="font-size:6.75px; font-family:Arial;" text-anchor="middle"><textPath startOffset="19.985693538727396" xlink:href="#id86">February</textPath></text><path d="M 110.68208982089419 81.91981866633111 l 12.046724434706771 -20.389920503215322 a44.6827453588726,44.6827453588726 0 0,0 0.65883204517356,0.39693893549500175 l -12.395918546097969 20.179534958261705" fill="#e5ff1a" stroke="none" /><path d="M 111.2981086023043 82.29822771554956 l 9.261027442344195 -14.510092323859228 a38.21364018837302,38.21364018837302 0 0,0 0.5514282400900969,0.3586642663290009 l -9.509422708218572 14.348529133370699" fill="#ffc612" stroke="none" /><path d="M 115.4437574822437 85.77008943001954 l 7.660969774608954 -7.0588336353602825 a31.417177649400323,31.417177649400323 0 0,0 0.3630275214534637,0.40086405633401134 l -7.781340936678452 6.925916791756722" fill="#ff6909" stroke="none" /><path d="M 116.82858285166822 87.43820079747576 l 12.574726137989162 -9.386481687998726 a36.69171042061901,36.69171042061901 0 0,0 0.37344715846236465,0.5093815044543074 l -12.734435908965153 9.168637739872924" fill="#ffb210" stroke="none" /><path d="M 117.2510076193507 88.02491185347247 l 10.767618656821945 -7.4745304963519805 a34.1076396685153,34.1076396685153 0 0,0 0.33064195096649085,0.4851762639695042 l -10.89468507345717 7.288076209112069" fill="#ff8f0d" stroke="none" /><path d="M 117.45458315368197 88.32363383020206 l 2.7113927605308477 -1.8138052581003095 a24.262137369298145,24.262137369298145 0 0,0 0.22922331845128457,0.3491228401092446 l -2.742212714340057 1.7668643540133908" fill="#ff0000" stroke="none" /><line stroke="#e1ed5e" stroke-width="0.3" x1="172.23445277983987" x2="176.4835382374775" y1="55.19839476539836" y2="52.563006222186495" /><path d="M 173.08426987136738 54.67131705675599 a86.0,86.0 0 0,1 12.851231095245387,41.99856678651699" fill="none" id="id87" stroke="none" /><text fill="#e1ed5e" style="font-size:6.75px; font-family:Arial;" text-anchor="middle"><textPath startOffset="22.20632615414155" xlink:href="#id87">March</textPath></text><path d="M 118.3937258080291 89.86733742301442 l 14.156263993242902 -7.7983464520084995 a37.162116743543805,37.162116743543805 0 0,0 0.30383021241735003,0.5629512397971679 l -14.288402304878716 7.553514228878873" fill="#ffb811" stroke="none" /><path d="M 118.73160827565052 90.50648371742162 l 29.197328568277985 -14.797731731933311 a53.733115646608525,53.733115646608525 0 0,0 0.4110327143544865,0.828616870582439 l -29.447721295585882 14.292955272851922" fill="#7cff26" stroke="none" /><path d="M 119.04729006885535 91.15688171328212 l 28.072219947364115 -13.033138082525165 a51.95015704404996,51.95015704404996 0 0,0 0.369582528370063,0.8143261112428442 l -28.292404792697525 12.547989962440257" fill="#90ff24" stroke="none" /><path d="M 119.34039704204932 91.81776055985345 l 20.600196449411417 -8.715216109404166 a43.367903021695184,43.367903021695184 0 0,0 0.2849442905817373,0.6900152012220665 l -20.747162426879353 8.359326337728795" fill="#f6ff19" stroke="none" /><path d="M 119.7369772167798 92.82701384747503 l 18.851117327897402 -6.851039146849319 a41.05745153058622,41.05745153058622 0 0,0 0.2356832996101304,0.6663084254522862 l -18.966253708317343 6.525533094970418" fill="#ffeb16" stroke="none" /><path d="M 119.97218684219823 93.5106431181261 l 40.860602272742106 -13.276414478352967 a63.96337974941261,63.96337974941261 0 0,0 0.33122222797144724,1.0500649773054167 l -41.083079984481756 12.571099334621133" fill="#33ff54" stroke="none" /><path d="M 120.18372546131832 94.20196356495316 l 22.294806795427412 -6.404471878095741 a44.19645813659395,44.19645813659395 0 0,0 0.20375246865391422,0.7330060379949126 l -22.40174603464769 6.0197545366818765" fill="#ebff1a" stroke="none" /><path d="M 120.37134235888165 94.90015583598534 l 11.991720391881026 -3.002055739854899 a33.36178371523507,33.36178371523507 0 0,0 0.13466595161165107,0.5582773093199205 l -12.041619143753497 2.7951931988755727" fill="#ff840c" stroke="none" /><path d="M 120.6074358757038 95.95851677861258 l 59.601828881913 -11.688974448017271 a81.73722194598004,81.73722194598004 0 0,0 0.25889010225504877,1.3830012783197538 l -59.794204708077906 10.661295092234955" fill="#4ae8ff" stroke="none" /><path d="M 120.78858239683441 97.02765380044208 l 14.280908864626054 -2.041880700651715 a35.426144141642595,35.426144141642595 0 0,0 0.08111574991828445,0.6044065551106613 l -14.313940613602176 1.7957558034763892" fill="#ffa10e" stroke="none" /><path d="M 120.87857604477298 97.74499172005257 l 18.60189133323521 -2.0091130204077965 a39.71007472732975,39.71007472732975 0 0,0 0.06755038136350991,0.6802231217607583 l -18.633718840280945 1.6886143679426031" fill="#ffda14" stroke="none" /><path d="M 120.94382443527127 98.46500227214037 l 60.69680689847859 -4.448540951317081 a81.85960798646951,81.85960798646951 0 0,0 0.09090084185022367,1.4061957897580344 l -60.76438833133323 3.403086097306011" fill="#4ae6ff" stroke="none" /><line stroke="#e1ed5e" stroke-width="0.3" x1="184.98032266829074" x2="189.97916517819016" y1="98.17113171792111" y2="98.06355123074" /><path d="M 185.9800911702706 98.14961562048488 a86.0,86.0 0 0,1 -9.607161424134198,41.387399972396054" fill="none" id="id88" stroke="none" /><text fill="#e1ed5e" style="font-size:6.75px; font-family:Arial;" text-anchor="middle"><textPath startOffset="21.466115282336823" xlink:href="#id88">April</textPath></text><path d="M 120.99513854157772 99.54816195383933 l 14.333803505495174 -0.3084789251163081 a35.33712252097284,35.33712252097284 0 0,0 0.007853242823133036,0.6082423112288923 l -14.336989755436022 0.06170035582695308" fill="#ff9f0e" stroke="none" /><path d="M 120.99980553446 99.90962569577887 l 17.36705853052985 -0.07474049359593923 a38.367219355562725,38.367219355562725 0 0,0 -0.0028422851021753038,0.6604469592721932 l -17.36577194813817 -0.22421594387993865" fill="#ffc812" stroke="none" /><path d="M 120.9904718944345 100.63252640178507 l 34.54932517471572 1.041108577585603 a55.56500798638079,55.56500798638079 0 0,0 -0.037037695234056756,0.9557783406918668 l -34.52628534663046 -1.635664165291476" fill="#68ff28" stroke="none" /><path d="M 120.9764740272857 100.99374915477107 l 20.454097053587475 0.9690018271024943 a41.47703715918159,41.47703715918159 0 0,0 -0.039923917874314534,0.7128683730169182 l -20.43438678482563 -1.3209419164548357" fill="#fff016" stroke="none" /><path d="M 120.92983693683757 101.71520430193887 l 14.42440357154552 1.1820827430944876 a35.47275847951374,35.47275847951374 0 0,0 -0.05511014602666357,0.6081358691498313 l -14.401918829241781 -1.4302000007928894" fill="#ffa10e" stroke="none" /><path d="M 120.89721153311464 102.0752229133903 l 18.7286372189167 1.8598700133595036 a39.8207589789675,39.8207589789675 0 0,0 -0.07360715314499244,0.6815108210657208 l -18.693847764270654 -2.181977156310016" fill="#ffdb14" stroke="none" /><path d="M 120.8583938346157 102.4346265915055 l 17.09168310491345 1.994969819380361 a38.2077173366784,38.2077173366784 0 0,0 -0.08187093406064588,0.6525918979939164 l -17.054810661605956 -2.288879471661672" fill="#ffc612" stroke="none" /><path d="M 120.76222939487914 103.15116336523771 l 20.99414256053287 3.186361717862811 a42.23456905258591,42.23456905258591 0 0,0 -0.11527673349529739,0.717828329515452 l -20.936184072676287 -3.547269277071468" fill="#fffa17" stroke="none" /><path d="M 120.70491114924044 103.5080841355445 l 46.604387251158585 7.896296216106172 a68.2685985088245,68.2685985088245 0 0,0 -0.20628025961440336,1.156929243952991 l -46.46156054920499 -8.69734421079238" fill="#39ff87" stroke="none" /><path d="M 120.49622156327973 104.57218783832717 l 39.03864703796622 8.708533261150713 a60.99818138510146,60.99818138510146 0 0,0 -0.2374265155087467,1.0228272147824549 l -38.88295995652692 -9.379229133281733" fill="#2fff2f" stroke="none" /><path d="M 120.23288151984713 105.62410040840565 l 12.099730958356739 3.3633420804515683 a33.55848554622542,33.55848554622542 0 0,0 -0.15949447392689073,0.5552211874487408 l -12.04004384754375 -3.571120743404891" fill="#ff870c" stroke="none" /><path d="M 120.13307415673323 105.97154293290107 l 56.887703537153236 16.87309952676296 a80.33727581690185,80.33727581690185 0 0,0 -0.40464442624851066,1.3224013975499462 l -56.588832338398596 -17.849827896864966" fill="#48f5ff" stroke="none" /><path d="M 119.26925614724726 108.34839909993367 l 3.4149954790568597 1.4795457056451364 a24.721726698331267,24.721726698331267 0 0,0 -0.17253283087987434,0.38901598629698586 l -3.3890215634457124 -1.53811002843481" fill="#ff0701" stroke="none" /><path d="M 119.12269723197855 108.67885076344098 l 3.7376927093600427 1.69635469466568 a25.104627393530077,25.104627393530077 0 0,0 -0.18197912019397056,0.3919668352752699 l -3.707938972326241 -1.7604415972197807" fill="#ff0d01" stroke="none" /><path d="M 118.97047184881838 109.00673069616215 l 25.449072143573304 12.082616662939987 a49.171703860298436,49.171703860298436 0 0,0 -0.36959968195494236,0.7614848166368547 l -25.237319205003647 -12.518890435542119" fill="#b0ff20" stroke="none" /><path d="M 118.81262510543309 109.33194174019688 l 25.766957741665998 12.781615915893543 a49.762924341628135,49.762924341628135 0 0,0 -0.3872534900587677,0.7640878746340698 l -25.54312558182096 -13.223258002230306" fill="#a9ff21" stroke="none" /><line stroke="#e1ed5e" stroke-width="0.3" x1="174.80103733775053" x2="179.2010983576182" y1="140.37084112569926" y2="142.7455964860345" /><path d="M 175.68104954172406 140.8457921977663 a86.0,86.0 0 0,1 -30.038265399797805,32.042727171017184" fill="none" id="id89" stroke="none" /><text fill="#e1ed5e" style="font-size:6.75px; font-family:Arial;" text-anchor="middle"><textPath startOffset="22.206326154141568" xlink:href="#id89">May</textPath></text><path d="M 117.94076556474637 110.91462005526583 l 13.20118235697213 8.031200741497809 a36.45222964404384,36.45222964404384 0 0,0 -0.33073517667305036,0.5332504131697998 l -13.060982540631116 -8.257247486032883" fill="#ffaf10" stroke="none" /><path d="M 117.75023020441432 111.22182372390056 l 24.187004704872432 15.29119904820904 a49.61524008156266,49.61524008156266 0 0,0 -0.46259155763571475,0.717952370261822 l -23.92020828385967 -15.705273018392313" fill="#aaff21" stroke="none" /><path d="M 117.55443506779139 111.5257021239791 l 14.791635437953317 9.711732865567663 a38.694921140865915,38.694921140865915 0 0,0 -0.3703599516995756,0.5536378766927397 l -14.622272380843022 -9.96490765646621" fill="#ffcc13" stroke="none" /><path d="M 117.35343817320211 111.8261652097733 l 9.250228841471435 6.303922797061787 a32.19402413124544,32.19402413124544 0 0,0 -0.31602128234358245,0.4552522271969181 l -9.140346651965716 -6.462216286445725" fill="#ff740a" stroke="none" /><path d="M 116.71984013943494 112.70617746262583 l 12.294097758133182 9.342851759047372 a36.44129912533495,36.44129912533495 0 0,0 -0.38383652086863124,0.4961604449064162 l -12.131454420046483 -9.553090198067041" fill="#ffae10" stroke="none" /><path d="M 116.498646956653 112.99209946851258 l 10.775343825100915 8.48520118958493 a34.715198641539025,34.715198641539025 0 0,0 -0.37373736153855436,0.46629482326572835 l -10.627688551507507 -8.66942384642891" fill="#ff970d" stroke="none" /><path d="M 116.27256486870786 113.27417163493432 l 22.333763491925904 18.218529914479028 a49.822071819320165,49.822071819320165 0 0,0 -0.5478150322224854,0.6598784963720549 l -22.016852459809876 -18.600269667964856" fill="#a8ff21" stroke="none" /><path d="M 115.80600337817218 113.82643327865902 l 23.162764602987846 20.261821516169476 a51.774259945716565,51.774259945716565 0 0,0 -0.5925469139980706,0.6657327394235388 l -22.810558839341436 -20.65752842533388" fill="#92ff23" stroke="none" /><path d="M 115.56566222782051 114.09645910891815 l 32.24464211021236 29.201152661267304 a64.50200296035021,64.50200296035021 0 0,0 -0.752380824600398,0.8165607880861758 l -31.73721487761624 -29.751864704154816" fill="#34ff5b" stroke="none" /><path d="M 115.07121518719521 114.62390073753431 l 10.336738011582769 10.029943090436108 a35.403052145899046,35.403052145899046 0 0,0 -0.4281398568618477,0.4337034146014647 l -10.162557529665385 -10.206386999018237" fill="#ffa00e" stroke="none" /><path d="M 114.81725581225074 114.88116024355365 l 20.59459636866622 20.683417536737338 a50.18803111871874,50.18803111871874 0 0,0 -0.6174323918898147,0.6042875477565137 l -20.23551402440061 -21.034855187416426" fill="#a4ff21" stroke="none" /><path d="M 114.0293411484842 115.62618273729858 l 9.579662046513548 10.670034188779987 a35.33944052308687,35.33944052308687 0 0,0 -0.4561440760850245,0.4024941121827133 l -9.394575617521935 -10.833351442734989" fill="#ff9f0e" stroke="none" /><path d="M 113.75828350139079 115.86535959552629 l 16.07845623195595 18.540865932521694 a45.541403063612044,45.541403063612044 0 0,0 -0.5966672489485476,0.5084927739734758 l -15.756923506430358 -18.814883096718116" fill="#dbff1b" stroke="none" /><path d="M 112.92097659922987 116.55440617244103 l 8.84889422655689 11.337238178430123 a35.38179051951618,35.38179051951618 0 0,0 -0.48333424926240265,0.37060009190470705 l -8.652431248800994 -11.487877612162203" fill="#ffa00e" stroke="none" /><path d="M 112.34349029814194 116.9893568818739 l 9.515580373001919 13.097072788190182 a37.18887227246577,37.18887227246577 0 0,0 -0.521127086566906,0.3718103394831713 l -9.288725958586129 -13.258927389517574" fill="#ffb811" stroke="none" /><path d="M 112.04921762599082 117.19931262002967 l 11.804995831523737 16.850705173301893 a41.57435761864355,41.57435761864355 0 0,0 -0.5896493425209125,0.40556619449564774 l -11.51318960437994 -17.051412157162634" fill="#fff216" stroke="none" /><path d="M 111.45004920935366 117.60387380957326 l 34.35014762806101 52.81162142871979 a84.0,84.0 0 0,0 -1.2188727918122781,0.7779422847047646 l -33.4359930342018 -53.39507814224836" fill="#4dd2ff" stroke="none" /><line stroke="#e1ed5e" stroke-width="0.3" x1="143.8653032363475" x2="146.44561519142675" y1="172.8068346515853" y2="177.08958963109032" /><path d="M 144.38136562736335 173.6633856474863 a86.0,86.0 0 0,1 -40.68145358897372,12.25698825130547" fill="none" id="id90" stroke="none" /><text fill="#e1ed5e" style="font-size:6.75px; font-family:Arial;" text-anchor="middle"><textPath startOffset="21.466115282336833" xlink:href="#id90">June</textPath></text><path d="M 110.8373102113329 117.98757091392108 l 9.013840231414424 14.961008516649265 a38.46657068667794,38.46657068667794 0 0,0 -0.5700967947167621,0.33682323508713063 l -8.75497556566928 -15.113950324030146" fill="#ffc912" stroke="none" /><path d="M 110.5260780823613 118.17145234162733 l 7.288761270440666 12.58278506191738 a35.54140711113911,35.54140711113911 0 0,0 -0.5320231024162972,0.3020966025020291 l -7.07108940110317 -12.706384830214038" fill="#ffa20f" stroke="none" /><path d="M 110.21172684928248 118.3499491758327 l 11.151120355316827 20.037991105102332 a43.9318244522088,43.9318244522088 0 0,0 -0.6639504244820081,0.3620387098430206 l -10.80454711896617 -20.226970466705122" fill="#efff19" stroke="none" /><path d="M 109.89434966115114 118.52300852407294 l 12.163890469682245 22.77176919878534 a46.81692669163344,46.81692669163344 0 0,0 -0.7140898826228727,0.3735780766161721 l -11.770109684532876 -22.977776694346225" fill="#cbff1d" stroke="none" /><path d="M 109.57404056367764 118.69057910512821 l 6.747290014632093 13.172156199355024 a35.79971693924451,35.79971693924451 0 0,0 -0.5508827921419119,0.27622406811912475 l -6.519553314807421 -13.28634810838345" fill="#ffa60f" stroke="none" /><path d="M 108.2653958097858 119.30500536409082 l 11.67644847571159 27.272003137498135 a50.666506436344264,50.666506436344264 0 0,0 -0.8047012354322093,0.3363651816738661 l -11.20527578078192 -27.468953362191975" fill="#9eff22" stroke="none" /><path d="M 107.59598834532513 119.57807347666477 l 5.622042943963284 14.490381612238595 a36.54279659945628,36.54279659945628 0 0,0 -0.5883908450941111,0.22247907101133066 l -5.371781878108898 -14.585008933356557" fill="#ffb010" stroke="none" /><path d="M 106.91757812671514 119.82793768551818 l 6.755866920175634 19.364422902225403 a41.50908608835009,41.50908608835009 0 0,0 -0.6766579298169773,0.22955910832807871 l -6.421539257421429 -19.477844997451605" fill="#fff116" stroke="none" /><path d="M 106.57524785965236 119.94407469862006 l 13.891310969939896 42.135193921174746 a65.366012748934,65.366012748934 0 0,0 -1.0716249021891162,0.34310045288192015 l -13.16396472265984 -42.36806722071638" fill="#35ff65" stroke="none" /><path d="M 106.2309692047433 120.05430185196036 l 6.9879945006852875 22.490778954564743 a44.55137374177354,44.55137374177354 0 0,0 -0.7343021607187393,0.22123921745208205 l -6.599817365526302 -22.60773354112255" fill="#e7ff1a" stroke="none" /><path d="M 105.88484417918355 120.15858648285463 l 5.367637631254651 18.386890817096166 a40.154354274166394,40.154354274166394 0 0,0 -0.6651642055651473,0.1879820486383759 l -5.050342257584899 -18.476561659073063" fill="#ffdf14" stroke="none" /><path d="M 105.53697534728816 120.25689768951611 l 3.824205914392484 13.990769886564824 a35.504006098126254,35.504006098126254 0 0,0 -0.5909042595130477,0.15606318558263624 l -3.582811212067939 -14.054524421451045" fill="#ffa20e" stroke="none" /><path d="M 104.13013068566511 120.58985236759428 l 3.5770170531595533 17.832426779265912 a39.18764679216292,39.18764679216292 0 0,0 -0.6625182723782428,0.12697320370806814 l -3.269531166209606 -17.891357181322448" fill="#ffd313" stroke="none" /><path d="M 103.7750983002368 120.6578951692458 l 1.669073827591027 9.133418368985092 a30.284672236803175,30.284672236803175 0 0,0 -0.5136151031318716,0.08929856923467962 l -1.5116097529871055 -9.160795516740778" fill="#ff5908" stroke="none" /><path d="M 103.41894727170886 120.7198165907248 l 6.2304414483098975 37.758290441170566 a59.268876357695824,59.268876357695824 0 0,0 -1.0080341447233336,0.1574342021365418 l -5.5795714399780465 -37.859942950654215" fill="#41ff2d" stroke="none" /><line stroke="#e1ed5e" stroke-width="0.3" x1="102.19456741930631" x2="102.32365962044197" y1="184.97166512339345" y2="189.96999836594603" /><path d="M 102.22038585953345 185.97133177190398 a86.0,86.0 0 0,1 -42.740103519485714,-10.115201625700543" fill="none" id="id91" stroke="none" /><text fill="#e1ed5e" style="font-size:6.75px; font-family:Arial;" text-anchor="middle"><textPath startOffset="22.20632615414155" xlink:href="#id91">July</textPath></text><line stroke="#e1ed5e" stroke-width="0.3" x1="58.666819895761336" x2="56.23545636021788" y1="174.27360380694188" y2="178.64263932499728" /><path d="M 58.180547188652646 175.14741091055294 a86.0,86.0 0 0,1 -31.652253787137756,-30.449443065178592" fill="none" id="id92" stroke="none" /><text fill="#e1ed5e" style="font-size:6.75px; font-family:Arial;" text-anchor="middle"><textPath startOffset="22.20632615414155" xlink:href="#id92">August</textPath></text><line stroke="#e1ed5e" stroke-width="0.3" x1="26.63291911575756" x2="22.317208475507996" y1="142.92168965132927" y2="145.44649492493687" /><path d="M 25.769776987707644 143.4266507060508 a86.0,86.0 0 0,1 -11.730757126820373,-40.83630448921669" fill="none" id="id93" stroke="none" /><text fill="#e1ed5e" style="font-size:6.75px; font-family:Arial;" text-anchor="middle"><textPath startOffset="21.46611528233685" xlink:href="#id93">September</textPath></text><line stroke="#e1ed5e" stroke-width="0.3" x1="15.007084014347285" x2="10.007500721073583" y1="101.09737516637583" y2="101.16192664675087" /><path d="M 14.007167355692545 101.11028546245083 a86.0,86.0 0 0,1 10.666146001902534,-42.60595125391555" fill="none" id="id94" stroke="none" /><text fill="#e1ed5e" style="font-size:6.75px; font-family:Arial;" text-anchor="middle"><textPath startOffset="22.20632615414155" xlink:href="#id94">October</textPath></text><line stroke="#e1ed5e" stroke-width="0.3" x1="26.266209847984243" x2="21.928928074336255" y1="57.711370442889674" y2="55.22380399835377" /><path d="M 25.398753493254645 57.213857153982495 a86.0,86.0 0 0,1 29.58750427330803,-30.492523968695096" fill="none" id="id95" stroke="none" /><text fill="#e1ed5e" style="font-size:6.75px; font-family:Arial;" text-anchor="middle"><textPath startOffset="21.46611528233685" xlink:href="#id95">November</textPath></text><line stroke="#e1ed5e" stroke-width="0.3" x1="56.762969772571076" x2="54.21961505331055" y1="26.818313649435495" y2="22.513508569990535" /><path d="M 56.25429882871897 25.957352633546506 a86.0,86.0 0 0,1 42.265352541879196,-11.944610805530505" fill="none" id="id96" stroke="none" /><text fill="#e1ed5e" style="font-size:6.75px; font-family:Arial;" text-anchor="middle"><textPath startOffset="22.20632615414155" xlink:href="#id96">December</textPath></text></svg>