<?xml version="1.0" encoding="utf-8" ?>
<svg baseProfile="full" height="200mm" version="1.1" viewBox="0,0,200,200" width="200mm" xmlns="http://www.w3.org/2000/svg" xmlns:ev="http://www.w3.org/2001/xml-events" xmlns:xlink="http://www.w3.org/1999/xlink"><defs /><rect fill="#1a1a1a" height="200" width="200" x="0" y="0" /><rect fill="#1a1a1a" height="200" width="180" x="10" y="0" /><text alignment-baseline="middle" fill="#e1ed5e" style="dominant-baseline: central; font-size:9.0px; font-family:Arial;" text-anchor="middle" x="100.0" y="100.0">2025</text><line stroke="#e1ed5e" stroke-width="0.3" x1="100.0" x2="100.0" y1="15.0" y2="10.0" /><path d="M 100.0 14.0 a86.0,86.0 0 0,1 42.46469731375804,11.215312516191453" fill="none" id="id73" stroke="none" /><text fill="#e1ed5e" style="font-size:6.75px; font-family:Arial;" text-anchor="middle"><textPath startOffset="22.20632615414155" xlink:href="#id73">January</textPath></text><path d="M 100.36148047927253 79.00311137660856 l 0.20181005950247666 -11.722301992575488 a32.724039035471336,32.724039035471336 0 0,0 0.5631236236315604,0.014543821821885279 l -0.4035603183289049 11.717091378611244" fill="#ff960d" stroke="none" /><path d="M 100.72285384407766 79.0124445844662 l 0.11277789124027253 -3.274427135505376 a24.27636870917889,24.27636870917889 0 0,0 0.4175063388388917,0.017978701198315763 l -0.16912506246849576 3.2720007077828654" fill="#ff2203" stroke="none" /><path d="M 101.80526077348638 79.07773832637324 l 1.1427320446220801 -13.243814528938543 a34.29302297458068,34.29302297458068 0 0,0 0.5876760611746932,0.05580692319451325 l -1.3705332328870177 13.222182061228851" fill="#ffab0f" stroke="none" /><path d="M 103.95276090670814 79.375362276772 l 5.252366597555944 -27.40569460711225 a48.90447010379202,48.90447010379202 0 0,0 0.82539937771403,0.16556735021524047 l -5.723332384737099 27.3112233008198" fill="#a3ff21" stroke="none" /><path d="M 106.0581310904928 79.89281104454417 l 4.091242270732669 -13.579003189493275 a35.181945950330594,35.181945950330594 0 0,0 0.5783486837407158,0.1796957512953767 l -4.324376327184104 13.506567303315377" fill="#ffb610" stroke="none" /><line stroke="#e1ed5e" stroke-width="0.3" x1="143.23703022742887" x2="145.7803849466894" y1="26.81831364943548" y2="22.513508569990506" /><path d="M 143.74570117128098 25.957352633546492 a86.0,86.0 0 0,1 28.547481713284135,27.462654790039103" fill="none" id="id74" stroke="none" /><text fill="#e1ed5e" style="font-size:6.75px; font-family:Arial;" text-anchor="middle"><textPath startOffset="19.985693538727396" xlink:href="#id74">February</textPath></text><path d="M 111.90073688211348 82.69761687909136 l 1.9853558165970215 -2.886492434070652 a24.50335215050425,24.50335215050425 0 0,0 0.3454609308371566,0.24201745900511884 l -2.0347478870178293 2.8518901323015973" fill="#ff2603" stroke="none" /><path d="M 113.34407831869373 83.78471172551755 l 1.049792416814849 -1.2756734680709512 a22.65209167891559,22.65209167891559 0 0,0 0.29894554671059753,0.2503582981564478 l -1.0715955004845639 1.257414012520684" fill="#ff0b01" stroke="none" /><path d="M 114.16331599549186 84.49514656593476 l 9.118012330550503 -9.981662828124708 a34.51930995555755,34.51930995555755 0 0,0 0.43525910157493797,0.4045258986633676 l -9.288479315920288 9.8232323433867" fill="#ffae10" stroke="none" /><path d="M 114.94478906791727 85.2469230424477 l 8.34105371852388 -8.234054482617726 a32.720615613440195,32.720615613440195 0 0,0 0.39223563159699587,0.40423329684611176 l -8.481553613823984 8.0892569902215" fill="#ff960d" stroke="none" /><path d="M 116.82858285166822 87.43820079747576 l 9.518705974100229 -7.105296635400402 a32.87817341590885,32.87817341590885 0 0,0 0.3346330900590618,0.4564391587723297 l -9.639601676672918 6.940395032956578" fill="#ff980e" stroke="none" /><path d="M 117.45458315368197 88.32363383020206 l 9.95164858556943 -6.657225317566447 a32.973051344561824,32.973051344561824 0 0,0 0.3115221109179507,0.4744695472315834 l -10.064767331845305 6.48493770635719" fill="#ff9a0e" stroke="none" /><line stroke="#e1ed5e" stroke-width="0.3" x1="172.23445277983987" x2="176.4835382374775" y1="55.19839476539836" y2="52.563006222186495" /><path d="M 173.08426987136738 54.67131705675599 a86.0,86.0 0 0,1 12.851231095245387,41.99856678651699" fill="none" id="id75" stroke="none" /><text fill="#e1ed5e" style="font-size:6.75px; font-family:Arial;" text-anchor="middle"><textPath startOffset="22.20632615414155" xlink:href="#id75">March</textPath></text><path d="M 118.73160827565052 90.50648371742162 l 9.257996432383107 -4.692119255404906 a31.379136816178878,31.379136816178878 0 0,0 0.2400354348421052,0.48389678948091047 l -9.33739188017862 4.532062877425045" fill="#ff850c" stroke="none" /><path d="M 119.47837535516314 92.15188598940014 l 0.8486062126329638 -0.3419154927149242 a21.91489819558121,21.91489819558121 0 0,0 0.1379662331019867,0.351109014548137 l -0.8543659956166508 0.3272574732710028" fill="#ff0000" stroke="none" /><path d="M 120.73433829027371 96.67025291283417 l 4.440269771508476 -0.7130671416143687 a25.49716137048939,25.49716137048939 0 0,0 0.06586051135124729,0.43393848120453443 l -4.4518861762990225 0.6365295480177521" fill="#ff3404" stroke="none" /><line stroke="#e1ed5e" stroke-width="0.3" x1="184.98032266829074" x2="189.97916517819016" y1="98.17113171792111" y2="98.06355123074" /><path d="M 185.9800911702706 98.14961562048488 a86.0,86.0 0 0,1 -9.607161424134198,41.387399972396054" fill="none" id="id76" stroke="none" /><text fill="#e1ed5e" style="font-size:6.75px; font-family:Arial;" text-anchor="middle"><textPath startOffset="21.466115282336823" xlink:href="#id76">April</textPath></text><path d="M 120.49622156327973 104.57218783832717 l 8.540530913081648 1.9051761054148488 a29.750449375314787,29.750449375314787 0 0,0 -0.11579928072618899,0.49886027061967353 l -8.506471066424906 -2.0519050333830875" fill="#ff6f0a" stroke="none" /><path d="M 120.23288151984713 105.62410040840565 l 0.8875652918752556 0.24671504726727764 a21.92121683760649,21.92121683760649 0 0,0 -0.10418565946712108,0.36268394847949825 l -0.8831869955220351 -0.26195647125135785" fill="#ff0000" stroke="none" /><line stroke="#e1ed5e" stroke-width="0.3" x1="174.80103733775053" x2="179.2010983576182" y1="140.37084112569926" y2="142.7455964860345" /><path d="M 175.68104954172406 140.8457921977663 a86.0,86.0 0 0,1 -30.038265399797805,32.042727171017184" fill="none" id="id77" stroke="none" /><text fill="#e1ed5e" style="font-size:6.75px; font-family:Arial;" text-anchor="middle"><textPath startOffset="22.206326154141568" xlink:href="#id77">May</textPath></text><path d="M 117.94076556474637 110.91462005526583 l 4.6821841809047156 2.8484994789615308 a26.4805837267173,26.4805837267173 0 0,0 -0.24026131248441707,0.38737773659221864 l -4.632458228752336 -2.928673546919023" fill="#ff4206" stroke="none" /><path d="M 117.35343817320211 111.8261652097733 l 9.106534591063824 6.20599684555558 a32.020134713572595,32.020134713572595 0 0,0 -0.3143143582096213,0.4527932756735294 l -8.998359325692066 -6.361831383416129" fill="#ff8d0d" stroke="none" /><path d="M 116.27256486870786 113.27417163493432 l 5.18034125822069 4.22580825727035 a27.68531158427472,27.68531158427472 0 0,0 -0.30441186614298354,0.36668370287922564 l -5.106833392184162 -4.314353217263346" fill="#ff5207" stroke="none" /><path d="M 115.80600337817218 113.82643327865902 l 7.620811035558626 6.666368011658914 a31.12507892841144,31.12507892841144 0 0,0 -0.35622082259241294,0.4002178704535886 l -7.504931363317875 -6.796560051853369" fill="#ff810b" stroke="none" /><path d="M 113.75828350139079 115.86535959552629 l 4.503778254332757 5.1935302493423485 a27.874356334598506,27.874356334598506 0 0,0 -0.3651998926591107,0.31123127136656425 l -4.413712885096599 -5.270285910931859" fill="#ff5507" stroke="none" /><line stroke="#e1ed5e" stroke-width="0.3" x1="143.8653032363475" x2="146.44561519142675" y1="172.8068346515853" y2="177.08958963109032" /><path d="M 144.38136562736335 173.6633856474863 a86.0,86.0 0 0,1 -40.68145358897372,12.25698825130547" fill="none" id="id78" stroke="none" /><text fill="#e1ed5e" style="font-size:6.75px; font-family:Arial;" text-anchor="middle"><textPath startOffset="21.466115282336833" xlink:href="#id78">June</textPath></text><path d="M 110.5260780823613 118.17145234162733 l 0.449429890763318 0.7758629355594111 a21.896632879994034,21.896632879994034 0 0,0 -0.32777302600475905,0.18611807851600867 l -0.4360080978373599 -0.7834841798700483" fill="#ff0000" stroke="none" /><path d="M 105.53697534728816 120.25689768951611 l 1.374264574668718 5.0277155199950405 a26.21215180814876,26.21215180814876 0 0,0 -0.43625702721066095,0.11521944596475399 l -1.2875171046465597 -5.050626315263378" fill="#ff3e05" stroke="none" /><line stroke="#e1ed5e" stroke-width="0.3" x1="102.19456741930631" x2="102.32365962044197" y1="184.97166512339345" y2="189.96999836594603" /><path d="M 102.22038585953345 185.97133177190398 a86.0,86.0 0 0,1 -42.740103519485714,-10.115201625700543" fill="none" id="id79" stroke="none" /><text fill="#e1ed5e" style="font-size:6.75px; font-family:Arial;" text-anchor="middle"><textPath startOffset="22.20632615414155" xlink:href="#id79">July</textPath></text><path d="M 99.09653310690486 120.98055641714683 l -0.15172395005250933 3.5233752539660967 a24.5266405171608,24.5266405171608 0 0,0 -0.4216385651632479,-0.021793897691629954 l 0.2123505836292461 -3.520241549512265" fill="#ff2603" stroke="none" /><path d="M 96.22490169976321 120.6578951692458 l -0.7472106236948958 4.08884683417852 a25.15656013423771,25.15656013423771 0 0,0 -0.42530445493471497,-0.08151061102137003 l 0.8174826932013058 -4.075379024808682" fill="#ff2f04" stroke="none" /><path d="M 90.7491055286396 118.85261126421891 l -27.752683414081172 56.55783379265673 a84.0,84.0 0 0,0 -1.292584369268958,-0.6481286363627916 l 28.72212169103289 -56.07173731538464" fill="#4dd2ff" stroke="none" /><line stroke="#e1ed5e" stroke-width="0.3" x1="58.666819895761336" x2="56.23545636021788" y1="174.27360380694188" y2="178.64263932499728" /><path d="M 58.180547188652646 175.14741091055294 a86.0,86.0 0 0,1 -31.652253787137756,-30.449443065178592" fill="none" id="id80" stroke="none" /><text fill="#e1ed5e" style="font-size:6.75px; font-family:Arial;" text-anchor="middle"><textPath startOffset="22.20632615414155" xlink:href="#id80">August</textPath></text><path d="M 87.95078237400918 117.19931262002967 l -13.541845616538257 19.329921945190826 a44.60142930225469,44.60142930225469 0 0,0 -0.6249991325015924,-0.4459202862837024 l 13.872572076888737 -19.0939573970629" fill="#d4ff1c" stroke="none" /><path d="M 86.79598089348748 116.32954008644616 l -5.308201715588822 6.564705185779167 a29.44229587432092,29.44229587432092 0 0,0 -0.3913440125118304,-0.32204947973250503 l 5.4204158566453415 -6.472360587189481" fill="#ff6a09" stroke="none" /><path d="M 84.9287848128048 114.62390073753433 l -1.090366107405293 1.0580039846962197 a22.519299404268708,22.519299404268708 0 0,0 -0.26754369851908516,-0.28051849827164943 l 1.1084163573033357 -1.03907836984207" fill="#ff0901" stroke="none" /><line stroke="#e1ed5e" stroke-width="0.3" x1="26.63291911575756" x2="22.317208475507996" y1="142.92168965132927" y2="145.44649492493687" /><path d="M 25.769776987707644 143.4266507060508 a86.0,86.0 0 0,1 -11.730757126820373,-40.83630448921669" fill="none" id="id81" stroke="none" /><text fill="#e1ed5e" style="font-size:6.75px; font-family:Arial;" text-anchor="middle"><textPath startOffset="21.46611528233685" xlink:href="#id81">September</textPath></text><path d="M 79.35854240842038 103.8639653848113 l -1.2805042206087858 0.23970322645991368 a22.30274659691446,22.30274659691446 0 0,0 -0.06738993415151306,-0.377958539094785 l 1.2844405970994877 -0.21762593663191498" fill="#ff0601" stroke="none" /><path d="M 79.18660465613746 102.79330883721812 l -1.3024549992536703 0.1747989215304567 a22.314132294728765,22.314132294728765 0 0,0 -0.04781439408233143,-0.3811277658381511 l 1.30527090258285 -0.15235340140489695" fill="#ff0601" stroke="none" /><line stroke="#e1ed5e" stroke-width="0.3" x1="15.007084014347285" x2="10.007500721073583" y1="101.09737516637583" y2="101.16192664675087" /><path d="M 14.007167355692545 101.11028546245083 a86.0,86.0 0 0,1 10.666146001902534,-42.60595125391555" fill="none" id="id82" stroke="none" /><text fill="#e1ed5e" style="font-size:6.75px; font-family:Arial;" text-anchor="middle"><textPath startOffset="22.20632615414155" xlink:href="#id82">October</textPath></text><path d="M 79.00486145842228 99.54816195383935 l -2.7816155302270693 -0.059863369029879605 a23.782259617820024,23.782259617820024 0 0,0 0.012330881393047537,-0.4092019219813056 l 2.7801729543783766 0.10773543843617964" fill="#ff1b02" stroke="none" /><path d="M 79.46518482838121 95.60439243477599 l -4.5317947696681395 -0.9700594432974161 a25.63445564850091,25.63445564850091 0 0,0 0.09607502598496878,-0.43068550307116565 l 4.514425356681133 1.047923115918541" fill="#ff3605" stroke="none" /><line stroke="#e1ed5e" stroke-width="0.3" x1="26.266209847984243" x2="21.928928074336255" y1="57.711370442889674" y2="55.22380399835377" /><path d="M 25.398753493254645 57.213857153982495 a86.0,86.0 0 0,1 29.58750427330803,-30.492523968695096" fill="none" id="id83" stroke="none" /><text fill="#e1ed5e" style="font-size:6.75px; font-family:Arial;" text-anchor="middle"><textPath startOffset="21.46611528233685" xlink:href="#id83">November</textPath></text><path d="M 82.54541684631803 88.32363383020206 l -6.840781927653779 -4.576189186057551 a29.230297980529297,29.230297980529297 0 0,0 0.2833606442880091,-0.4157967806256422 l 6.76099681769703 4.693263989953609" fill="#ff6809" stroke="none" /><line stroke="#e1ed5e" stroke-width="0.3" x1="56.762969772571076" x2="54.21961505331055" y1="26.818313649435495" y2="22.513508569990535" /><path d="M 56.25429882871897 25.957352633546506 a86.0,86.0 0 0,1 42.265352541879196,-11.944610805530505" fill="none" id="id84" stroke="none" /><text fill="#e1ed5e" style="font-size:6.75px; font-family:Arial;" text-anchor="middle"><textPath startOffset="22.20632615414155" xlink:href="#id84">December</textPath></text><path d="M 97.47563105711357 79.15227682838746 l -1.096420372672766 -9.054884181494414 a30.121023252568193,30.121023252568193 0 0,0 0.5152606893657385,-0.05789554209904035 l 0.9403929797973094 9.072415677064054" fill="#ff740a" stroke="none" /><path d="M 97.83486435360386 79.11191278185805 l -0.7397706347622905 -7.136917063859427 a28.17515475571534,28.17515475571534 0 0,0 0.4828347731869515,-0.04585097961795681 l 0.6168107344851027 7.148593587992564" fill="#ff5908" stroke="none" /><path d="M 98.55514903715128 79.0497635885617 l -0.7562401436750459 -10.965428408321714 a31.991474847941678,31.991474847941678 0 0,0 0.5497018208919052,-0.03315951500675473 l 0.5673762739435178 10.976821192708774" fill="#ff8d0d" stroke="none" /><path d="M 98.91598698831166 79.02799685794201 l -0.11295241895487991 -2.185249124948559 a23.188166352688068,23.188166352688068 0 0,0 0.39879137420736693,-0.01717279545331067 l 0.07532021235818889 2.1868696469260622" fill="#ff1302" stroke="none" /><path d="M 99.27714615592234 79.0124445844662 l -0.06586496627443245 -1.912343194896809 a22.913477120022726,22.913477120022726 0 0,0 0.3943009679165603,-0.01018363070011708 l 0.03293736316299316 1.9131936177392859" fill="#ff0f01" stroke="none" /><path d="M 99.63851952072746 79.00311137660856 l -0.06766963445751889 -3.9306459390269706 a24.931228392934813,24.931228392934813 0 0,0 0.4291501137300537,-0.0036938305164007667 l 9.628732536249624e-16 3.9312283929348126" fill="#ff2c04" stroke="none" /></svg>